<svg id="Capa_1" enable-background="new 0 0 512 512" height="512" viewBox="0 0 512 512" width="512" xmlns="http://www.w3.org/2000/svg"><g><circle cx="256" cy="256" fill="#b6c4cf" r="256"/><path d="m369.181 26.335c26.143 40.137 41.346 88.052 41.346 139.524 0 141.385-114.615 256-256 256-40.637 0-79.053-9.484-113.181-26.335 45.667 70.114 124.741 116.476 214.654 116.476 141.385 0 256-114.615 256-256 0-100.748-58.207-187.888-142.819-229.665z" fill="#8d9ca8"/><circle cx="256" cy="256" fill="#f5f8f9" r="222.915"/><path d="m396.907 83.273c8.826 25.911 13.62 53.688 13.62 82.586 0 141.385-114.615 256-256 256-18.337 0-36.218-1.944-53.462-5.608 40.11 38.788 94.731 62.664 154.935 62.664 123.113 0 222.915-99.803 222.915-222.915 0-69.66-31.959-131.849-82.008-172.727z" fill="#e8edf2"/><g fill="#b6c4cf"><path d="m143.296 291.437c2.034 0 4.1-.449 6.053-1.398l221.266-107.512c6.891-3.348 9.763-11.649 6.415-18.54-3.349-6.891-11.649-9.763-18.541-6.415l-178.272 86.621c.907-40.226 33.906-72.67 74.34-72.67 4.731 0 9.463.447 14.063 1.328 7.526 1.44 14.793-3.492 16.234-11.016 1.441-7.525-3.49-14.793-11.015-16.234-6.316-1.209-12.803-1.823-19.282-1.823-56.302 0-102.107 45.809-102.107 102.115 0 .306.002.603.009.905.029 3.529.244 7.061.637 10.572l-15.874 7.713c-6.891 3.348-9.763 11.649-6.415 18.54 2.401 4.939 7.344 7.814 12.489 7.814z"/><path d="m381.19 227.497c-3.349-6.891-11.649-9.762-18.541-6.412l-224.04 108.899c-6.891 3.35-9.762 11.651-6.412 18.541 2.4 4.938 7.342 7.811 12.487 7.811 2.034 0 4.101-.45 6.054-1.399l178.146-86.591c-1.185 39.975-34.07 72.131-74.327 72.131-4.79 0-9.579-.458-14.235-1.362-7.521-1.459-14.802 3.453-16.262 10.974s3.453 14.802 10.975 16.262c6.394 1.242 12.962 1.871 19.522 1.871 56.303 0 102.108-45.806 102.108-102.108 0-.46-.001-.903-.008-1.354-.042-3.228-.241-6.443-.584-9.629l18.704-9.092c6.892-3.35 9.763-11.651 6.413-18.542z"/></g></g></svg>