<svg id="Capa_1" enable-background="new 0 0 512 512" height="512" viewBox="0 0 512 512" width="512" xmlns="http://www.w3.org/2000/svg"><g><circle cx="256" cy="256" fill="#8ac9fe" r="256"/><path d="m363.086 23.423c28.607 41.324 45.381 91.462 45.381 145.526 0 141.385-114.615 256-256 256-38.235 0-74.504-8.396-107.086-23.423 46.203 66.744 123.298 110.474 210.619 110.474 141.385 0 256-114.615 256-256 0-103.15-61.014-192.037-148.914-232.577z" fill="#60b7ff"/><circle cx="256" cy="256" fill="#eaf6ff" r="222.915"/><path d="m392.488 79.757c10.325 27.775 15.979 57.822 15.979 89.192 0 141.385-114.615 256-256 256-15.948 0-31.551-1.471-46.692-4.262 39.626 36.167 92.348 58.228 150.225 58.228 123.113 0 222.915-99.803 222.915-222.915 0-71.689-33.849-135.465-86.427-176.243z" fill="#d8ecfe"/><path d="m362.95 255.213c-.412-8.752-7.951-15.484-16.712-15.484h-161.361c-1.21 0-2.156-1.068-1.988-2.267 1.259-8.965 3.419-17.807 6.498-26.431 2.745-7.689 10.168-12.854 18.473-12.854h138.377c8.761 0 16.3-6.733 16.712-15.484.44-9.344-7.006-17.058-16.253-17.058h-138.835c-22.023 0-41.764 13.846-49.121 34.456-12.923 35.957-12.926 75.748-.031 111.725 7.362 20.665 27.118 34.551 49.158 34.551h138.371c8.761 0 16.3-6.733 16.712-15.484.44-9.344-7.006-17.058-16.253-17.058h-138.83c-8.312 0-15.748-5.196-18.503-12.93-3.067-8.608-5.233-17.421-6.491-26.355-.169-1.199.777-2.267 1.988-2.267h161.837c9.247-.002 16.692-7.716 16.252-17.06z" fill="#60b7ff"/></g></svg>