<svg id="Capa_1" enable-background="new 0 0 512 512" height="512" viewBox="0 0 512 512" width="512" xmlns="http://www.w3.org/2000/svg"><g><circle cx="256" cy="256" fill="#5de1c4" r="256"/><path d="m373.254 28.381c28.688 41.361 45.515 91.571 45.515 145.72 0 141.385-114.615 256-256 256-42.26 0-82.123-10.247-117.254-28.381 46.218 66.634 123.249 110.28 210.485 110.28 141.385 0 256-114.615 256-256 0-99.125-56.343-185.085-138.746-227.619z" fill="#0ed2b3"/><circle cx="256" cy="256" fill="#d8f6ef" r="222.915"/><path d="m338.915 131.712c1.081-8.921-5.274-17.03-14.195-18.111-8.926-1.084-17.03 5.274-18.111 14.195l-13.223 109.089c-.122 1.004-.974 1.759-1.985 1.759h-66.109c-1.2 0-2.13-1.049-1.985-2.241l7.262-59.916c1.081-8.921-5.274-17.03-14.195-18.111-8.924-1.082-17.03 5.273-18.111 14.195l-25.177 207.716c-1.081 8.921 5.274 17.03 14.195 18.111.665.081 1.325.12 1.979.12 8.112 0 15.131-6.059 16.132-14.315l13.486-111.259c.122-1.004.974-1.759 1.985-1.759h66.109c1.2 0 2.13 1.049 1.985 2.241l-7.525 62.085c-1.081 8.921 5.274 17.03 14.195 18.111.665.081 1.325.12 1.979.12 8.112 0 15.131-6.059 16.132-14.315z" fill="#5de1c4"/><path d="m404.549 89.81c9.202 26.398 14.22 54.756 14.22 84.291 0 141.385-114.615 256-256 256-17.985 0-35.533-1.864-52.471-5.392 39.073 33.775 90.001 54.207 145.702 54.207 123.113 0 222.915-99.803 222.915-222.915 0-66.046-28.731-125.372-74.366-166.191z" fill="#c6f2e7"/></g></svg>