<svg id="Capa_1" enable-background="new 0 0 512 512" height="512" viewBox="0 0 512 512" width="512" xmlns="http://www.w3.org/2000/svg"><g><circle cx="256" cy="256" fill="#fd9468" r="256"/><path d="m368.516 26.004c29.699 41.805 47.162 92.911 47.162 148.096 0 141.385-114.615 256-256 256-40.372 0-78.554-9.359-112.516-26.004 46.39 65.3 122.638 107.904 208.838 107.904 141.385 0 256-114.615 256-256 0-101.012-58.512-188.347-143.484-229.996z" fill="#fe7d43"/><circle cx="256" cy="256" fill="#ffdcce" r="222.915"/><path d="m400.085 85.924c10.086 27.49 15.593 57.19 15.593 88.176 0 141.385-114.615 256-256 256-16.563 0-32.753-1.592-48.44-4.597 38.95 33.296 89.504 53.411 144.762 53.411 123.113 0 222.915-99.803 222.915-222.915 0-68.172-30.613-129.185-78.83-170.075z" fill="#ffd1be"/><g><path d="m167.361 297.475v-98.542c0-2.673 3.231-4.011 5.121-2.121l81.087 81.087c1.172 1.172 3.071 1.172 4.243 0l81.087-81.087c1.89-1.89 5.121-.551 5.121 2.121v98.542c0 1.657 1.343 3 3 3h44.049c1.312 0 2.484-.848 2.869-2.103 4.374-14.25 6.608-29.436 6.307-45.189-1.493-77.979-65.563-141.089-143.556-141.453-79.995-.373-144.96 64.361-144.96 144.27 0 14.746 2.221 28.972 6.333 42.37.385 1.255 1.558 2.104 2.871 2.104h43.428c1.657.001 3-1.343 3-2.999z" fill="#fd9468"/><path d="m306.828 334.666v-46.482c0-2.626-3.136-3.985-5.052-2.189l-42.554 39.895c-1.125 1.055-2.866 1.085-4.027.07l-46.309-40.503c-1.911-1.671-4.904-.362-4.974 2.176l-1.295 47.116c-.045 1.624-1.374 2.918-2.999 2.918h-56.705c-2.484 0-3.877 2.835-2.386 4.822 26.317 35.082 68.241 57.784 115.472 57.784s89.155-22.702 115.472-57.784c1.491-1.987.098-4.822-2.386-4.822h-59.258c-1.656-.001-2.999-1.344-2.999-3.001z" fill="#7a8c98"/></g></g></svg>