<svg id="Capa_1" enable-background="new 0 0 512 512" height="512" viewBox="0 0 512 512" width="512" xmlns="http://www.w3.org/2000/svg"><g><g><path d="m462.551 403.316c-4.267 0-7.726-3.459-7.726-7.726v-279.18c0-4.267 3.459-7.726 7.726-7.726s7.726 3.459 7.726 7.726v279.18c.001 4.267-3.459 7.726-7.726 7.726z" fill="#d9e7ec"/></g><g><path d="m395.59 470.278h-279.18c-4.267 0-7.726-3.459-7.726-7.726s3.459-7.726 7.726-7.726h279.18c4.267 0 7.726 3.459 7.726 7.726s-3.459 7.726-7.726 7.726z" fill="#d9e7ec"/></g><g><path d="m49.449 403.316c-4.267 0-7.726-3.459-7.726-7.726v-279.18c0-4.267 3.459-7.726 7.726-7.726s7.726 3.459 7.726 7.726v279.18c0 4.267-3.459 7.726-7.726 7.726z" fill="#d9e7ec"/></g><g><path d="m395.59 57.175h-279.18c-4.267 0-7.726-3.459-7.726-7.726s3.459-7.726 7.726-7.726h279.18c4.267 0 7.726 3.459 7.726 7.726s-3.459 7.726-7.726 7.726z" fill="#d9e7ec"/></g><path d="m372.861 387.348h-233.722c-8.001 0-14.488-6.486-14.488-14.488v-233.721c0-8.001 6.486-14.488 14.488-14.488h233.721c8.001 0 14.488 6.486 14.488 14.488v233.721c0 8.002-6.486 14.488-14.487 14.488z" fill="#fd9468"/><path d="m372.861 124.652h-56.595v178.156c0 8.001-6.486 14.488-14.488 14.488h-177.126v55.565c0 8.001 6.486 14.488 14.488 14.488h233.721c8.001 0 14.488-6.486 14.488-14.488v-233.722c-.001-8.001-6.487-14.487-14.488-14.487z" fill="#fe7d43"/><path d="m155.557 344.536v-177.072c0-6.576 5.331-11.906 11.906-11.906h177.073c6.576 0 11.906 5.331 11.906 11.906v177.073c0 6.576-5.331 11.906-11.906 11.906h-177.072c-6.576 0-11.907-5.331-11.907-11.907z" fill="#fee45a"/><path d="m344.536 155.557h-28.271v1.03c0 88.757-71.951 160.708-160.708 160.708v27.24c0 6.576 5.331 11.906 11.906 11.906h177.073c6.576 0 11.906-5.331 11.906-11.906v-177.071c.001-6.576-5.33-11.907-11.906-11.907z" fill="#fed230"/><path d="m413.103 91.131v-83.365c0-4.289 3.477-7.766 7.766-7.766h83.365c4.289 0 7.766 3.477 7.766 7.766v83.365c0 4.289-3.477 7.766-7.766 7.766h-83.365c-4.289 0-7.766-3.477-7.766-7.766z" fill="#8ac9fe"/><path d="m504.234 0h-17.473v1.03c0 40.68-32.978 73.658-73.658 73.658v16.443c0 4.289 3.477 7.766 7.766 7.766h83.365c4.289 0 7.766-3.477 7.766-7.766v-83.365c0-4.289-3.477-7.766-7.766-7.766z" fill="#60b7ff"/><path d="m445.038 98.897c0-9.672 7.841-17.513 17.513-17.513 9.672 0 17.513 7.841 17.513 17.513 0 9.672-7.841 17.513-17.513 17.513-9.672 0-17.513-7.84-17.513-17.513z" fill="#fee45a"/><path d="m395.59 49.449c0-9.672 7.841-17.513 17.513-17.513 9.672 0 17.513 7.841 17.513 17.513 0 9.672-7.841 17.513-17.513 17.513-9.673 0-17.513-7.841-17.513-17.513z" fill="#fee45a"/><path d="m413.103 420.869v83.365c0 4.289 3.477 7.766 7.766 7.766h83.365c4.289 0 7.766-3.477 7.766-7.766v-83.365c0-4.289-3.477-7.766-7.766-7.766h-83.365c-4.289 0-7.766 3.477-7.766 7.766z" fill="#8ac9fe"/><path d="m504.234 413.103h-19.018v2.06c0 39.827-32.286 72.113-72.113 72.113v16.958c0 4.289 3.477 7.766 7.766 7.766h83.365c4.289 0 7.766-3.477 7.766-7.766v-83.365c0-4.289-3.477-7.766-7.766-7.766z" fill="#60b7ff"/><path d="m445.038 413.103c0 9.672 7.841 17.513 17.513 17.513 9.672 0 17.513-7.841 17.513-17.513 0-9.672-7.841-17.513-17.513-17.513-9.672 0-17.513 7.84-17.513 17.513z" fill="#fee45a"/><path d="m395.59 462.551c0 9.672 7.841 17.513 17.513 17.513 9.672 0 17.513-7.841 17.513-17.513 0-9.672-7.841-17.513-17.513-17.513-9.673 0-17.513 7.841-17.513 17.513z" fill="#fee45a"/><path d="m98.897 420.869v83.365c0 4.289-3.477 7.766-7.766 7.766h-83.365c-4.289 0-7.766-3.477-7.766-7.766v-83.365c0-4.289 3.477-7.766 7.766-7.766h83.365c4.289 0 7.766 3.477 7.766 7.766z" fill="#8ac9fe"/><path d="m91.131 413.103h-17.988v3.091c0 40.396-32.747 73.143-73.143 73.143v14.898c0 4.288 3.477 7.765 7.766 7.765h83.365c4.289 0 7.766-3.477 7.766-7.766v-83.365c0-4.289-3.477-7.766-7.766-7.766z" fill="#60b7ff"/><path d="m66.962 413.103c0 9.672-7.841 17.513-17.513 17.513-9.672 0-17.513-7.841-17.513-17.513 0-9.672 7.841-17.513 17.513-17.513 9.672 0 17.513 7.84 17.513 17.513z" fill="#fee45a"/><path d="m116.41 462.551c0 9.672-7.841 17.513-17.513 17.513-9.672 0-17.513-7.841-17.513-17.513 0-9.672 7.841-17.513 17.513-17.513 9.673 0 17.513 7.841 17.513 17.513z" fill="#fee45a"/><path d="m98.897 91.131v-83.365c0-4.289-3.477-7.766-7.766-7.766h-83.365c-4.289 0-7.766 3.477-7.766 7.766v83.365c0 4.289 3.477 7.766 7.766 7.766h83.365c4.289 0 7.766-3.477 7.766-7.766z" fill="#8ac9fe"/><path d="m91.131 0h-15.413v5.031c0 38.471-31.187 69.657-69.657 69.657h-6.061v16.443c0 4.289 3.477 7.766 7.766 7.766h83.365c4.289 0 7.766-3.477 7.766-7.766v-83.365c0-4.289-3.477-7.766-7.766-7.766z" fill="#60b7ff"/><path d="m66.962 98.897c0-9.672-7.841-17.513-17.513-17.513-9.672 0-17.513 7.841-17.513 17.513 0 9.672 7.841 17.513 17.513 17.513 9.672 0 17.513-7.84 17.513-17.513z" fill="#fee45a"/><path d="m116.41 49.449c0-9.672-7.841-17.513-17.513-17.513-9.672 0-17.513 7.841-17.513 17.513 0 9.672 7.841 17.513 17.513 17.513 9.673 0 17.513-7.841 17.513-17.513z" fill="#fee45a"/><path d="m290.684 252.234c4.487-5.444 7.185-12.415 7.185-20.006 0-14.661-10.07-27.013-23.656-30.506v-7.906c0-4.267-3.459-7.726-7.726-7.726s-7.726 3.459-7.726 7.726v6.919h-11.092v-6.919c0-4.267-3.459-7.726-7.726-7.726s-7.726 3.459-7.726 7.726v6.919h-4.2-1.162-14.041c-4.267 0-7.726 3.459-7.726 7.726s3.459 7.726 7.726 7.726h6.314v39.813 39.814h-6.314c-4.267 0-7.726 3.459-7.726 7.726s3.459 7.726 7.726 7.726h14.041 1.162 4.2v6.918c0 4.268 3.459 7.726 7.726 7.726s7.726-3.459 7.726-7.726v-6.918h11.092v6.918c0 4.268 3.459 7.726 7.726 7.726s7.726-3.459 7.726-7.726v-6.918h1.205c17.366 0 31.494-14.128 31.494-31.499 0-11.829-6.559-22.151-16.228-27.533zm-8.267-20.002c0 8.845-7.196 16.041-16.041 16.041h-31.795v-32.087h31.795c8.845.001 16.041 7.197 16.041 16.046zm-6.998 63.582h-40.838v-32.088h31.795 9.043c8.845 0 16.041 7.196 16.041 16.046 0 8.846-7.196 16.042-16.041 16.042z" fill="#fd9468"/></g></svg>