<svg id="Capa_1" enable-background="new 0 0 512 512" height="512" viewBox="0 0 512 512" width="512" xmlns="http://www.w3.org/2000/svg"><g><g><path d="m356.222 59.014h-200.444c-4.202 0-7.608-3.408-7.608-7.611s3.406-7.611 7.608-7.611h200.445c4.202 0 7.608 3.408 7.608 7.611s-3.407 7.611-7.609 7.611z" fill="#d9e7ec"/></g><g><path d="m428.039 366.359c-4.202 0-7.608-3.407-7.608-7.611v-213.107c0-4.204 3.406-7.611 7.608-7.611s7.608 3.408 7.608 7.611v213.107c0 4.203-3.406 7.611-7.608 7.611z" fill="#d9e7ec"/></g><g><path d="m356.222 417.762h-200.444c-4.202 0-7.608-3.407-7.608-7.612s3.406-7.611 7.608-7.611h200.445c4.202 0 7.608 3.407 7.608 7.611s-3.407 7.612-7.609 7.612z" fill="#d9e7ec"/></g><g><path d="m81.817 366.359c-4.202 0-7.608-3.407-7.608-7.611v-213.107c0-4.204 3.406-7.611 7.608-7.611s7.608 3.408 7.608 7.611v213.107c0 4.203-3.406 7.611-7.608 7.611z" fill="#d9e7ec"/></g><path d="m10 93.192v-83.579c0-5.309 4.304-9.613 9.613-9.613h126.551c5.309 0 9.613 4.304 9.613 9.613v83.578c0 5.309-4.304 9.613-9.613 9.613h-126.551c-5.309.001-9.613-4.303-9.613-9.612z" fill="#8ac9fe"/><path d="m146.166 0h-14.735c0 44.447-36.016 80.478-80.444 80.478h-40.987v12.712c0 5.31 4.303 9.615 9.611 9.615h126.555c5.308 0 9.611-4.305 9.611-9.616v-83.574c.001-5.31-4.302-9.615-9.611-9.615z" fill="#60b7ff"/><path d="m59.863 101.177h42.836v46.092h-42.836z" fill="#c5d3dd" transform="matrix(0 1 -1 0 205.504 42.942)"/><path d="m58.235 102.805v11.164h3.274c17.484 0 31.658 14.18 31.658 31.672h11.159v-42.835h-46.091z" fill="#b6c4cf"/><g><path d="m126.837 153.252h-90.04c-4.202 0-7.608-3.408-7.608-7.611 0-4.204 3.406-7.611 7.608-7.611h90.039c4.202 0 7.608 3.408 7.608 7.611.001 4.203-3.406 7.611-7.607 7.611z" fill="#9facba"/></g><path d="m356.222 93.192v-83.579c0-5.309 4.304-9.613 9.613-9.613h126.551c5.31 0 9.614 4.304 9.614 9.613v83.578c0 5.309-4.304 9.613-9.613 9.613h-126.551c-5.31.001-9.614-4.303-9.614-9.612z" fill="#8ac9fe"/><path d="m492.389 0h-12.706c0 44.447-36.016 80.478-80.444 80.478h-43.016v12.712c0 5.31 4.303 9.615 9.611 9.615h126.555c5.308 0 9.611-4.305 9.611-9.615v-83.575c0-5.31-4.303-9.615-9.611-9.615z" fill="#60b7ff"/><path d="m406.086 101.177h42.836v46.092h-42.836z" fill="#c5d3dd" transform="matrix(0 1 -1 0 551.726 -303.28)"/><path d="m404.458 102.805v11.164h3.274c17.484 0 31.658 14.18 31.658 31.672h11.159v-42.835h-46.091z" fill="#b6c4cf"/><g><path d="m473.059 153.252h-90.039c-4.202 0-7.608-3.408-7.608-7.611 0-4.204 3.406-7.611 7.608-7.611h90.039c4.202 0 7.608 3.408 7.608 7.611s-3.406 7.611-7.608 7.611z" fill="#9facba"/></g><path d="m10 451.939v-83.578c0-5.309 4.304-9.613 9.613-9.613h126.551c5.309 0 9.613 4.304 9.613 9.613v83.578c0 5.309-4.304 9.613-9.613 9.613h-126.551c-5.309.001-9.613-4.303-9.613-9.613z" fill="#8ac9fe"/><path d="m146.166 358.748h-12.706c0 44.447-36.016 80.478-80.444 80.478h-43.016v12.711c0 5.311 4.303 9.616 9.612 9.616h126.555c5.308 0 9.611-4.305 9.611-9.616v-83.574c0-5.31-4.303-9.615-9.612-9.615z" fill="#60b7ff"/><path d="m59.863 459.925h42.836v46.092h-42.836z" fill="#c5d3dd" transform="matrix(0 1 -1 0 564.252 401.69)"/><path d="m58.235 461.553v11.164h3.274c17.484 0 31.658 14.18 31.658 31.672h11.159v-42.835h-46.091z" fill="#b6c4cf"/><g><path d="m126.837 512h-90.04c-4.202 0-7.608-3.407-7.608-7.612s3.406-7.611 7.608-7.611h90.039c4.202 0 7.608 3.407 7.608 7.611s-3.406 7.612-7.607 7.612z" fill="#9facba"/></g><path d="m356.222 451.939v-83.578c0-5.309 4.304-9.613 9.613-9.613h126.551c5.309 0 9.613 4.304 9.613 9.613v83.578c0 5.309-4.304 9.613-9.613 9.613h-126.55c-5.31.001-9.614-4.303-9.614-9.613z" fill="#8ac9fe"/><path d="m492.389 358.748h-12.706c0 44.447-36.016 80.478-80.444 80.478h-43.016v12.711c0 5.311 4.303 9.616 9.612 9.616h126.555c5.308 0 9.611-4.305 9.611-9.615v-83.574c-.001-5.311-4.304-9.616-9.612-9.616z" fill="#60b7ff"/><path d="m406.086 459.925h42.836v46.092h-42.836z" fill="#c5d3dd" transform="matrix(0 1 -1 0 910.474 55.468)"/><path d="m404.458 461.553v11.164h3.274c17.484 0 31.658 14.18 31.658 31.672h11.159v-42.835h-46.091z" fill="#b6c4cf"/><g><path d="m473.059 512h-90.039c-4.202 0-7.608-3.407-7.608-7.612s3.406-7.611 7.608-7.611h90.039c4.202 0 7.608 3.407 7.608 7.611s-3.406 7.612-7.608 7.612z" fill="#9facba"/></g><ellipse cx="256" cy="232.912" fill="#fd9468" rx="112.057" ry="112.103"/><path d="m285.402 124.716c15.675 19.285 25.076 43.879 25.076 70.672 0 61.913-50.169 112.103-112.057 112.103-10.175 0-20.031-1.365-29.402-3.907 20.546 25.277 51.875 41.431 86.98 41.431 61.887 0 112.057-50.19 112.057-112.103.001-51.734-35.031-95.274-82.654-108.196z" fill="#fe7d43"/><ellipse cx="256" cy="232.912" fill="#fee45a" rx="80.62" ry="80.644" transform="matrix(1 -.002 .002 1 -.555 .612)"/><path d="m307.862 171.234c1.708 7.78 2.616 15.861 2.616 24.154 0 54.343-38.654 99.651-89.955 109.918 10.713 5.274 22.752 8.25 35.477 8.25 44.454 0 80.62-36.177 80.62-80.645 0-24.723-11.19-46.872-28.758-61.677z" fill="#fed230"/><path d="m298.762 250.636c0-9.038-4.656-17.005-11.692-21.639 2.991-4.226 4.756-9.382 4.756-14.95 0-11.582-7.641-21.411-18.145-24.71v-4.842c0-4.204-3.406-7.611-7.608-7.611s-7.608 3.408-7.608 7.611v3.66h-9.202v-3.66c0-4.204-3.406-7.611-7.608-7.611s-7.608 3.408-7.608 7.611v3.66h-9.143c-4.202 0-7.608 3.408-7.608 7.611 0 4.204 3.406 7.611 7.608 7.611h3.162v28.976 28.977h-3.162c-4.202 0-7.608 3.407-7.608 7.611s3.406 7.612 7.608 7.612h9.143v3.659c0 4.204 3.406 7.612 7.608 7.612s7.608-3.407 7.608-7.612v-3.659h9.202v3.659c0 4.204 3.406 7.612 7.608 7.612s7.608-3.407 7.608-7.612v-3.679c13.901-.425 25.081-11.864 25.081-25.897zm-32.817-25.893h-22.663v-21.365h22.663c5.881 0 10.665 4.786 10.665 10.695 0 5.883-4.785 10.67-10.665 10.67zm6.936 36.588h-29.599v-21.365h22.663 6.936c5.881 0 10.665 4.786 10.665 10.696 0 5.883-4.785 10.669-10.665 10.669z" fill="#fd9468"/></g></svg>