<svg id="Capa_1" enable-background="new 0 0 512 512" height="512" viewBox="0 0 512 512" width="512" xmlns="http://www.w3.org/2000/svg"><g><g><path d="m255.633 125.813c-4.267 0-7.726-3.459-7.726-7.726v-83.932c0-4.267 3.459-7.726 7.726-7.726s7.726 3.459 7.726 7.726v83.932c.001 4.267-3.459 7.726-7.726 7.726z" fill="#d9e7ec"/></g><g><path d="m218.622 125.813c-4.264 0-7.722-3.454-7.726-7.718l-.065-60.371c-.003-1.698-1.377-3.084-3.064-3.084h-20.998c-4.267 0-7.726-3.459-7.726-7.726s3.459-7.726 7.726-7.726h20.998c10.192 0 18.498 8.306 18.517 18.515l.065 60.375c.005 4.268-3.451 7.73-7.718 7.735-.003 0-.006 0-.009 0z" fill="#d9e7ec"/></g><g><path d="m292.299 125.813c-.004 0-.007 0-.01 0-4.267-.006-7.722-3.469-7.717-7.736l.075-60.37c0-10.207 8.307-18.519 18.517-18.519h20.987c4.267 0 7.732 3.459 7.732 7.726s-3.454 7.726-7.721 7.726h-20.998c-1.69 0-3.064 1.38-3.064 3.076l-.075 60.38c-.005 4.265-3.464 7.717-7.726 7.717z" fill="#d9e7ec"/></g><g><path d="m255.288 485.567c-4.267 0-7.726-3.459-7.726-7.726v-84.018c0-4.268 3.459-7.726 7.726-7.726s7.726 3.459 7.726 7.726v84.018c0 4.268-3.459 7.726-7.726 7.726z" fill="#d9e7ec"/></g><g><path d="m324.152 472.808h-20.998c-10.192 0-18.499-8.306-18.517-18.514l-.065-60.463c-.005-4.267 3.451-7.729 7.718-7.734h.008c4.264 0 7.722 3.454 7.726 7.718l.065 60.457c.003 1.698 1.377 3.083 3.064 3.083h20.998c4.267 0 7.726 3.459 7.726 7.726s-3.458 7.727-7.725 7.727z" fill="#d9e7ec"/></g><g><path d="m207.756 472.808h-20.987c-4.267 0-7.732-3.459-7.732-7.726s3.454-7.726 7.721-7.726h20.998c1.69 0 3.064-1.375 3.064-3.065l.075-60.477c.006-4.264 3.464-7.716 7.726-7.716h.01c4.267.005 7.722 3.469 7.717 7.736l-.075 60.467c0 10.2-8.307 18.507-18.517 18.507z" fill="#d9e7ec"/></g><g><path d="m477.915 263.854h-84.877c-4.267 0-7.726-3.459-7.726-7.726s3.459-7.726 7.726-7.726h84.877c4.267 0 7.726 3.459 7.726 7.726s-3.459 7.726-7.726 7.726z" fill="#d9e7ec"/></g><g><path d="m393.038 226.765c-4.264 0-7.722-3.454-7.726-7.718-.005-4.267 3.451-7.73 7.718-7.734l61.365-.065c1.685-.003 3.061-1.388 3.061-3.087v-21.042c0-4.267 3.459-7.726 7.726-7.726s7.726 3.459 7.726 7.726v21.042c0 10.204-8.295 18.521-18.491 18.54l-61.372.065c-.002-.001-.005-.001-.007-.001z" fill="#d9e7ec"/></g><g><path d="m465.183 332.523c-4.267 0-7.726-3.454-7.726-7.721v-21.042c0-1.702-1.37-3.087-3.053-3.087l-61.375-.075c-4.267-.005-7.722-3.469-7.717-7.735.005-4.265 3.464-7.717 7.726-7.717h.01l61.365.075c10.195 0 18.496 8.317 18.496 18.539v21.032c0 4.267-3.459 7.731-7.726 7.731z" fill="#d9e7ec"/></g><g><path d="m117.883 263.854h-83.798c-4.267 0-7.726-3.459-7.726-7.726s3.459-7.726 7.726-7.726h83.798c4.267 0 7.726 3.459 7.726 7.726.001 4.267-3.459 7.726-7.726 7.726z" fill="#d9e7ec"/></g><g><path d="m117.883 226.765c-.003 0-.006 0-.009 0l-60.285-.065c-10.202-.019-18.497-8.336-18.497-18.54v-21.042c0-4.267 3.459-7.726 7.726-7.726s7.726 3.459 7.726 7.726v21.042c0 1.699 1.376 3.084 3.068 3.087l60.28.065c4.267.005 7.722 3.467 7.718 7.735-.005 4.264-3.463 7.718-7.727 7.718z" fill="#d9e7ec"/></g><g><path d="m46.817 332.523c-4.267 0-7.726-3.454-7.726-7.721v-21.042c0-10.222 8.302-18.539 18.506-18.539l60.277-.075h.01c4.263 0 7.721 3.453 7.726 7.716.006 4.268-3.45 7.731-7.717 7.736l-60.286.075c-1.693 0-3.063 1.384-3.063 3.087v21.032c0 4.267-3.459 7.731-7.727 7.731z" fill="#d9e7ec"/></g><path d="m377.847 393.823h-244.773c-8.39 0-15.191-6.801-15.191-15.191v-245.355c0-8.39 6.801-15.191 15.191-15.191h244.774c8.39 0 15.191 6.801 15.191 15.191v245.355c-.001 8.39-6.802 15.191-15.192 15.191z" fill="#fd9468"/><path d="m377.847 118.087h-52.801v192.553c0 8.39-6.801 15.191-15.191 15.191h-191.972v52.801c0 8.39 6.801 15.191 15.191 15.191h244.774c8.389 0 15.191-6.801 15.191-15.191v-245.355c-.001-8.389-6.802-15.19-15.192-15.19z" fill="#fe7d43"/><path d="m150.254 348.899v-185.888c0-6.895 5.589-12.484 12.484-12.484h185.444c6.895 0 12.484 5.589 12.484 12.484v185.889c0 6.895-5.589 12.484-12.484 12.484h-185.444c-6.894-.001-12.484-5.59-12.484-12.485z" fill="#fee45a"/><path d="m348.183 150.526h-23.137v.513c0 96.535-78.257 174.792-174.792 174.792v23.068c0 6.895 5.589 12.484 12.484 12.484h185.444c6.895 0 12.484-5.589 12.484-12.484v-185.888c.001-6.895-5.589-12.485-12.483-12.485z" fill="#fed230"/><g fill="#0ed2b3"><ellipse cx="255.584" cy="17.077" rx="17.08" ry="17.077"/><ellipse cx="169.695" cy="47.328" rx="17.08" ry="17.077"/><ellipse cx="341.226" cy="47.328" rx="17.08" ry="17.077"/><ellipse cx="255.337" cy="494.923" rx="17.08" ry="17.077"/><ellipse cx="341.226" cy="464.672" rx="17.08" ry="17.077"/><ellipse cx="169.695" cy="464.672" rx="17.08" ry="17.077"/></g><ellipse cx="494.959" cy="256.079" fill="#fd8087" rx="17.041" ry="17.116"/><ellipse cx="464.772" cy="170.008" fill="#fd8087" rx="17.041" ry="17.116"/><ellipse cx="464.772" cy="341.901" fill="#fd8087" rx="17.041" ry="17.116"/><ellipse cx="17.041" cy="256.079" fill="#fd8087" rx="17.041" ry="17.116"/><ellipse cx="47.228" cy="170.008" fill="#fd8087" rx="17.041" ry="17.116"/><ellipse cx="47.228" cy="341.901" fill="#fd8087" rx="17.041" ry="17.116"/><path d="m291.197 252.11c4.83-5.701 7.752-13.075 7.752-21.134 0-15.289-10.566-28.152-24.778-31.683v-8.61c0-4.267-3.459-7.726-7.726-7.726s-7.726 3.459-7.726 7.726v7.645h-12.351v-7.645c0-4.267-3.459-7.726-7.726-7.726s-7.726 3.459-7.726 7.726v7.645h-4.765-1.217-14.707c-4.267 0-7.726 3.459-7.726 7.726s3.459 7.726 7.726 7.726h6.98v42.174 42.173h-6.98c-4.267 0-7.726 3.459-7.726 7.726s3.459 7.726 7.726 7.726h14.707 1.217 4.765v7.646c0 4.268 3.459 7.726 7.726 7.726s7.726-3.459 7.726-7.726v-7.646h12.351v7.646c0 4.268 3.459 7.726 7.726 7.726s7.726-3.459 7.726-7.726v-7.646h1.602c18.002 0 32.647-14.645 32.647-32.704.001-12.425-6.979-23.25-17.223-28.765zm-7.701-21.076c0 9.481-7.713 17.195-17.195 17.195h-33.642v-34.447h33.642c9.482-.001 17.195 7.713 17.195 17.252zm-7.722 67.094h-43.114v-34.447h33.642 9.472c9.481 0 17.195 7.713 17.195 17.253-.001 9.48-7.714 17.194-17.195 17.194z" fill="#fd9468"/></g></svg>