<svg id="Capa_1" enable-background="new 0 0 512 512" height="512" viewBox="0 0 512 512" width="512" xmlns="http://www.w3.org/2000/svg"><g><path d="m48.72 38.241v104.318c0 2.344 1.901 4.245 4.245 4.245h102.741c2.344 0 4.245-1.901 4.245-4.245v-104.318c0-2.345-1.901-4.245-4.245-4.245h-102.741c-2.345 0-4.245 1.901-4.245 4.245zm74.729 75.838h-37.115c-2.345 0-4.245-1.901-4.245-4.245v-38.867c0-2.345 1.901-4.245 4.245-4.245h37.115c2.344 0 4.245 1.901 4.245 4.245v38.867c0 2.344-1.9 4.245-4.245 4.245z" fill="#b6c4cf"/><path d="m199.995 38.241v104.318c0 2.344 1.901 4.245 4.245 4.245h102.742c2.345 0 4.245-1.901 4.245-4.245v-104.318c0-2.345-1.901-4.245-4.245-4.245h-102.742c-2.345 0-4.245 1.901-4.245 4.245zm74.729 75.838h-37.115c-2.345 0-4.245-1.901-4.245-4.245v-38.867c0-2.345 1.901-4.245 4.245-4.245h37.115c2.345 0 4.245 1.901 4.245 4.245v38.867c0 2.344-1.9 4.245-4.245 4.245z" fill="#b6c4cf"/><g fill="#8d9ca8"><path d="m127.694 75.88h105.67v31.274h-105.67z"/><path d="m82.089 107.154h-80.089c-1.105 0-2-.895-2-2v-27.274c0-1.105.895-2 2-2h80.089z"/><path d="m238.926 146.804h34.482v106.107h-34.482z"/></g><path d="m351.27 38.241v104.318c0 2.344 1.901 4.245 4.245 4.245h102.741c2.345 0 4.245-1.901 4.245-4.245v-104.318c0-2.345-1.901-4.245-4.245-4.245h-102.741c-2.344 0-4.245 1.901-4.245 4.245zm74.729 75.838h-37.115c-2.344 0-4.245-1.901-4.245-4.245v-38.867c0-2.345 1.901-4.245 4.245-4.245h37.115c2.345 0 4.245 1.901 4.245 4.245v38.867c0 2.344-1.9 4.245-4.245 4.245z" fill="#b6c4cf"/><path d="m278.969 75.88h105.67v31.274h-105.67z" fill="#8d9ca8"/><path d="m430.245 107.221h79.755c1.105 0 2-.895 2-2v-27.408c0-1.105-.895-2-2-2h-79.755z" fill="#8d9ca8"/><g><ellipse cx="253.942" cy="356.862" fill="#fd9468" rx="121.001" ry="121.142"/><path d="m297.544 243.831c10.919 18.2 17.202 39.506 17.202 62.282 0 66.905-54.174 121.142-121.001 121.142-15.373 0-30.073-2.877-43.602-8.111 21.154 35.262 59.722 58.86 103.799 58.86 66.827 0 121.001-54.237 121.001-121.142 0-51.514-32.119-95.512-77.399-113.031z" fill="#fe7d43"/><ellipse cx="253.942" cy="356.862" fill="#fee45a" rx="90.099" ry="90.193"/><path d="m313.583 289.321c.76 5.489 1.162 11.093 1.162 16.792 0 65.613-52.104 119.036-117.146 121.075 15.441 12.422 35.038 19.867 56.343 19.867 49.68 0 90.099-40.461 90.099-90.194 0-26.856-11.791-51.003-30.458-67.54z" fill="#fed230"/><path d="m286.682 352.553c3.947-5.04 6.309-11.39 6.309-18.303 0-13.581-9.205-25.046-21.702-28.503v-6.836c0-4.268-3.459-7.726-7.726-7.726s-7.726 3.459-7.726 7.726v5.764h-8.899v-5.764c0-4.268-3.459-7.726-7.726-7.726s-7.726 3.459-7.726 7.726v5.764h-3.215-1.066-12.881c-4.267 0-7.726 3.459-7.726 7.726s3.459 7.726 7.726 7.726h5.154v36.067 36.066h-5.154c-4.267 0-7.726 3.459-7.726 7.726 0 4.268 3.459 7.726 7.726 7.726h12.881 1.066 3.215v5.765c0 4.268 3.459 7.726 7.726 7.726s7.726-3.459 7.726-7.726v-5.765h8.899v5.765c0 4.268 3.459 7.726 7.726 7.726s7.726-3.459 7.726-7.726v-5.765h.422c16.308 0 29.575-13.268 29.575-29.67.001-10.845-5.873-20.342-14.604-25.489zm-9.143-18.208c0 7.788-6.336 14.124-14.123 14.124h-28.485v-28.341h28.485c7.787 0 14.123 6.335 14.123 14.217zm-5.827 57.917h-36.781v-28.34h28.485 8.296c7.787 0 14.123 6.335 14.123 14.217 0 7.788-6.336 14.123-14.123 14.123z" fill="#fd9468"/></g></g></svg>