<svg id="Capa_1" enable-background="new 0 0 512 512" height="512" viewBox="0 0 512 512" width="512" xmlns="http://www.w3.org/2000/svg"><g><path d="m411.694 438.253h-371.994c-7.566 0-13.7-6.118-13.7-13.665v-236.227c0-7.547 7.879-11.851 13.7-13.665l371.993-59.24c7.566 0 13.7 6.118 13.7 13.665v295.466c.001 7.548-6.133 13.666-13.699 13.666z" fill="#9facba"/><g><path d="m237.515 195.117c-4.263 0-7.718-3.459-7.718-7.726v-143.868c0-4.267 3.455-7.726 7.718-7.726s7.718 3.459 7.718 7.726v143.868c0 4.267-3.455 7.726-7.718 7.726z" fill="#d9e7ec"/></g><g><path d="m279.939 195.117c-4.263 0-7.718-3.459-7.718-7.726v-88.834c0-9.941 8.079-18.028 18.009-18.028h27.904c1.419 0 2.573-1.155 2.573-2.575v-34.43c0-4.267 3.455-7.726 7.718-7.726s7.718 3.459 7.718 7.726v34.43c0 9.941-8.079 18.028-18.009 18.028h-27.904c-1.419 0-2.573 1.155-2.573 2.575v88.834c0 4.267-3.455 7.726-7.718 7.726z" fill="#d9e7ec"/></g><g><path d="m192.666 195.117c-4.263 0-7.718-3.459-7.718-7.726v-88.834c0-1.42-1.154-2.575-2.573-2.575h-27.903c-9.93 0-18.009-8.088-18.009-18.028v-34.43c0-4.267 3.455-7.726 7.718-7.726s7.718 3.459 7.718 7.726v34.43c0 1.42 1.154 2.575 2.573 2.575h27.903c9.93 0 18.009 8.088 18.009 18.028v88.834c0 4.267-3.455 7.726-7.718 7.726z" fill="#d9e7ec"/></g><path d="m445.924 512h-401.666c-10.084 0-18.258-8.174-18.258-18.258v-286.28c0-10.084 8.174-18.258 18.258-18.258h401.666c10.084 0 18.258 8.174 18.258 18.258v286.28c0 10.084-8.175 18.258-18.258 18.258z" fill="#c5d3dd"/><path d="m445.933 189.204h-60.991v225.204c0 10.089-8.17 18.268-18.248 18.268h-340.694v61.056c0 10.089 8.17 18.268 18.248 18.268h401.685c10.079 0 18.248-8.179 18.248-18.268v-286.26c.001-10.089-8.169-18.268-18.248-18.268z" fill="#b6c4cf"/><path d="m62.364 464.032v-226.86c0-6.461 5.238-11.698 11.698-11.698h342.058c6.461 0 11.698 5.238 11.698 11.698v226.86c0 6.461-5.238 11.698-11.698 11.698h-342.058c-6.461.001-11.698-5.237-11.698-11.698z" fill="#ffdcce"/><path d="m416.126 225.473h-31.184c0 114.435-92.669 207.203-206.982 207.203h-115.596v31.35c0 6.464 5.235 11.705 11.692 11.705h342.07c6.457 0 11.692-5.24 11.692-11.705v-226.848c0-6.464-5.235-11.705-11.692-11.705z" fill="#ffd1be"/><path d="m482.431 388.08h-83.917c-21.021 0-38.062-17.041-38.062-38.062v-.041c0-21.021 17.041-38.062 38.062-38.062h83.917c1.971 0 3.569 1.598 3.569 3.569v69.028c0 1.971-1.598 3.568-3.569 3.568z" fill="#c5d3dd"/><path d="m288.738 345.848c6.489-6.847 10.484-16.096 10.484-26.283 0-18.339-13.005-33.691-30.267-37.308v-11.827c0-4.268-3.455-7.726-7.718-7.726s-7.718 3.459-7.718 7.726v11.018h-18.527v-11.018c0-4.268-3.455-7.726-7.718-7.726s-7.718 3.459-7.718 7.726v11.018h-7.542-1.485-17.966c-4.263 0-7.718 3.459-7.718 7.726s3.455 7.726 7.718 7.726h10.248v53.123 53.123h-10.248c-4.263 0-7.718 3.459-7.718 7.726s3.455 7.726 7.718 7.726h17.966 1.485 7.542v11.018c0 4.268 3.455 7.726 7.718 7.726s7.718-3.459 7.718-7.726v-11.018h18.527v11.018c0 4.268 3.455 7.726 7.718 7.726s7.718-3.459 7.718-7.726v-11.018h3.761c20.996 0 38.077-17.1 38.077-38.184 0-15.289-9.044-28.498-22.055-34.566zm-4.952-26.216c0 12.498-10.156 22.665-22.641 22.665h-42.9v-45.397h42.9c12.485 0 22.641 10.167 22.641 22.732zm-11.07 83.514h-54.47v-45.396h42.9 11.57c12.485 0 22.641 10.167 22.641 22.731-.001 12.498-10.157 22.665-22.641 22.665z" fill="#fe7d43"/><ellipse cx="408.424" cy="349.393" fill="#fff" rx="9.091" ry="9.067"/><ellipse cx="437.515" cy="349.393" fill="#fff" rx="9.091" ry="9.067"/><g fill="#0ed2b3"><ellipse cx="237.515" cy="21.762" rx="21.818" ry="21.762"/><ellipse cx="145.394" cy="21.762" rx="21.818" ry="21.762"/><ellipse cx="328.424" cy="21.762" rx="21.818" ry="21.762"/></g></g></svg>