<svg id="Capa_1" enable-background="new 0 0 512 512" height="512" viewBox="0 0 512 512" width="512" xmlns="http://www.w3.org/2000/svg"><g><path d="m353.245 471.046h-194.49l38.664-113.986h117.162z" fill="#c5d3dd"/><path d="m298.63 471.046h54.615l-38.664-113.986h-117.162l-20.619 60.788h47.616c33.579 0 63.427 21.395 74.214 53.198z" fill="#b6c4cf"/><path d="m492.603 398.189h-473.206c-10.713 0-19.397-8.684-19.397-19.397v-358.395c0-10.713 8.684-19.397 19.397-19.397h473.206c10.713 0 19.397 8.684 19.397 19.397v358.395c0 10.713-8.684 19.397-19.397 19.397z" fill="#9facba"/><path d="m492.604 1h-39.324c0 200.583-162.586 363.189-363.146 363.189h-90.134v14.602c0 10.713 8.684 19.398 19.396 19.398h473.208c10.712 0 19.396-8.685 19.396-19.398v-358.393c0-10.713-8.684-19.398-19.396-19.398z" fill="#8d9ca8"/><path d="m35.149 321.056v-277.002c0-4.308 3.493-7.801 7.801-7.801h426.1c4.308 0 7.801 3.493 7.801 7.801v277.002c0 4.308-3.493 7.801-7.801 7.801h-426.1c-4.309 0-7.801-3.492-7.801-7.801z" fill="#eaf6ff"/><path d="m469.051 36.253h-17.467c-12.464 129.407-92.825 238.962-205.029 292.604h222.495c4.308 0 7.8-3.493 7.8-7.801v-277.001c.001-4.309-3.491-7.802-7.799-7.802z" fill="#d8ecfe"/><path d="m471.346 511h-430.692c-2.376 0-3.809-2.63-2.521-4.626l16.706-25.895c3.793-5.88 10.312-9.432 17.31-9.432h367.692c7.003 0 13.528 3.555 17.324 9.44l16.701 25.887c1.289 1.996-.145 4.626-2.52 4.626z" fill="#9facba"/><ellipse cx="241.941" cy="361.76" fill="#fff" rx="8.787" ry="8.813"/><ellipse cx="270.06" cy="361.76" fill="#fff" rx="8.787" ry="8.813"/><g><g><g><path d="m410.898 190.157h-52.962c-4.268 0-7.726-3.46-7.726-7.727 0-4.268 3.459-7.727 7.726-7.727h52.962c4.268 0 7.726 3.46 7.726 7.727.001 4.267-3.458 7.727-7.726 7.727z" fill="#c4e2ff"/></g></g><g><g><path d="m350.117 151.252c-4.253 0-7.707-3.439-7.725-7.695-.017-4.268 3.428-7.742 7.694-7.759l37.056-.153c1.414-.006 2.565-1.155 2.565-2.562v-23.256c0-4.268 3.459-7.727 7.726-7.727s7.726 3.46 7.726 7.727v23.256c0 9.894-8.054 17.976-17.955 18.017l-37.055.153c-.01-.001-.021-.001-.032-.001z" fill="#c4e2ff"/></g></g><g><g><path d="m397.434 262.4c-4.268 0-7.726-3.459-7.726-7.727v-23.256c0-1.407-1.15-2.556-2.564-2.562l-36.563-.153c-4.268-.018-7.712-3.492-7.694-7.759.018-4.257 3.474-7.695 7.725-7.695h.033l36.563.153c9.899.041 17.953 8.124 17.953 18.017v23.256c-.001 4.267-3.46 7.726-7.727 7.726z" fill="#c4e2ff"/></g></g><g><g><path d="m154.063 190.157h-53.157c-4.268 0-7.726-3.46-7.726-7.727 0-4.268 3.459-7.727 7.726-7.727h53.157c4.268 0 7.726 3.46 7.726 7.727.001 4.267-3.458 7.727-7.726 7.727z" fill="#c4e2ff"/></g></g><g><g><path d="m161.883 151.252c-.011 0-.022 0-.033 0l-37.253-.153c-9.899-.04-17.954-8.123-17.954-18.017v-23.256c0-4.268 3.459-7.727 7.726-7.727 4.268 0 7.726 3.46 7.726 7.727v23.256c0 1.407 1.151 2.557 2.564 2.562l37.254.153c4.267.018 7.711 3.491 7.694 7.759-.015 4.258-3.472 7.696-7.724 7.696z" fill="#c4e2ff"/></g></g><g><g><path d="m114.37 262.4c-4.268 0-7.726-3.459-7.726-7.727v-23.256c0-9.893 8.054-17.975 17.954-18.017l36.759-.153h.033c4.251 0 7.707 3.439 7.725 7.695.018 4.268-3.428 7.742-7.694 7.759l-36.759.153c-1.414.006-2.565 1.155-2.565 2.562v23.256c0 4.269-3.459 7.728-7.727 7.728z" fill="#c4e2ff"/></g></g><ellipse cx="256" cy="182.851" fill="#fee45a" rx="101.931" ry="102.235"/><path d="m302.518 91.86c10.922 16.284 17.297 35.89 17.297 56.99 0 56.463-45.636 102.235-101.932 102.235-16.759 0-32.571-4.058-46.518-11.245 18.303 27.289 49.378 45.245 84.635 45.245 56.295 0 101.932-45.772 101.932-102.235 0-39.654-22.511-74.034-55.414-90.99z" fill="#fed230"/><path d="m292.187 178.577c4.299-5.306 6.882-12.066 6.882-19.433 0-14.241-9.715-26.252-22.864-29.763v-7.553c0-4.268-3.459-7.727-7.726-7.727s-7.726 3.46-7.726 7.727v6.511h-10.203v-6.511c0-4.268-3.459-7.727-7.726-7.727s-7.726 3.46-7.726 7.727v6.511h-3.801-1.123-13.57c-4.268 0-7.726 3.46-7.726 7.727s3.459 7.727 7.726 7.727h5.844v38.494 38.494h-5.844c-4.268 0-7.726 3.46-7.726 7.727s3.459 7.727 7.726 7.727h13.57 1.123 3.801v6.511c0 4.268 3.459 7.727 7.726 7.727s7.726-3.46 7.726-7.727v-6.511h10.202v6.511c0 4.268 3.459 7.727 7.726 7.727s7.726-3.46 7.726-7.727v-6.511h.803c16.984 0 30.801-13.819 30.801-30.871.001-11.467-6.302-21.484-15.621-26.787zm-8.57-19.367c0 8.464-6.885 15.35-15.349 15.35h-30.368v-30.767h30.367c8.464.001 15.35 6.887 15.35 15.417zm-6.609 61.572h-39.108v-30.767h30.367 8.74c8.463 0 15.348 6.886 15.348 15.416.001 8.464-6.884 15.351-15.347 15.351z" fill="#fe7d43"/><ellipse cx="428.93" cy="182.379" fill="#fee45a" rx="18.028" ry="18.007"/><ellipse cx="396.995" cy="91.83" fill="#fd8087" rx="18.028" ry="18.007"/><ellipse cx="396.995" cy="272.665" fill="#fd8087" rx="18.028" ry="18.007"/><ellipse cx="82.878" cy="182.379" fill="#fee45a" rx="18.028" ry="18.007"/><g fill="#fd8087"><ellipse cx="114.813" cy="91.83" rx="18.028" ry="18.007"/><ellipse cx="114.813" cy="272.665" rx="18.028" ry="18.007"/></g></g></g></svg>