<svg id="Capa_1" enable-background="new 0 0 512 512" height="512" viewBox="0 0 512 512" width="512" xmlns="http://www.w3.org/2000/svg"><g><path d="m34.154 169.363h443.702v306.625h-443.702z" fill="#9facba"/><path d="m69.65 169.363h372.71v306.625h-372.71z" fill="#d9e7ec"/><path d="m69.65 169.363v56.889h162.723c90.813 0 164.431 73.547 164.431 164.273v85.464h45.555v-306.626z" fill="#c5d3dd"/><path d="m502 512h-491.99c-1.657 0-3-1.343-3-3v-30.012c0-1.657 1.343-3 3-3h491.99c1.657 0 3 1.343 3 3v30.012c0 1.657-1.343 3-3 3z" fill="#c5d3dd"/><path d="m505 169.725v1.458l-55.329-.072-442.671-.568.01-.031.435-1.241 55.536-157.676c2.464-6.992 8.511-11.595 15.25-11.595h355.527c6.73 0 12.787 4.603 15.24 11.595l55.846 157.675z" fill="#d9e7ec"/><path d="m18.982 136.515-11.537 32.755-.435 1.241-.01.032 442.671.569 55.329.072v-1.458l-.155-.455-55.847-157.676c-2.453-6.992-8.51-11.595-15.24-11.595h-47.18c23.454 66.94-26.334 136.955-97.325 136.863z" fill="#c5d3dd"/><path d="m285.839 78.631c3.134-4.372 4.987-9.72 4.987-15.496v-.105c0-10.059-5.602-18.833-13.852-23.379v-7.238c0-4.284-3.476-7.758-7.765-7.758s-7.765 3.473-7.765 7.758v3.934h-10.398v-3.934c0-4.284-3.476-7.758-7.765-7.758s-7.765 3.473-7.765 7.758v3.934h-1.685-.92-11.126c-4.289 0-7.765 3.473-7.765 7.758s3.476 7.758 7.765 7.758h3.361v30.197 30.197h-3.361c-4.289 0-7.765 3.473-7.765 7.758 0 4.284 3.476 7.758 7.765 7.758h11.126.92 1.685v3.934c0 4.284 3.476 7.758 7.765 7.758s7.765-3.473 7.765-7.758v-3.934h10.398v3.934c0 4.284 3.476 7.758 7.765 7.758s7.765-3.473 7.765-7.758v-4.55c12.001-2.613 21.017-13.305 21.017-26.067v-.104c0-9.352-4.844-17.589-12.152-22.355zm-45.164-26.768h23.442c6.164 0 11.178 5.01 11.178 11.167v.105c0 6.158-5.015 11.168-11.178 11.168h-23.442zm41.786 49.226c0 6.158-5.015 11.168-11.178 11.168h-30.607v-22.44h23.442 7.166c6.164 0 11.178 5.01 11.178 11.168v.104z" fill="#fd9468"/><path d="m62.339 169.27v53.734c0 15.267-12.383 27.638-27.665 27.638s-27.664-12.371-27.664-27.638v-52.493l.435-1.241z" fill="#fe99a0"/><path d="m90.022 250.644h-.027c-15.272 0-27.653-12.381-27.653-27.653v-53.721h55.332v53.722c0 15.271-12.38 27.652-27.652 27.652z" fill="#fee45a"/><path d="m145.354 250.644h-.027c-15.272 0-27.653-12.381-27.653-27.653v-53.721h55.332v53.722c.001 15.271-12.38 27.652-27.652 27.652z" fill="#fe99a0"/><path d="m200.686 250.644h-.027c-15.272 0-27.653-12.381-27.653-27.653v-53.721h55.332v53.722c.001 15.271-12.38 27.652-27.652 27.652z" fill="#fee45a"/><path d="m256.018 250.644h-.027c-15.272 0-27.653-12.381-27.653-27.653v-53.721h55.332v53.722c.001 15.271-12.38 27.652-27.652 27.652z" fill="#fe99a0"/><path d="m311.351 250.644h-.027c-15.272 0-27.653-12.381-27.653-27.653v-53.721h55.332v53.722c0 15.271-12.38 27.652-27.652 27.652z" fill="#fee45a"/><path d="m366.683 250.644h-.027c-15.272 0-27.653-12.381-27.653-27.653v-53.721h55.332v53.722c.001 15.271-12.38 27.652-27.652 27.652z" fill="#fe99a0"/><path d="m422.015 250.644h-.027c-15.272 0-27.653-12.381-27.653-27.653v-53.721h55.332v53.722c.001 15.271-12.38 27.652-27.652 27.652z" fill="#fee45a"/><path d="m505 169.725v53.279c0 15.267-12.383 27.638-27.664 27.638-15.282 0-27.665-12.371-27.665-27.638v-53.734h55.173z" fill="#fe99a0"/><path d="m313.686 475.988h-115.362v-143.962c0-11.528 9.345-20.873 20.873-20.873h73.617c11.528 0 20.873 9.345 20.873 20.873v143.962z" fill="#fe99a0"/><path d="m292.803 311.153h-73.597c-11.533 0-20.883 9.341-20.883 20.863v1.893c48.846 0 88.443 39.559 88.443 88.358v53.721h26.919v-143.973c.001-11.522-9.348-20.862-20.882-20.862z" fill="#fd8087"/><g><path d="m377.485 87.307h-53.672c-4.289 0-7.765-3.473-7.765-7.758 0-4.284 3.476-7.758 7.765-7.758h53.672c4.289 0 7.765 3.473 7.765 7.758s-3.476 7.758-7.765 7.758z" fill="#fff"/></g><ellipse cx="377.786" cy="365.699" fill="#fd8087" rx="8.905" ry="8.936"/><g><path d="m191.657 87.307h-53.673c-4.289 0-7.765-3.473-7.765-7.758 0-4.284 3.476-7.758 7.765-7.758h53.673c4.289 0 7.765 3.473 7.765 7.758s-3.476 7.758-7.765 7.758z" fill="#fff"/></g><g fill="#fff"><path d="m362.925 316.302h6.941v6.938c0 4.285 3.476 7.758 7.765 7.758s7.765-3.473 7.765-7.758v-6.938h6.941c4.289 0 7.765-3.473 7.765-7.758s-3.476-7.758-7.765-7.758h-6.941v-6.937c0-4.285-3.476-7.758-7.765-7.758s-7.765 3.473-7.765 7.758v6.937h-6.941c-4.289 0-7.765 3.473-7.765 7.758s3.476 7.758 7.765 7.758z"/><path d="m392.338 414.502h-6.941v-6.937c0-4.285-3.476-7.758-7.765-7.758s-7.765 3.473-7.765 7.758v6.937h-6.941c-4.289 0-7.765 3.473-7.765 7.758s3.476 7.758 7.765 7.758h6.941v6.938c0 4.285 3.476 7.758 7.765 7.758s7.765-3.473 7.765-7.758v-6.938h6.941c4.289 0 7.765-3.473 7.765-7.758s-3.476-7.758-7.765-7.758z"/><path d="m149.085 300.787h-6.941v-6.937c0-4.285-3.476-7.758-7.765-7.758s-7.765 3.473-7.765 7.758v6.937h-6.941c-4.289 0-7.765 3.473-7.765 7.758s3.476 7.758 7.765 7.758h6.941v6.938c0 4.285 3.476 7.758 7.765 7.758s7.765-3.473 7.765-7.758v-6.938h6.941c4.289 0 7.765-3.473 7.765-7.758s-3.476-7.758-7.765-7.758z"/><path d="m149.085 414.502h-6.941v-6.937c0-4.285-3.476-7.758-7.765-7.758s-7.765 3.473-7.765 7.758v6.937h-6.941c-4.289 0-7.765 3.473-7.765 7.758s3.476 7.758 7.765 7.758h6.941v6.938c0 4.285 3.476 7.758 7.765 7.758s7.765-3.473 7.765-7.758v-6.938h6.941c4.289 0 7.765-3.473 7.765-7.758s-3.476-7.758-7.765-7.758z"/></g><ellipse cx="134.532" cy="365.699" fill="#fd8087" rx="8.905" ry="8.936"/><g fill="#fee45a"><ellipse cx="395.76" cy="79.498" rx="18.27" ry="18.257"/><ellipse cx="119.71" cy="79.498" rx="18.27" ry="18.257"/></g></g></svg>