<svg id="Capa_1" enable-background="new 0 0 512.002 512.002" height="512" viewBox="0 0 512.002 512.002" width="512" xmlns="http://www.w3.org/2000/svg"><g><ellipse cx="125.073" cy="386.08" fill="#fe7d43" rx="121.072" ry="120.971"/><path d="m147.382 267.166c15.638 20.38 24.938 45.869 24.938 73.533 0 66.811-54.206 120.972-121.072 120.972-7.622 0-15.077-.711-22.309-2.057 22.129 28.839 56.955 47.438 96.134 47.438 66.866 0 121.072-54.161 121.072-120.971 0-59.196-42.555-108.453-98.763-118.915z" fill="#fd6930"/><ellipse cx="125.073" cy="386.08" fill="#ffdcce" rx="90.152" ry="90.066"/><g><ellipse cx="386.929" cy="134.051" fill="#b6c4cf" rx="121.072" ry="120.971"/><path d="m419.194 17.43c14.513 19.95 23.08 44.497 23.08 71.047 0 66.811-54.206 120.972-121.072 120.972-11.174 0-21.992-1.52-32.265-4.351 22.008 30.252 57.698 49.925 97.992 49.925 66.866 0 121.072-54.161 121.072-120.971 0-55.647-37.606-102.51-88.807-116.622z" fill="#8d9ca8"/><ellipse cx="386.929" cy="134.051" fill="#f5f8f9" rx="90.151" ry="90.066"/><path d="m439.035 60.591c2.114 8.953 3.238 18.288 3.238 27.886 0 61.711-46.247 112.625-105.999 120.039 14.447 9.84 31.889 15.6 50.654 15.6 49.71 0 90.152-40.403 90.152-90.066.001-30.283-15.037-57.123-38.045-73.459z" fill="#e8edf2"/><path d="m409.479 171.964h-38.245l9.024-34.472 16.853-4.955c4.096-1.204 6.44-5.499 5.235-9.593-1.204-4.094-5.503-6.438-9.597-5.232l-7.923 2.329 11.45-43.74c1.08-4.128-1.392-8.35-5.522-9.431-4.129-1.075-8.355 1.391-9.435 5.519l-13.806 52.741-18.097 5.32c-4.096 1.204-6.44 5.499-5.235 9.593.99 3.366 4.072 5.548 7.413 5.548.722 0 1.457-.102 2.185-.316l9.167-2.695-9.202 35.153c-.606 2.316-.104 4.783 1.36 6.677 1.464 1.895 3.724 3.005 6.119 3.005h48.258c4.269 0 7.73-3.459 7.73-7.726s-3.463-7.725-7.732-7.725z" fill="#7a8c98"/></g><path d="m155.256 100.345c-71.117 10.876-126.111 66.361-137.087 135.852-.523 3.313-5.25 3.366-5.905.076-16.154-81.091 31.668-162.813 112.816-187.619 7.67-2.345 15.502-4.126 23.433-5.331 2.569-.387 4.362-2.738 4.044-5.304l-4.029-32.652c-.348-2.823 1.85-5.372 4.802-5.368 1.121.002 2.198.446 3.082 1.134l70.084 54.484c2.636 2.049 4.793 6.458 4.793 9.797l-57.861 73.69c-1.279 1.629-3.444 2.399-5.408 1.743-1.818-.608-3.043-2.171-3.264-3.962l-3.996-32.386c-.325-2.627-2.729-4.495-5.369-4.172-.045.005-.09.011-.135.018z" fill="#fd8087"/><path d="m354.168 411.658c71.117-10.877 126.111-66.362 137.087-135.852.523-3.313 5.25-3.366 5.905-.076 16.154 81.09-31.668 162.813-112.815 187.619-7.67 2.345-15.502 4.126-23.433 5.331-2.569.387-4.362 2.738-4.044 5.304l4.029 32.652c.348 2.823-1.85 5.372-4.802 5.368-1.121-.002-2.198-.446-3.082-1.134l-70.084-54.484c-2.636-2.049-4.793-6.458-4.793-9.797l57.861-73.69c1.279-1.629 3.444-2.399 5.408-1.743 1.818.608 3.043 2.171 3.264 3.962l3.996 32.386c.325 2.627 2.729 4.495 5.369 4.172.044-.005.089-.011.134-.018z" fill="#5de1c4"/><path d="m167.434 306.597c3.175 10.817 4.886 22.259 4.886 34.102 0 59.328-42.746 108.676-99.142 118.987 14.684 10.364 32.59 16.46 51.896 16.46 49.709 0 90.151-40.403 90.151-90.066 0-34.374-19.378-64.308-47.791-79.483z" fill="#ffd1be"/><path d="m160.621 381.776c3.945-5.03 6.307-11.36 6.307-18.239 0-13.583-9.21-25.05-21.715-28.508v-6.817c0-4.268-3.461-7.726-7.73-7.726s-7.73 3.459-7.73 7.726v5.744h-8.906v-5.744c0-4.268-3.461-7.726-7.73-7.726s-7.73 3.459-7.73 7.726v5.744h-3.217-1.066-12.89c-4.269 0-7.73 3.459-7.73 7.726s3.461 7.726 7.73 7.726h5.159v36.005 36.006h-5.159c-4.269 0-7.73 3.459-7.73 7.726s3.461 7.726 7.73 7.726h12.889 1.066 3.217v5.744c0 4.268 3.461 7.726 7.73 7.726s7.73-3.459 7.73-7.726v-5.744h8.906v5.744c0 4.268 3.461 7.726 7.73 7.726s7.73-3.459 7.73-7.726v-5.744h.421c16.319 0 29.595-13.27 29.595-29.605.001-10.845-5.874-20.341-14.607-25.49zm-9.153-18.217c0 7.79-6.341 14.128-14.135 14.128h-28.5v-28.279h28.5c7.794.001 14.135 6.339 14.135 14.151zm-5.834 57.861h-36.801v-28.28h28.5 8.301c7.794 0 14.135 6.338 14.135 14.152-.001 7.79-6.341 14.128-14.135 14.128z" fill="#fe7d43"/></g></svg>