<svg id="Capa_1" enable-background="new 0 0 512 512" height="512" viewBox="0 0 512 512" width="512" xmlns="http://www.w3.org/2000/svg"><g><g><path d="m256.165 134.72c-4.267 0-7.726-3.464-7.726-7.738v-82.408c0-4.274 3.459-7.738 7.726-7.738s7.726 3.464 7.726 7.738v82.409c0 4.273-3.459 7.737-7.726 7.737z" fill="#d9e7ec"/></g><g><path d="m220.829 134.72c-4.264 0-7.722-3.459-7.726-7.73l-.061-59.938c-.002-1.419-1.157-2.572-2.575-2.572h-20.048c-4.267 0-7.726-3.464-7.726-7.738s3.459-7.738 7.726-7.738h20.048c9.93 0 18.018 8.088 18.028 18.032l.061 59.938c.005 4.274-3.451 7.742-7.718 7.746-.003 0-.006 0-.009 0z" fill="#d9e7ec"/></g><g><path d="m291.171 134.72c-.003 0-.006 0-.009 0-4.267-.005-7.722-3.473-7.717-7.747l.07-59.939c.012-9.941 8.099-18.03 18.028-18.03h20.039c4.267 0 7.731 3.464 7.731 7.738s-3.454 7.738-7.721 7.738h-20.049c-1.419 0-2.574 1.154-2.575 2.572l-.07 59.939c-.006 4.271-3.464 7.729-7.727 7.729z" fill="#d9e7ec"/></g><path d="m18.98 450.919v-306.777c0-9.478 7.653-17.157 17.099-17.157h439.842c9.446 0 17.099 7.678 17.099 17.157v306.777z" fill="#b6c4cf"/><path d="m475.921 126.985h-48.832v291.951h-408.109v31.983h474.04v-306.777c0-9.478-7.653-17.157-17.099-17.157z" fill="#9facba"/><path d="m51.591 159.706h408.817v301.53h-408.817z" fill="#eaf6ff"/><path d="m51.591 460.919h408.817v-301.213h-33.32c0 143.169-115.889 259.23-258.845 259.23h-116.652z" fill="#d8ecfe"/><g><g><path d="m395.875 307.023h-47.795c-4.267 0-7.726-3.464-7.726-7.738s3.459-7.738 7.726-7.738h47.795c4.267 0 7.726 3.464 7.726 7.738s-3.459 7.738-7.726 7.738z" fill="#c4e2ff"/></g></g><g><g><path d="m341.023 271.755c-4.253 0-7.708-3.443-7.726-7.706-.018-4.274 3.427-7.752 7.694-7.77l32.442-.135c1.414-.006 2.565-1.161 2.565-2.574v-20.102c0-4.274 3.459-7.738 7.726-7.738s7.726 3.464 7.726 7.738v20.102c0 9.912-8.054 18.01-17.954 18.05l-32.441.135c-.01 0-.022 0-.032 0z" fill="#c4e2ff"/></g></g><g><g><path d="m164.094 307.023h-47.972c-4.267 0-7.726-3.464-7.726-7.738s3.459-7.738 7.726-7.738h47.972c4.267 0 7.726 3.464 7.726 7.738s-3.459 7.738-7.726 7.738z" fill="#c4e2ff"/></g></g><g><g><path d="m171.15 271.755c-.011 0-.022 0-.032 0l-32.618-.135c-9.899-.04-17.954-8.138-17.954-18.051v-20.101c0-4.274 3.459-7.738 7.726-7.738s7.726 3.464 7.726 7.738v20.101c0 1.415 1.15 2.569 2.565 2.575l32.618.135c4.268.018 7.712 3.496 7.695 7.77-.017 4.262-3.473 7.706-7.726 7.706z" fill="#c4e2ff"/></g></g><g><g><path d="m383.724 372.516c-4.267 0-7.726-3.464-7.726-7.738v-20.103c0-1.414-1.151-2.568-2.565-2.574l-31.995-.134c-4.267-.018-7.712-3.497-7.694-7.77.018-4.262 3.474-7.706 7.726-7.706h.033l31.996.134c9.899.042 17.953 8.14 17.953 18.05v20.103c-.002 4.274-3.461 7.738-7.728 7.738z" fill="#c4e2ff"/></g></g><g><g><path d="m128.273 372.516c-4.267 0-7.726-3.464-7.726-7.738v-20.102c0-9.911 8.053-18.009 17.953-18.051l32.173-.134h.033c4.253 0 7.708 3.443 7.726 7.706.018 4.274-3.427 7.752-7.694 7.77l-32.172.134c-1.414.006-2.565 1.162-2.565 2.575v20.102c-.002 4.274-3.461 7.738-7.728 7.738z" fill="#c4e2ff"/></g></g><ellipse cx="256.087" cy="299.667" fill="#fee45a" rx="91.988" ry="92.681"/><path d="m289.86 295.593c3.666-4.813 5.849-10.816 5.849-17.323v-.126c0-13.021-8.73-24.032-20.633-27.491v-6.305c0-4.274-3.459-7.738-7.726-7.738s-7.726 3.464-7.726 7.738v5.17h-7.7v-5.17c0-4.274-3.459-7.738-7.726-7.738s-7.726 3.464-7.726 7.738v5.17h-2.676-1.013-12.247c-4.267 0-7.726 3.464-7.726 7.738s3.459 7.738 7.726 7.738h4.521v34.163 34.164h-4.521c-4.267 0-7.726 3.464-7.726 7.738s3.459 7.738 7.726 7.738h12.247 1.013 2.676v5.17c0 4.274 3.459 7.738 7.726 7.738s7.726-3.464 7.726-7.738v-5.17h7.7v5.17c0 4.274 3.459 7.738 7.726 7.738s7.726-3.464 7.726-7.738v-5.171c15.732-.034 28.521-12.861 28.521-28.624v-.126c-.001-10.344-5.507-19.422-13.737-24.453zm-9.604-17.449v.126c0 7.25-5.89 13.149-13.131 13.149h-26.618v-26.426h26.618c7.24 0 13.131 5.899 13.131 13.151zm7.887 42.027c0 7.251-5.89 13.15-13.13 13.15h-34.506v-26.427h26.618 7.888c7.24 0 13.13 5.899 13.13 13.15z" fill="#fd9468"/><ellipse cx="412.148" cy="299.24" fill="#fee45a" rx="16.27" ry="16.324"/><ellipse cx="383.328" cy="217.153" fill="#fd8087" rx="16.27" ry="16.324"/><ellipse cx="383.328" cy="381.089" fill="#fd8087" rx="16.27" ry="16.324"/><ellipse cx="99.852" cy="299.24" fill="#fee45a" rx="16.27" ry="16.324"/><ellipse cx="128.672" cy="217.153" fill="#fd8087" rx="16.27" ry="16.324"/><ellipse cx="128.672" cy="381.089" fill="#fd8087" rx="16.27" ry="16.324"/><path d="m46.081 500h419.838c25.45 0 46.081-20.631 46.081-46.081 0-1.657-1.343-3-3-3h-201.083c-1.657 0-3 1.343-3 3v1.635c0 1.657-1.343 3-3 3h-91.834c-1.657 0-3-1.343-3-3v-1.635c0-1.657-1.343-3-3-3h-201.083c-1.657 0-3 1.343-3 3 0 25.45 20.631 46.081 46.081 46.081z" fill="#8d9ca8"/><g fill="#0ed2b3"><ellipse cx="256.118" cy="28.287" rx="16.307" ry="16.287"/><ellipse cx="174.118" cy="57.137" rx="16.307" ry="16.287"/><ellipse cx="337.882" cy="57.137" rx="16.307" ry="16.287"/></g></g></svg>