<svg id="Capa_1" enable-background="new 0 0 512 512" height="512" viewBox="0 0 512 512" width="512" xmlns="http://www.w3.org/2000/svg"><g><path d="m494.995 457h-477.99c-9.392 0-17.005-7.613-17.005-17.005v-269.982c0-9.391 7.613-17.005 17.005-17.005h477.991c9.391 0 17.005 7.613 17.005 17.005v269.982c-.001 9.392-7.614 17.005-17.006 17.005z" fill="#8ac9fe"/><path d="m494.978 153.009h-41.698v228.4c0 9.382-7.621 16.988-17.022 16.988h-436.258v41.616c0 9.381 7.621 16.987 17.022 16.987h477.957c9.401 0 17.022-7.606 17.022-16.988v-270.015c-.001-9.383-7.622-16.988-17.023-16.988z" fill="#60b7ff"/><path d="m30.659 423.432v-236.856c0-1.657 1.343-3 3-3h444.683c1.657 0 3 1.343 3 3v236.856c0 1.657-1.343 3-3 3h-444.683c-1.657 0-3-1.343-3-3z" fill="#eaf6ff"/><path d="m453.28 183.577c0 118.642-96.37 214.82-215.248 214.82h-207.373v25.036c0 1.657 1.343 3 3 3h444.683c1.657 0 3-1.343 3-3v-236.857c0-1.657-1.343-3-3-3z" fill="#d8ecfe"/><g><ellipse cx="256" cy="167.551" fill="#fd9468" rx="112.926" ry="112.551"/><path d="m284.578 58.639c14.772 19.026 23.568 42.895 23.568 68.814 0 62.16-50.559 112.551-112.926 112.551-9.874 0-19.45-1.267-28.578-3.639 20.654 26.603 52.997 43.737 89.358 43.737 62.367 0 112.926-50.391 112.926-112.551 0-52.32-35.819-96.297-84.348-108.912z" fill="#fe7d43"/><ellipse cx="256" cy="167.55" fill="#fee45a" rx="81.246" ry="80.966"/><path d="m305.566 103.463c1.684 7.731 2.58 15.756 2.58 23.99 0 55.032-39.63 100.831-91.996 110.613 11.784 6.64 25.376 10.45 39.851 10.45 44.799 0 81.245-36.321 81.245-80.966 0-26.059-12.431-49.267-31.68-64.087z" fill="#fed230"/><path d="m297.109 185.357c0-9.079-4.676-17.085-11.748-21.757 2.993-4.242 4.758-9.406 4.758-14.977 0-11.652-7.699-21.542-18.286-24.875v-4.808c0-4.259-3.459-7.711-7.726-7.711s-7.726 3.452-7.726 7.711v3.605h-5.066v-3.605c0-4.259-3.459-7.711-7.726-7.711s-7.726 3.452-7.726 7.711v3.605h-1.492-.898-10.854c-4.267 0-7.726 3.452-7.726 7.711s3.459 7.711 7.726 7.711h3.127v29.023 29.023h-3.127c-4.267 0-7.726 3.452-7.726 7.711s3.459 7.711 7.726 7.711h10.854.898 1.492v3.604c0 4.259 3.459 7.711 7.726 7.711s7.726-3.452 7.726-7.711v-3.604h5.066v3.604c0 4.259 3.459 7.711 7.726 7.711s7.726-3.452 7.726-7.711v-3.626c14.014-.451 25.276-11.962 25.276-26.056zm-33.12-26.077h-22.792v-21.312h22.792c5.887 0 10.677 4.78 10.677 10.656s-4.789 10.656-10.677 10.656zm6.99 36.734h-29.782v-21.312h22.792 6.99c5.887 0 10.677 4.78 10.677 10.657 0 5.875-4.789 10.655-10.677 10.655z" fill="#fd9468"/></g><path d="m416.404 353.822c-4.811 0-9.191 1.797-12.538 4.737-3.347-2.939-7.727-4.737-12.538-4.737-10.492 0-18.997 8.48-18.997 18.94s8.505 18.94 18.997 18.94c4.811 0 9.191-1.797 12.538-4.737 3.347 2.939 7.727 4.737 12.538 4.737 10.492 0 18.997-8.48 18.997-18.94s-8.506-18.94-18.997-18.94z" fill="#fd9468"/><g><g><path d="m143.364 325.452h-60.886c-4.267 0-7.726-3.452-7.726-7.711s3.459-7.711 7.726-7.711h60.886c4.267 0 7.726 3.452 7.726 7.711s-3.459 7.711-7.726 7.711z" fill="#c4e2ff"/></g></g><g><g><path d="m238.322 325.452h-60.885c-4.267 0-7.726-3.452-7.726-7.711s3.459-7.711 7.726-7.711h60.885c4.267 0 7.726 3.452 7.726 7.711.001 4.259-3.458 7.711-7.726 7.711z" fill="#c4e2ff"/></g></g><g><g><path d="m332.436 325.452h-60.885c-4.267 0-7.726-3.452-7.726-7.711s3.459-7.711 7.726-7.711h60.885c4.267 0 7.726 3.452 7.726 7.711s-3.459 7.711-7.726 7.711z" fill="#c4e2ff"/></g></g><g><g><path d="m427.478 325.452h-60.885c-4.267 0-7.726-3.452-7.726-7.711s3.459-7.711 7.726-7.711h60.885c4.267 0 7.726 3.452 7.726 7.711s-3.459 7.711-7.726 7.711z" fill="#c4e2ff"/></g></g><g><g><path d="m242.204 381.492h-162.491c-4.267 0-7.726-3.452-7.726-7.711s3.459-7.711 7.726-7.711h162.491c4.267 0 7.726 3.452 7.726 7.711s-3.459 7.711-7.726 7.711z" fill="#c4e2ff"/></g></g></g></svg>