<svg id="Capa_1" enable-background="new 0 0 512 512" height="512" viewBox="0 0 512 512" width="512" xmlns="http://www.w3.org/2000/svg"><g><g><path d="m255.82 484.333c-4.265 0-7.723-3.459-7.723-7.726v-99.009c0-4.268 3.458-7.726 7.723-7.726s7.723 3.459 7.723 7.726v99.009c.001 4.267-3.457 7.726-7.723 7.726z" fill="#d9e7ec"/></g><g><path d="m327.483 471.113h-22.78c-9.928 0-18.013-8.08-18.021-18.013l-.07-82.217c-.004-4.268 3.451-7.729 7.717-7.733h.007c4.263 0 7.72 3.455 7.723 7.719l.07 82.217c.001 1.42 1.156 2.574 2.574 2.574h22.78c4.265 0 7.723 3.459 7.723 7.726s-3.457 7.727-7.723 7.727z" fill="#d9e7ec"/></g><g><path d="m207.286 471.113h-22.769c-4.265 0-7.729-3.459-7.729-7.726s3.452-7.726 7.718-7.726h22.78c1.418 0 2.573-1.155 2.574-2.574l.07-82.217c.004-4.265 3.461-7.719 7.723-7.719h.007c4.265.004 7.72 3.466 7.717 7.733l-.07 82.217c-.009 9.931-8.093 18.012-18.021 18.012z" fill="#d9e7ec"/></g><g><path d="m413.291 400.527h-22.781c-4.265 0-7.723-3.459-7.723-7.726s3.458-7.726 7.723-7.726h22.781c1.418 0 2.573-1.154 2.574-2.573l.069-80.492c.004-4.265 3.461-7.719 7.723-7.719h.007c4.265.004 7.72 3.466 7.717 7.733l-.069 80.492c-.008 9.931-8.092 18.011-18.021 18.011z" fill="#d9e7ec"/></g><g><path d="m128.732 402.769h-22.78c-9.929 0-18.013-8.081-18.021-18.014l-.07-81.992c-.004-4.268 3.451-7.729 7.717-7.733h.007c4.263 0 7.72 3.455 7.723 7.719l.07 81.993c.001 1.42 1.156 2.574 2.574 2.574h22.78c4.265 0 7.723 3.459 7.723 7.726 0 4.268-3.458 7.727-7.723 7.727z" fill="#d9e7ec"/></g><path d="m410.982 129.287h-10.868c-5.063 0-9.032-4.229-8.858-9.291.024-.703.036-1.408.036-2.117 0-35.002-28.438-63.376-63.517-63.376-5.714 0-11.248.761-16.513 2.177-3.818 1.027-7.824-.602-9.895-3.972-19.432-31.615-54.382-52.708-94.275-52.708-61.038 0-110.52 49.371-110.52 110.274 0 3.457.161 6.876.474 10.25.439 4.732-2.972 8.932-7.68 9.561-42.547 5.682-75.366 42.019-75.366 86.027 0 47.952 38.959 86.825 87.018 86.825h309.963c48.059 0 87.018-38.873 87.018-86.825.001-47.952-38.958-86.825-87.017-86.825z" fill="#8ac9fe"/><path d="m410.981 129.287h-10.868c-5.062 0-9.032-4.228-8.858-9.289.024-.703.036-1.409.036-2.118 0-21.507-10.747-40.498-27.164-51.956 0 93.597-75.847 169.473-169.408 169.473h-178.538c8.793 38.666 43.424 67.54 84.837 67.54h309.963c48.059 0 87.019-38.873 87.019-86.825 0-47.953-38.959-86.825-87.019-86.825z" fill="#60b7ff"/><g><ellipse cx="256" cy="265.858" fill="#fd9468" rx="112.023" ry="111.735"/><path d="m293.074 160.396c12.832 18.175 20.371 40.336 20.371 64.255 0 61.71-50.154 111.735-112.023 111.735-12.995 0-25.469-2.214-37.074-6.273 20.273 28.716 53.764 47.48 91.652 47.48 61.869 0 112.023-50.025 112.023-111.735 0-48.748-31.302-90.198-74.949-105.462z" fill="#fe7d43"/><ellipse cx="256" cy="265.858" fill="#fee45a" rx="83.414" ry="83.189"/><path d="m311.492 203.818c1.276 6.75 1.952 13.712 1.952 20.832 0 58.431-44.969 106.378-102.27 111.309 12.958 8.27 28.333 13.088 44.825 13.088 45.994 0 83.414-37.318 83.414-83.19.001-24.635-10.802-46.793-27.921-62.039z" fill="#fed230"/><path d="m300.403 285.437c0-10.003-5.289-18.79-13.213-23.721 3.474-4.656 5.533-10.427 5.533-16.671 0-12.68-8.497-23.406-20.092-26.798v-5.839c0-4.268-3.458-7.726-7.723-7.726s-7.723 3.459-7.723 7.726v4.716h-11.218v-4.716c0-4.268-3.458-7.726-7.723-7.726s-7.723 3.459-7.723 7.726v4.716h-11.198c-4.265 0-7.723 3.459-7.723 7.726s3.458 7.726 7.723 7.726h4.202v32.666 32.666h-4.202c-4.265 0-7.723 3.459-7.723 7.726 0 4.268 3.458 7.726 7.723 7.726h11.198v4.717c0 4.268 3.458 7.726 7.723 7.726s7.723-3.459 7.723-7.726v-4.717h11.218v4.717c0 4.268 3.458 7.726 7.723 7.726s7.723-3.459 7.723-7.726v-4.721c15.326-.073 27.772-12.566 27.772-27.919zm-23.127-40.389c0 6.875-5.591 12.468-12.464 12.468h-25.843v-24.94h25.843c6.873 0 12.464 5.593 12.464 12.472zm-4.783 52.86h-33.523v-24.94h25.843 7.681c6.872 0 12.463 5.593 12.463 12.472-.001 6.876-5.592 12.468-12.464 12.468z" fill="#fd9468"/></g><g fill="#0ed2b3"><ellipse cx="255.871" cy="494.306" rx="17.774" ry="17.694"/><ellipse cx="345.251" cy="462.961" rx="17.774" ry="17.694"/><ellipse cx="166.749" cy="462.961" rx="17.774" ry="17.694"/></g><ellipse cx="372.746" cy="392.377" fill="#fd8087" rx="17.774" ry="17.694"/><ellipse cx="146.499" cy="394.617" fill="#fd8087" rx="17.774" ry="17.694"/></g></svg>