<svg id="Capa_1" enable-background="new 0 0 512 512" height="512" viewBox="0 0 512 512" width="512" xmlns="http://www.w3.org/2000/svg"><g><g><path d="m496.573 308.021h-229.842v-39.394c0-6.242 5.06-11.302 11.302-11.302h207.239c6.242 0 11.302 5.06 11.302 11.302v39.394z" fill="#fac600"/><path d="m266.731 308.021h229.843v50.696h-229.843z" fill="#fee45a"/><path d="m266.731 358.717h229.843v50.696h-229.843z" fill="#fac600"/><path d="m266.731 409.413h229.843v50.696h-229.843z" fill="#fee45a"/><path d="m485.271 510.806h-207.238c-6.242 0-11.302-5.06-11.302-11.302v-39.394h229.843v39.394c-.001 6.242-5.061 11.302-11.303 11.302z" fill="#fac600"/><g><ellipse cx="381.652" cy="133.478" fill="#fd9468" rx="123.34" ry="122.191"/><path d="m416.923 16.366c13.895 19.774 22.048 43.804 22.048 69.724 0 67.484-55.221 122.191-123.34 122.191-12.258 0-24.095-1.78-35.271-5.079 22.281 31.709 59.337 52.467 101.292 52.467 68.119 0 123.34-54.707 123.34-122.191 0-55.34-37.139-102.079-88.069-117.112z" fill="#fe7d43"/><ellipse cx="381.652" cy="133.478" fill="#fee45a" rx="91.841" ry="90.974"/><ellipse cx="381.652" cy="133.478" fill="#fee45a" rx="91.841" ry="90.974"/><path d="m436.221 60.351c1.796 8.299 2.75 16.908 2.75 25.739 0 63.182-48.406 115.161-110.481 121.532 15.014 10.593 33.366 16.83 53.163 16.83 50.641 0 91.841-40.811 91.841-90.974-.001-29.937-14.677-56.539-37.273-73.127z" fill="#fed230"/><path d="m414.918 129.131c4.002-5.074 6.4-11.466 6.4-18.412 0-13.769-9.397-25.382-22.122-28.793v-6.9c0-4.268-3.463-7.726-7.737-7.726-4.273 0-7.737 3.459-7.737 7.726v5.88h-9.349v-5.88c0-4.268-3.463-7.726-7.737-7.726-4.273 0-7.737 3.459-7.737 7.726v5.88h-3.416-1.086-13.13c-4.273 0-7.737 3.459-7.737 7.726s3.463 7.726 7.737 7.726h5.394v36.447 36.446h-5.394c-4.273 0-7.737 3.459-7.737 7.726 0 4.268 3.463 7.726 7.737 7.726h13.13 1.086 3.416v5.88c0 4.268 3.463 7.726 7.737 7.726 4.273 0 7.737-3.459 7.737-7.726v-5.88h9.349v5.88c0 4.268 3.463 7.726 7.737 7.726 4.273 0 7.737-3.459 7.737-7.726v-5.88h.724c16.461 0 29.853-13.374 29.853-29.813.001-10.98-5.98-20.586-14.855-25.759zm-9.074-18.412c0 7.919-6.45 14.36-14.38 14.36h-29.329v-28.72h29.329c7.929 0 14.38 6.442 14.38 14.36zm-5.924 58.533h-37.786v-28.719h29.329 8.456c7.929 0 14.38 6.442 14.38 14.359.001 7.918-6.45 14.36-14.379 14.36z" fill="#fd9468"/></g><path d="m166.493 51.536-53.718-47.526c-6.04-5.347-15.546-5.347-21.585 0l-53.72 47.526c-6.695 5.922-7.289 16.116-1.328 22.767 5.96 6.653 16.22 7.243 22.914 1.32l26.696-23.618v120.446c0 8.906 7.266 16.126 16.23 16.126s16.23-7.22 16.23-16.126v-120.446l26.696 23.618c3.093 2.737 6.947 4.083 10.787 4.083 4.47 0 8.921-1.824 12.126-5.402 5.962-6.652 5.367-16.846-1.328-22.768z" fill="#5de1c4"/><path d="m179.594 479.242h-157.087v-19.27c0-43.101 78.543-88.64 78.543-88.64s78.543 45.539 78.543 88.64v19.27z" fill="#eaf6ff"/><path d="m194.006 479.242c1.158 0 2.078.982 2.004 2.137-1.101 17.096-15.316 30.621-32.69 30.621h-123.569c-17.374 0-31.589-13.525-32.69-30.621-.074-1.155.846-2.137 2.004-2.137z" fill="#8ac9fe"/><path d="m179.594 263.421h-157.087v19.27c0 43.101 78.543 88.64 78.543 88.64s78.543-45.539 78.543-88.64v-19.27z" fill="#eaf6ff"/><path d="m194.006 263.421c1.158 0 2.078-.982 2.004-2.137-1.101-17.096-15.316-30.621-32.69-30.621h-123.569c-17.374 0-31.589 13.525-32.69 30.621-.074 1.155.846 2.137 2.004 2.137z" fill="#8ac9fe"/><path d="m101.05 371.331s-8.192 4.752-19.279 12.63c17.822 11.274 73.064 49.132 73.064 85.282v9.998h24.758v-19.27c.001-43.101-78.543-88.64-78.543-88.64z" fill="#d8ecfe"/><path d="m7.061 481.369c.16 2.466.597 4.856 1.272 7.144h148.791c12.047 0 18.289 14.603 9.777 23.127-.06.06-.12.119-.18.179 15.8-1.647 28.264-14.493 29.289-30.449.074-1.152-.849-2.128-2.003-2.128h-184.943c-1.154-.001-2.078.975-2.003 2.127z" fill="#60b7ff"/><path d="m151.741 263.421h-129.234v14.213h103.592c14.135 0 22.345 15.82 14.344 27.457-16.139 23.474-45.387 44.065-59.375 53.11 11.444 8.179 19.982 13.131 19.982 13.131s78.543-45.539 78.543-88.64v-5.057-14.213h-27.852z" fill="#d8ecfe"/><path d="m7.012 261.294c.16-2.466.597-4.856 1.272-7.144h148.791c12.047 0 18.289-14.603 9.777-23.127-.06-.06-.12-.119-.18-.179 15.8 1.647 28.264 14.493 29.289 30.449.074 1.152-.849 2.128-2.003 2.128h-184.943c-1.154 0-2.078-.976-2.003-2.127z" fill="#60b7ff"/></g></g></svg>