<svg id="Capa_1" enable-background="new 0 0 512 512" height="512" viewBox="0 0 512 512" width="512" xmlns="http://www.w3.org/2000/svg"><g><path d="m353.245 471.046h-194.49l38.664-113.986h117.162z" fill="#c5d3dd"/><path d="m298.63 471.046h54.615l-38.664-113.986h-117.162l-20.619 60.788h47.616c33.579 0 63.427 21.395 74.214 53.198z" fill="#b6c4cf"/><path d="m471.346 511h-430.692c-2.376 0-3.809-2.63-2.521-4.626l16.706-25.895c3.793-5.88 10.312-9.432 17.31-9.432h367.692c7.003 0 13.528 3.555 17.324 9.44l16.701 25.887c1.289 1.996-.145 4.626-2.52 4.626z" fill="#9facba"/><path d="m492.603 398.189h-473.206c-10.713 0-19.397-8.684-19.397-19.397v-358.395c0-10.713 8.684-19.397 19.397-19.397h473.206c10.713 0 19.397 8.684 19.397 19.397v358.395c0 10.713-8.684 19.397-19.397 19.397z" fill="#9facba"/><path d="m492.604 1h-41.385c0 201.722-163.508 365.249-365.206 365.249h-86.013v12.541c0 10.713 8.684 19.398 19.396 19.398h473.208c10.712 0 19.396-8.685 19.396-19.398v-358.392c0-10.713-8.684-19.398-19.396-19.398z" fill="#8d9ca8"/><path d="m35.149 320.431v-275.751c0-4.654 3.773-8.426 8.426-8.426h424.85c4.654 0 8.426 3.773 8.426 8.426v275.751c0 4.654-3.773 8.426-8.426 8.426h-424.85c-4.654 0-8.426-3.772-8.426-8.426z" fill="#eaf6ff"/><path d="m468.426 36.253h-18.893c-12.329 128.75-91.486 237.984-202.379 292.604h221.272c4.653 0 8.426-3.773 8.426-8.427v-275.75c-.001-4.654-3.773-8.427-8.426-8.427z" fill="#d8ecfe"/><ellipse cx="241.941" cy="361.76" fill="#fff" rx="8.787" ry="8.813"/><ellipse cx="270.06" cy="361.76" fill="#fff" rx="8.787" ry="8.813"/><g><g><path d="m128.127 298.692c-4.268 0-7.726-3.459-7.726-7.727v-215.528c0-4.268 3.459-7.727 7.726-7.727 4.268 0 7.726 3.459 7.726 7.727v215.528c0 4.268-3.459 7.727-7.726 7.727z" fill="#8d9ca8"/></g><path d="m140.759 206.613h-23.884c-1.971 0-3.57-1.598-3.57-3.57v-84.443c0-1.971 1.598-3.57 3.57-3.57h23.884c1.971 0 3.57 1.598 3.57 3.57v84.443c-.001 1.972-1.599 3.57-3.57 3.57z" fill="#5de1c4"/><g><path d="m190.174 298.692c-4.268 0-7.726-3.459-7.726-7.727v-215.528c0-4.268 3.459-7.727 7.726-7.727s7.726 3.459 7.726 7.727v215.528c0 4.268-3.458 7.727-7.726 7.727z" fill="#8d9ca8"/></g><path d="m202.805 236.911h-23.884c-1.971 0-3.57-1.598-3.57-3.57v-84.443c0-1.971 1.598-3.57 3.57-3.57h23.884c1.971 0 3.57 1.598 3.57 3.57v84.443c0 1.972-1.598 3.57-3.57 3.57z" fill="#fd8087"/><g><path d="m252.22 298.692c-4.268 0-7.726-3.459-7.726-7.727v-215.528c0-4.268 3.459-7.727 7.726-7.727 4.268 0 7.726 3.459 7.726 7.727v215.528c.001 4.268-3.458 7.727-7.726 7.727z" fill="#8d9ca8"/></g><path d="m264.852 221.762h-23.884c-1.971 0-3.57-1.598-3.57-3.57v-84.442c0-1.971 1.598-3.57 3.57-3.57h23.884c1.971 0 3.57 1.598 3.57 3.57v84.443c-.001 1.971-1.599 3.569-3.57 3.569z" fill="#5de1c4"/><g><path d="m314.267 298.692c-4.268 0-7.726-3.459-7.726-7.727v-215.528c0-4.268 3.459-7.727 7.726-7.727s7.726 3.459 7.726 7.727v215.528c0 4.268-3.459 7.727-7.726 7.727z" fill="#8d9ca8"/></g><path d="m326.898 199.039h-23.884c-1.971 0-3.57-1.598-3.57-3.57v-84.443c0-1.971 1.598-3.57 3.57-3.57h23.884c1.971 0 3.57 1.598 3.57 3.57v84.443c-.001 1.972-1.599 3.57-3.57 3.57z" fill="#5de1c4"/><g><path d="m376.313 298.692c-4.268 0-7.726-3.459-7.726-7.727v-215.528c0-4.268 3.459-7.727 7.726-7.727s7.726 3.459 7.726 7.727v215.528c0 4.268-3.459 7.727-7.726 7.727z" fill="#8d9ca8"/></g><path d="m388.944 259.634h-23.884c-1.971 0-3.57-1.598-3.57-3.57v-84.443c0-1.971 1.598-3.57 3.57-3.57h23.884c1.971 0 3.57 1.598 3.57 3.57v84.443c0 1.972-1.598 3.57-3.57 3.57z" fill="#fd8087"/></g></g></svg>