<svg id="Capa_1" enable-background="new 0 0 512 512" height="512" viewBox="0 0 512 512" width="512" xmlns="http://www.w3.org/2000/svg"><g><g><path d="m184.156 365.642c-3.506 0-6.681-2.401-7.518-5.961l-51.63-219.644c-.976-4.154 1.601-8.313 5.756-9.289 4.16-.978 8.316 1.601 9.293 5.754l51.63 219.644c.976 4.154-1.601 8.313-5.756 9.289-.595.139-1.19.207-1.775.207z" fill="#b6c4cf"/></g><g><path d="m19.003 365.642c-.627 0-1.264-.077-1.9-.237-4.139-1.046-6.645-5.248-5.599-9.385l51.481-203.521c1.046-4.137 5.249-6.639 9.388-5.597 4.139 1.046 6.645 5.248 5.599 9.385l-51.481 203.521c-.886 3.501-4.033 5.834-7.488 5.834z" fill="#b6c4cf"/></g><g><path d="m492.078 278.262c-3.506 0-6.681-2.401-7.518-5.961l-49.995-212.674c-.976-4.154 1.601-8.313 5.756-9.289 4.157-.975 8.316 1.601 9.293 5.754l49.995 212.674c.976 4.154-1.601 8.313-5.756 9.289-.595.139-1.19.207-1.775.207z" fill="#b6c4cf"/></g><g><path d="m326.924 278.262c-.627 0-1.265-.077-1.901-.237-4.138-1.046-6.645-5.248-5.598-9.385l49.482-195.603c1.047-4.136 5.25-6.636 9.388-5.597 4.138 1.046 6.645 5.248 5.598 9.385l-49.481 195.603c-.886 3.501-4.033 5.834-7.488 5.834z" fill="#b6c4cf"/></g><path d="m237.119 477.358v-458.177c0-10.593 8.616-19.181 19.245-19.181 10.629 0 19.245 8.588 19.245 19.181v458.177z" fill="#60b7ff"/><path d="m466.551 14.968c-.419-1.601-2.055-2.561-3.657-2.144l-29.583 7.686-46.177 11.999-98.192 25.5c-7.817-8.487-19.038-13.811-31.51-13.811-20.226 0-37.161 13.999-41.613 32.802l-92.076 23.92-42.532 11.05-42.146 10.945c-1.606.417-2.568 2.058-2.148 3.663l8.19 31.31c.419 1.601 2.055 2.561 3.657 2.144l21.714-5.641 62.055-16.123 92.231-23.954c7.845 9.25 19.566 15.13 32.67 15.13 20.838 0 38.186-14.856 41.985-34.519l76.981-19.995 65.69-17.071 30.503-7.919c1.606-.417 2.568-2.058 2.148-3.663z" fill="#8ac9fe"/><path d="m150.09 312.382c0-9.257-4.788-17.413-12.014-22.137 3.074-4.32 4.89-9.594 4.89-15.287 0-11.861-7.854-21.922-18.636-25.261v-4.98c0-4.268-3.46-7.726-7.729-7.726s-7.729 3.459-7.729 7.726v3.802h-9.576v-3.802c0-4.268-3.46-7.726-7.729-7.726s-7.729 3.459-7.729 7.726v3.802h-9.521c-4.269 0-7.729 3.459-7.729 7.726s3.46 7.726 7.729 7.726h3.332v29.698 29.698h-3.332c-4.269 0-7.729 3.459-7.729 7.726s3.46 7.726 7.729 7.726h9.521v3.803c0 4.268 3.46 7.726 7.729 7.726s7.729-3.459 7.729-7.726v-3.803h9.576v3.803c0 4.268 3.46 7.726 7.729 7.726s7.729-3.459 7.729-7.726v-3.82c14.265-.365 25.76-12.072 25.76-26.42zm-33.573-26.438h-23.41v-21.972h23.41c6.06 0 10.99 4.929 10.99 10.986s-4.93 10.986-10.99 10.986zm7.125 37.424h-30.535v-21.972h23.41 7.124c6.06 0 10.99 4.929 10.99 10.986s-4.929 10.986-10.989 10.986z" fill="#fd9468"/><path d="m424.451 202.386h-6.928v-24.821h6.928c3.601 0 6.532 2.91 6.532 6.487 0 4.27 3.462 7.731 7.733 7.731s7.733-3.461 7.733-7.731c0-12.102-9.869-21.949-21.998-21.949h-6.928v-7.873c0-4.27-3.462-7.731-7.733-7.731s-7.733 3.461-7.733 7.731v7.873h-6.928c-12.13 0-21.998 9.846-21.998 21.949v11.848c0 12.102 9.869 21.948 21.998 21.948h6.928v24.032h-6.928c-3.601 0-6.532-2.91-6.532-6.486v-2.37c0-4.27-3.462-7.731-7.733-7.731s-7.733 3.461-7.733 7.731v2.37c0 12.102 9.869 21.948 21.998 21.948h6.928v4.429c0 4.27 3.462 7.731 7.733 7.731s7.733-3.461 7.733-7.731v-4.429h6.928c12.13 0 21.998-9.845 21.998-21.948v-11.058c.001-12.104-9.868-21.95-21.998-21.95zm-29.322 0c-3.601 0-6.532-2.91-6.532-6.486v-11.848c0-3.577 2.93-6.487 6.532-6.487h6.928v24.821zm35.854 33.007c0 3.576-2.93 6.486-6.532 6.486h-6.928v-24.032h6.928c3.601 0 6.532 2.91 6.532 6.487z" fill="#fd9468"/><path d="m432.222 512h-352.785c-2.429 0-3.851-2.737-2.455-4.724l17.117-24.367c3.937-5.604 10.707-8.99 17.975-8.99h287.511c7.268 0 14.038 3.386 17.975 8.99l17.117 24.367c1.397 1.987-.025 4.724-2.455 4.724z" fill="#b6c4cf"/><g><path d="m506.896 269c1.213 0 2.177.959 2.099 2.088-1.154 16.7-16.049 29.912-34.254 29.912h-129.482c-18.205 0-33.101-13.212-34.254-29.912-.078-1.128.886-2.088 2.099-2.088z" fill="#8ac9fe"/><path d="m311.005 271.078c.168 2.409.625 4.744 1.333 6.979h155.911c12.623 0 19.164 14.265 10.245 22.592-.063.058-.125.117-.189.175 16.556-1.609 29.617-14.158 30.691-29.744.078-1.125-.89-2.079-2.099-2.079h-193.793c-1.209-.001-2.178.952-2.099 2.077z" fill="#60b7ff"/></g><g><path d="m198.896 350c1.213 0 2.177.959 2.099 2.088-1.154 16.7-16.049 29.912-34.254 29.912h-129.482c-18.205 0-33.101-13.212-34.254-29.912-.079-1.129.886-2.088 2.099-2.088z" fill="#8ac9fe"/><path d="m3.005 352.078c.168 2.409.625 4.744 1.333 6.979h155.911c12.623 0 19.164 14.265 10.245 22.592-.063.058-.125.117-.189.175 16.556-1.609 29.617-14.158 30.691-29.744.078-1.125-.89-2.079-2.099-2.079h-193.793c-1.209-.001-2.178.952-2.099 2.077z" fill="#60b7ff"/></g></g></svg>