<svg id="Capa_1" enable-background="new 0 0 512 512" height="512" viewBox="0 0 512 512" width="512" xmlns="http://www.w3.org/2000/svg"><g><g><g><path d="m256.165 147.091c-4.267 0-7.726-3.455-7.726-7.717v-81.888c0-4.263 3.459-7.717 7.726-7.717s7.726 3.455 7.726 7.717v81.887c0 4.263-3.459 7.718-7.726 7.718z" fill="#d9e7ec"/></g><g><path d="m220.829 147.091c-4.264 0-7.722-3.45-7.726-7.709l-.062-59.477c-.003-1.412-1.158-2.565-2.575-2.565h-20.047c-4.267 0-7.726-3.455-7.726-7.717s3.459-7.717 7.726-7.717h20.047c9.923 0 18.011 8.065 18.028 17.978l.062 59.483c.005 4.263-3.451 7.721-7.718 7.725-.003-.001-.006-.001-.009-.001z" fill="#d9e7ec"/></g><g><path d="m291.171 147.091c-.003 0-.006 0-.01 0-4.267-.005-7.722-3.465-7.717-7.726l.072-59.477c0-9.912 8.088-17.983 18.028-17.983h20.037c4.267 0 7.731 3.455 7.731 7.717s-3.454 7.717-7.721 7.717h-20.047c-1.42 0-2.575 1.148-2.575 2.557l-.072 59.486c-.005 4.259-3.464 7.709-7.726 7.709z" fill="#d9e7ec"/></g><g fill="#fd9468"><ellipse cx="256.118" cy="41.243" rx="16.307" ry="16.243"/><ellipse cx="174.118" cy="70.016" rx="16.307" ry="16.243"/><ellipse cx="337.882" cy="70.016" rx="16.307" ry="16.243"/></g></g><path d="m494.897 446.889h-477.794c-9.446 0-17.103-7.657-17.103-17.103v-273.31c0-9.446 7.657-17.103 17.103-17.103h477.794c9.446 0 17.103 7.657 17.103 17.103v273.31c0 9.446-7.657 17.103-17.103 17.103z" fill="#8ac9fe"/><path d="m494.887 139.374h-52.939v222.512c0 9.44-7.662 17.093-17.113 17.093h-424.835v50.818c0 9.44 7.662 17.093 17.113 17.093h477.774c9.451 0 17.113-7.653 17.113-17.093v-273.33c0-9.441-7.662-17.093-17.113-17.093z" fill="#60b7ff"/><path d="m30.905 413.035v-239.807c0-1.657 1.343-3 3-3h444.189c1.657 0 3 1.343 3 3v239.807c0 1.657-1.343 3-3 3h-444.189c-1.656 0-3-1.343-3-3z" fill="#eaf6ff"/><path d="m441.948 170.228c0 115.289-93.572 208.75-208.999 208.75h-202.044v34.057c0 1.657 1.343 3 3 3h444.189c1.657 0 3-1.343 3-3v-239.807c0-1.657-1.343-3-3-3z" fill="#d8ecfe"/><g><g><path d="m390.946 298.254h-46.111c-4.267 0-7.726-3.455-7.726-7.717s3.459-7.717 7.726-7.717h46.111c4.267 0 7.726 3.455 7.726 7.717s-3.459 7.717-7.726 7.717z" fill="#c4e2ff"/></g><g><path d="m338.026 264.397c-4.253 0-7.708-3.434-7.726-7.685-.018-4.263 3.427-7.731 7.694-7.749l32.264-.134c.683-.003 1.238-.558 1.238-1.237v-20.238c0-4.263 3.459-7.717 7.726-7.717s7.726 3.455 7.726 7.717v20.238c0 9.155-7.459 16.634-16.627 16.671l-32.263.134c-.01 0-.021 0-.032 0z" fill="#c4e2ff"/></g><g><path d="m379.223 361.123c-4.267 0-7.726-3.455-7.726-7.717v-20.238c0-.679-.555-1.234-1.237-1.237l-31.835-.134c-4.267-.018-7.712-3.488-7.694-7.749.018-4.251 3.474-7.685 7.726-7.685h.033l31.834.134c9.167.037 16.626 7.516 16.626 16.671v20.238c-.001 4.262-3.46 7.717-7.727 7.717z" fill="#c4e2ff"/></g><g><path d="m167.332 298.254h-46.281c-4.267 0-7.726-3.455-7.726-7.717s3.459-7.717 7.726-7.717h46.281c4.267 0 7.726 3.455 7.726 7.717s-3.458 7.717-7.726 7.717z" fill="#c4e2ff"/></g><g><path d="m174.141 264.397c-.011 0-.022 0-.032 0l-32.434-.134c-9.168-.037-16.627-7.516-16.627-16.671v-20.238c0-4.263 3.459-7.717 7.726-7.717s7.726 3.455 7.726 7.717v20.238c0 .679.555 1.234 1.237 1.237l32.434.134c4.267.018 7.712 3.487 7.695 7.749-.017 4.251-3.473 7.685-7.725 7.685z" fill="#c4e2ff"/></g><g><path d="m132.774 361.123c-4.267 0-7.726-3.455-7.726-7.717v-20.238c0-9.155 7.459-16.634 16.626-16.671l32.004-.134h.033c4.253 0 7.708 3.434 7.726 7.685.018 4.262-3.427 7.731-7.694 7.749l-32.004.134c-.683.003-1.237.558-1.237 1.237v20.238c-.001 4.262-3.461 7.717-7.728 7.717z" fill="#c4e2ff"/></g><ellipse cx="406.645" cy="290.492" fill="#fd9468" rx="15.696" ry="15.67"/><ellipse cx="256.083" cy="290.903" fill="#fee45a" rx="88.747" ry="88.97"/><path d="m283.738 206.362c15.487 16.016 25.035 37.836 25.035 61.904 0 49.137-39.733 88.97-88.746 88.97-9.66 0-18.949-1.568-27.655-4.429 16.131 16.682 38.705 27.066 63.711 27.066 49.013 0 88.746-39.833 88.746-88.97.001-39.453-25.624-72.887-61.091-84.541z" fill="#fed230"/><g fill="#fd9468"><path d="m302.191 310.488c0-9.936-5.25-18.665-13.122-23.58 3.461-4.643 5.512-10.403 5.512-16.645 0-12.577-8.41-23.223-19.906-26.639v-5.827c0-4.263-3.459-7.717-7.726-7.717s-7.726 3.455-7.726 7.717v4.673h-6.884v-4.673c0-4.263-3.459-7.717-7.726-7.717s-7.726 3.455-7.726 7.717v4.673h-2.309-.978-11.815c-4.267 0-7.726 3.455-7.726 7.717 0 4.263 3.459 7.717 7.726 7.717h4.089v32.507 32.506h-4.089c-4.267 0-7.726 3.455-7.726 7.717s3.459 7.717 7.726 7.717h11.815.978 2.309v4.674c0 4.263 3.459 7.717 7.726 7.717s7.726-3.455 7.726-7.717v-4.674h6.884v4.674c0 4.263 3.459 7.717 7.726 7.717s7.726-3.455 7.726-7.717v-4.681c15.2-.164 27.516-12.561 27.516-27.856zm-23.063-40.149c0 6.814-5.55 12.357-12.372 12.357h-25.432v-24.79h25.432c6.822 0 12.372 5.544 12.372 12.433zm-4.762 52.581h-33.041v-24.789h25.432 7.61c6.822 0 12.372 5.544 12.372 12.432-.001 6.813-5.551 12.357-12.373 12.357z"/><ellipse cx="378.841" cy="211.693" rx="15.696" ry="15.67"/><ellipse cx="378.841" cy="369.064" rx="15.696" ry="15.67"/><ellipse cx="105.355" cy="290.492" rx="15.696" ry="15.67"/><ellipse cx="133.159" cy="211.693" rx="15.696" ry="15.67"/><ellipse cx="133.159" cy="369.064" rx="15.696" ry="15.67"/></g></g><path d="m198.253 487h-146.172c-2.023 0-3.663-1.64-3.663-3.663v-36.448h153.497v36.448c0 2.023-1.639 3.663-3.662 3.663z" fill="#c5d3dd"/><path d="m48.419 446.889v16.463h111.278c13.076 0 23.676 10.587 23.676 23.648h14.878c2.024 0 3.665-1.639 3.665-3.66v-36.45h-153.497z" fill="#b6c4cf"/><path d="m457.858 487h-95.693c-2.023 0-3.663-1.64-3.663-3.663v-36.448h103.018v36.448c.001 2.023-1.639 3.663-3.662 3.663z" fill="#c5d3dd"/><path d="m358.503 446.889v17.492h62.859c12.507 0 22.646 10.127 22.646 22.619h13.848c2.024 0 3.665-1.639 3.665-3.661v-36.45z" fill="#b6c4cf"/><path d="m308.482 487h-58.606c-2.023 0-3.663-1.64-3.663-3.663v-36.448h65.932v36.448c0 2.023-1.64 3.663-3.663 3.663z" fill="#c5d3dd"/><path d="m246.213 446.889v17.492h25.773c12.507 0 22.646 10.127 22.646 22.619h13.848c2.024 0 3.665-1.639 3.665-3.66v-36.45h-65.932z" fill="#b6c4cf"/></g></svg>