<svg id="Capa_1" enable-background="new 0 0 520 520" height="512" viewBox="0 0 520 520" width="512" xmlns="http://www.w3.org/2000/svg"><g><path d="m293.808 279.966h216.695v48.007h-216.695z" fill="#fac600"/><path d="m510.503 279.966h-216.695v-37.448c0-5.832 4.728-10.559 10.559-10.559h195.577c5.832 0 10.559 4.728 10.559 10.559z" fill="#fee45a"/><path d="m293.808 327.973h216.695v48.007h-216.695z" fill="#fee45a"/><path d="m293.808 375.98h216.695v48.007h-216.695z" fill="#fac600"/><path d="m293.808 423.986h216.695v48.007h-216.695z" fill="#fee45a"/><path d="m500.983 520h-197.655c-5.258 0-9.52-4.262-9.52-9.52v-38.487h216.695v38.487c0 5.258-4.262 9.52-9.52 9.52z" fill="#fac600"/><path d="m237.917 420.786h-216.695v-37.328c0-5.898 4.781-10.679 10.679-10.679h195.337c5.898 0 10.679 4.781 10.679 10.679z" fill="#fac600"/><path d="m21.222 420.786h216.695v48.007h-216.695z" fill="#fee45a"/><path d="m227.238 516.8h-195.337c-5.898 0-10.679-4.781-10.679-10.679v-37.328h216.695v37.328c0 5.897-4.781 10.679-10.679 10.679z" fill="#fac600"/><g><ellipse cx="400.017" cy="115.75" fill="#fd9468" rx="115.983" ry="115.75"/><path d="m445.539 9.26c10.82 17.595 17.062 38.296 17.062 60.453 0 63.927-51.927 115.75-115.983 115.75-16.16 0-31.545-3.302-45.522-9.261 20.396 33.17 57.068 55.297 98.921 55.297 64.056.001 115.983-51.823 115.983-115.749 0-47.8-29.034-88.829-70.461-106.49z" fill="#fe7d43"/><ellipse cx="400.018" cy="115.75" fill="#fee45a" rx="86.362" ry="86.178"/><path d="m461.736 55.553c.568 4.642.865 9.366.865 14.161 0 63.037-50.492 114.3-113.315 115.716 14.255 10.363 31.785 16.498 50.731 16.498 47.62 0 86.362-38.659 86.362-86.179 0-23.406-9.412-44.65-24.643-60.196z" fill="#fed230"/><path d="m445.846 136.015c0-10.359-5.513-19.455-13.759-24.515 3.643-4.822 5.807-10.823 5.807-17.328 0-13.09-8.803-24.157-20.802-27.62v-6.173c0-4.334-3.515-7.847-7.853-7.847-4.337 0-7.853 3.513-7.853 7.847v5.042h-11.824v-5.042c0-4.334-3.515-7.847-7.853-7.847-4.337 0-7.853 3.513-7.853 7.847v5.042h-11.815c-4.337 0-7.853 3.513-7.853 7.847s3.515 7.847 7.853 7.847h4.494v33.997 33.997h-4.494c-4.337 0-7.853 3.513-7.853 7.847s3.515 7.847 7.853 7.847h11.815v5.043c0 4.334 3.515 7.847 7.853 7.847 4.337 0 7.853-3.513 7.853-7.847v-5.043h11.824v5.043c0 4.334 3.515 7.847 7.853 7.847 4.337 0 7.853-3.513 7.853-7.847v-5.044c15.856-.008 28.754-12.901 28.754-28.787zm-23.658-41.805c0 7.198-5.861 13.055-13.064 13.055h-26.882v-26.15h26.882c7.203 0 13.064 5.857 13.064 13.095zm-5.112 54.899h-34.834v-26.15h26.882 7.952c7.203 0 13.064 5.857 13.064 13.095 0 7.198-5.861 13.055-13.064 13.055z" fill="#fd9468"/></g><g><ellipse cx="129.57" cy="245.958" fill="#fd9468" rx="125.57" ry="125.274"/><path d="m163.009 125.184c17.033 21.383 27.214 48.442 27.214 77.877 0 69.187-56.22 125.274-125.57 125.274-11.581 0-22.792-1.572-33.44-4.5 23.004 28.877 58.51 47.397 98.356 47.397 69.35 0 125.57-56.087 125.57-125.274 0-57.633-39.014-106.169-92.13-120.774z" fill="#fe7d43"/><ellipse cx="129.57" cy="245.958" fill="#fee45a" rx="93.501" ry="93.269"/><path d="m186.299 171.872c2.561 9.971 3.924 20.421 3.924 31.189 0 62.878-46.435 114.93-106.96 123.902 13.66 7.801 29.47 12.265 46.306 12.265 51.556 0 93.501-41.84 93.501-93.269 0-30.166-14.435-57.028-36.771-74.087z" fill="#fed230"/><path d="m152.957 285.374h-39.876l9.431-35.972 17.569-5.157c4.161-1.222 6.543-5.583 5.321-9.741-1.224-4.158-5.583-6.539-9.748-5.317l-8.496 2.494 11.945-45.561c1.099-4.192-1.411-8.481-5.606-9.579-4.193-1.098-8.487 1.41-9.586 5.602l-14.341 54.701-18.859 5.536c-4.161 1.222-6.543 5.583-5.321 9.741 1.006 3.42 4.136 5.637 7.532 5.637.732 0 1.478-.103 2.217-.32l9.785-2.872-9.613 36.668c-.617 2.352-.107 4.857 1.379 6.782s3.783 3.053 6.217 3.053h50.051c4.337 0 7.853-3.513 7.853-7.847-.001-4.335-3.517-7.848-7.854-7.848z" fill="#fd9468"/></g></g></svg>