<svg id="Capa_1" enable-background="new 0 0 512 512" height="512" viewBox="0 0 512 512" width="512" xmlns="http://www.w3.org/2000/svg"><g><g><path d="m319.833 362.572h-129.97c-6.412 0-10.918-6.365-8.833-12.479l19.051-55.879c1.297-3.803 4.845-6.356 8.833-6.356h91.868c3.988 0 7.537 2.553 8.833 6.356l19.051 55.879c2.085 6.114-2.421 12.479-8.833 12.479z" fill="#fee45a"/><path d="m242.729 339.908h-58.228l-3.472 10.185c-2.085 6.114 2.421 12.479 8.833 12.479h129.971c6.412 0 10.918-6.365 8.833-12.479l-19.051-55.879c-1.297-3.803-4.845-6.356-8.833-6.356h-19.598c7.946 25.869-11.396 52.05-38.455 52.05z" fill="#fed230"/><g fill="#fee45a"><path d="m172.319 512h-129.971c-6.412 0-10.918-6.365-8.833-12.479l19.051-55.879c1.297-3.803 4.845-6.356 8.833-6.356h91.868c3.988 0 7.537 2.553 8.833 6.356l19.051 55.879c2.085 6.114-2.42 12.479-8.832 12.479z"/><path d="m320.985 512h-129.97c-6.412 0-10.918-6.365-8.833-12.479l19.051-55.879c1.297-3.803 4.845-6.356 8.833-6.356h91.868c3.988 0 7.537 2.553 8.833 6.356l19.051 55.879c2.085 6.114-2.42 12.479-8.833 12.479z"/><path d="m469.652 512h-129.97c-6.412 0-10.918-6.365-8.833-12.479l19.051-55.879c1.297-3.803 4.845-6.356 8.833-6.356h91.868c3.988 0 7.537 2.553 8.833 6.356l19.051 55.879c2.085 6.114-2.421 12.479-8.833 12.479z"/><path d="m246.076 437.286h-129.97c-6.412 0-10.918-6.365-8.833-12.479l19.051-55.879c1.297-3.803 4.845-6.356 8.833-6.356h91.868c3.988 0 7.537 2.553 8.833 6.356l19.051 55.879c2.084 6.114-2.421 12.479-8.833 12.479z"/><path d="m394.742 437.286h-129.97c-6.412 0-10.918-6.365-8.833-12.479l19.051-55.879c1.297-3.803 4.845-6.356 8.833-6.356h91.868c3.988 0 7.537 2.553 8.833 6.356l19.051 55.879c2.085 6.114-2.42 12.479-8.833 12.479z"/></g><path d="m317.639 414.622h-58.228l-3.472 10.185c-2.085 6.114 2.421 12.479 8.833 12.479h129.97c6.412 0 10.918-6.365 8.833-12.479l-19.051-55.879c-1.297-3.803-4.845-6.356-8.833-6.356h-19.598c7.947 25.869-11.396 52.05-38.454 52.05z" fill="#fed230"/><path d="m168.972 414.622h-58.228l-3.472 10.185c-2.085 6.114 2.421 12.479 8.833 12.479h129.97c6.412 0 10.918-6.365 8.833-12.479l-19.051-55.879c-1.297-3.803-4.845-6.356-8.833-6.356h-19.598c7.947 25.869-11.395 52.05-38.454 52.05z" fill="#fed230"/><path d="m95.215 489.336h-58.228l-3.472 10.185c-2.085 6.114 2.421 12.479 8.833 12.479h129.97c6.412 0 10.918-6.365 8.833-12.479l-19.051-55.879c-1.297-3.803-4.845-6.356-8.833-6.356h-19.597c7.946 25.869-11.396 52.05-38.455 52.05z" fill="#fed230"/><path d="m243.882 489.336h-58.228l-3.472 10.185c-2.085 6.114 2.421 12.479 8.833 12.479h129.97c6.412 0 10.918-6.365 8.833-12.479l-19.051-55.879c-1.297-3.803-4.845-6.356-8.833-6.356h-19.598c7.947 25.869-11.396 52.05-38.454 52.05z" fill="#fed230"/><path d="m392.548 489.336h-58.228l-3.472 10.185c-2.085 6.114 2.421 12.479 8.833 12.479h129.97c6.412 0 10.918-6.365 8.833-12.479l-19.051-55.879c-1.297-3.803-4.845-6.356-8.833-6.356h-19.598c7.947 25.869-11.395 52.05-38.454 52.05z" fill="#fed230"/></g><g><ellipse cx="256" cy="124.715" fill="#fd9468" rx="125.041" ry="124.715"/><path d="m294.068 5.893c15.431 20.742 24.563 46.426 24.563 74.239 0 68.878-55.983 124.715-125.041 124.715-13.275 0-26.063-2.071-38.067-5.893 22.783 30.626 59.304 50.476 100.477 50.476 69.058 0 125.041-55.837 125.041-124.715 0-55.638-36.531-102.759-86.973-118.822z" fill="#fe7d43"/><ellipse cx="256" cy="124.715" fill="#fee45a" rx="93.107" ry="92.853"/><path d="m315.784 53.592c1.859 8.554 2.847 17.432 2.847 26.54 0 64.128-48.53 116.942-110.956 123.923 14.096 8.571 30.643 13.513 48.326 13.513 51.339 0 93.107-41.654 93.107-92.854-.001-28.521-12.967-54.076-33.324-71.122z" fill="#fed230"/><path d="m289.484 120.339c4.132-5.178 6.611-11.734 6.611-18.867 0-13.976-9.528-25.765-22.427-29.223v-7.194c0-4.268-3.458-7.726-7.725-7.726s-7.725 3.459-7.725 7.726v6.162h-11.775v-6.162c0-4.268-3.458-7.726-7.725-7.726s-7.725 3.459-7.725 7.726v6.162h-1.521-1.101-13.311c-4.267 0-7.725 3.459-7.725 7.726 0 4.268 3.458 7.726 7.725 7.726h5.586v37.358 37.359h-5.586c-4.267 0-7.725 3.459-7.725 7.726s3.458 7.726 7.725 7.726h13.311 1.101 1.521v6.162c0 4.268 3.458 7.726 7.725 7.726s7.725-3.459 7.725-7.726v-6.162h11.775v6.162c0 4.268 3.458 7.726 7.725 7.726s7.725-3.459 7.725-7.726v-6.162h.749c16.68 0 30.25-13.572 30.25-30.283 0-11.196-6.119-20.985-15.183-26.216zm-8.84-18.839c0 8.162-6.64 14.802-14.801 14.802h-29.749v-29.632h29.749c8.161 0 14.801 6.64 14.801 14.83zm-6.227 59.887h-38.322v-29.633h29.749 8.573c8.161 0 14.8 6.641 14.8 14.831-.001 8.162-6.64 14.802-14.8 14.802z" fill="#fd9468"/></g></g></svg>