<svg id="Capa_1" enable-background="new 0 0 512 512" height="512" viewBox="0 0 512 512" width="512" xmlns="http://www.w3.org/2000/svg"><g><g><path d="m427.348 265.594c-4.273 0-7.736-3.459-7.736-7.726v-65.862c0-10.636 8.666-19.289 19.317-19.289h27.861c1.592 0 2.889-1.293 2.889-2.881v-58.787c0-4.268 3.463-7.726 7.736-7.726s7.736 3.459 7.736 7.726v58.787c0 10.11-8.236 18.334-18.361 18.334h-27.86c-2.12 0-3.846 1.721-3.846 3.836v65.862c0 4.267-3.463 7.726-7.736 7.726z" fill="#d9e7ec"/></g><g><ellipse cx="256" cy="128.881" fill="#fd9468" rx="129.487" ry="128.881"/><path d="m306.676 10.247c12.558 19.857 19.83 43.36 19.83 68.556 0 71.179-57.974 128.881-129.487 128.881-17.984 0-35.111-3.652-50.676-10.247 22.918 36.239 63.459 60.325 109.658 60.325 71.514 0 129.487-57.702 129.487-128.881-.001-53.279-32.484-99.004-78.812-118.634z" fill="#fe7d43"/><ellipse cx="256" cy="128.881" fill="#fee45a" rx="96.418" ry="95.955"/><path d="m325.468 62.41c.685 5.369 1.038 10.84 1.038 16.394 0 69.865-55.855 126.74-125.543 128.816 15.617 10.845 34.593 17.216 55.038 17.216 53.165 0 96.418-43.045 96.418-95.955-.001-25.779-10.272-49.213-26.951-66.471z" fill="#fed230"/><path d="m290.292 124.429c4.35-5.343 6.964-12.156 6.964-19.578 0-14.397-9.88-26.532-23.224-30.001v-7.622c0-4.268-3.463-7.726-7.736-7.726s-7.736 3.459-7.736 7.726v6.626h-12.651v-6.626c0-4.268-3.463-7.726-7.736-7.726s-7.736 3.459-7.736 7.726v6.626h-1.91-1.14-13.785c-4.273 0-7.736 3.459-7.736 7.726s3.463 7.726 7.736 7.726h6.049v38.864 38.865h-6.049c-4.273 0-7.736 3.459-7.736 7.726s3.463 7.726 7.736 7.726h13.785 1.14 1.91v6.626c0 4.268 3.463 7.726 7.736 7.726s7.736-3.459 7.736-7.726v-6.626h12.651v6.626c0 4.268 3.463 7.726 7.736 7.726s7.736-3.459 7.736-7.726v-6.626h1.066c17.113 0 31.035-13.905 31.035-31.046 0-11.58-6.396-21.691-15.841-27.012zm-8.508-19.529c0 8.571-6.982 15.544-15.564 15.544h-31.097v-31.137h31.097c8.582 0 15.564 6.973 15.564 15.593zm-6.686 62.136h-39.975v-31.139h31.097 8.878c8.582 0 15.563 6.974 15.563 15.594 0 8.571-6.981 15.545-15.563 15.545z" fill="#fd9468"/></g><g><path d="m86.607 265.594c-4.273 0-7.736-3.459-7.736-7.726v-65.862c0-2.115-1.725-3.836-3.846-3.836h-27.861c-10.124 0-18.361-8.224-18.361-18.334v-58.787c0-4.268 3.463-7.726 7.736-7.726s7.736 3.459 7.736 7.726v58.787c0 1.589 1.296 2.881 2.889 2.881h27.861c10.652 0 19.317 8.653 19.317 19.289v65.862c.001 4.267-3.462 7.726-7.735 7.726z" fill="#d9e7ec"/></g><path d="m486.213 512h-460.426c-8.719 0-15.787-7.068-15.787-15.787v-222.56c0-8.719 7.068-15.787 15.787-15.787h460.426c8.719 0 15.787 7.068 15.787 15.787v222.56c0 8.719-7.068 15.787-15.787 15.787z" fill="#8ac9fe"/><path d="m486.203 257.866h-40.933v181.697c0 8.713-7.073 15.777-15.797 15.777h-419.473v40.883c0 8.713 7.073 15.777 15.797 15.777h460.407c8.724 0 15.797-7.064 15.797-15.777v-222.58c-.001-8.713-7.074-15.777-15.798-15.777z" fill="#60b7ff"/><path d="m41.877 477.178v-184.49c0-1.657 1.343-3 3-3h422.246c1.657 0 3 1.343 3 3v184.49c0 1.657-1.343 3-3 3h-422.246c-1.657 0-3-1.343-3-3z" fill="#eaf6ff"/><path d="m445.27 289.689c0 91.487-74.256 165.651-165.855 165.651h-237.538v21.838c0 1.657 1.343 3 3 3h422.246c1.657 0 3-1.343 3-3v-184.49c0-1.657-1.343-3-3-3z" fill="#d8ecfe"/><g fill="#0ed2b3"><g><path d="m190.413 379.149c4.249-5.041 6.817-11.543 6.817-18.636 0-15.969-12.994-28.961-28.966-28.961h-26.8c-4.273 0-7.736 3.459-7.736 7.726v42.495.068 49.721c0 2.055.82 4.025 2.278 5.476 1.449 1.442 3.412 2.25 5.457 2.25h.034c.247-.001 24.74-.11 31.447-.11 17.96 0 32.57-14.61 32.57-32.566.001-11.531-6.032-21.675-15.101-27.463zm-22.149-32.144c7.441 0 13.494 6.059 13.494 13.508s-6.054 13.509-13.494 13.509c-1.974 0-5.693.011-9.747.025h-9.318v-27.042zm4.68 76.722c-4.31 0-15.889.044-23.745.076v-34.268c2.867-.012 6.178-.025 9.298-.036h14.448c9.428 0 17.098 7.677 17.098 17.114s-7.671 17.114-17.099 17.114z"/><path d="m290.929 331.552c-4.273 0-7.736 3.459-7.736 7.726v63.436c0 5.079-1.371 12.519-13.225 18.454-3.539 1.772-7.512 2.669-11.813 2.669-.016 0-.031 0-.046 0-4.794-.006-9.158-1.237-12.971-3.657-7.695-4.888-10.978-10.092-10.978-17.399v-63.502c0-4.268-3.463-7.726-7.736-7.726s-7.736 3.459-7.736 7.726v63.502c0 12.725 5.936 22.681 18.149 30.439 6.328 4.018 13.478 6.06 21.25 6.07h.069c6.729 0 13.034-1.449 18.743-4.307 17.989-9.006 21.765-22.518 21.765-32.269v-63.436c.001-4.267-3.462-7.726-7.735-7.726z"/><path d="m378.545 332.987c-3.65-2.216-8.411-1.055-10.628 2.593l-20.666 33.98-20.876-34.222c-2.224-3.644-6.983-4.797-10.632-2.578-3.648 2.22-4.804 6.975-2.582 10.619l26.358 43.209-.102 44.881c-.01 4.267 3.446 7.733 7.719 7.743h.017c4.265 0 7.726-3.448 7.736-7.709l.102-44.906 26.149-42.995c2.218-3.647 1.056-8.4-2.595-10.615z"/></g><ellipse cx="477.413" cy="88.639" rx="22.528" ry="22.407"/><ellipse cx="36.544" cy="88.639" rx="22.528" ry="22.407"/></g></g></svg>