<svg id="Capa_1" enable-background="new 0 0 512 512" height="512" viewBox="0 0 512 512" width="512" xmlns="http://www.w3.org/2000/svg"><g><g fill="#7a8c98"><path d="m71.29 219.206h64.319v73.588h-64.319z"/><path d="m375.842 219.206h64.319v73.588h-64.319z"/><path d="m228.526 219.206h64.319v73.588h-64.319z"/></g><path d="m491.695 219.206h-471.39c-11.214 0-20.305-9.091-20.305-20.305v-151.596c0-11.214 9.091-20.305 20.305-20.305h471.389c11.215 0 20.306 9.091 20.306 20.305v151.595c0 11.215-9.091 20.306-20.305 20.306z" fill="#9facba"/><path d="m491.685 27h-36.345v115.304c0 11.209-9.096 20.296-20.315 20.296h-435.025v36.311c0 11.209 9.095 20.296 20.315 20.296h471.37c11.219 0 20.315-9.087 20.315-20.296v-151.615c0-11.209-9.096-20.296-20.315-20.296z" fill="#8d9ca8"/><path d="m32.984 181.657v-116.01c0-2.843 2.305-5.148 5.148-5.148h435.734c2.843 0 5.148 2.305 5.148 5.148v116.01c0 2.843-2.305 5.148-5.148 5.148h-435.733c-2.844.001-5.149-2.304-5.149-5.148z" fill="#d9e7ec"/><path d="m473.865 60.499h-18.525c0 56.389-45.755 102.101-102.197 102.101h-320.159v19.06c0 2.842 2.306 5.146 5.151 5.146h435.729c2.845 0 5.151-2.304 5.151-5.146v-116.015c.001-2.842-2.306-5.146-5.15-5.146z" fill="#c5d3dd"/><ellipse cx="103.589" cy="123.788" fill="#fe7d43" rx="23.31" ry="23.201"/><ellipse cx="188.248" cy="123.788" fill="#fe7d43" rx="23.31" ry="23.201"/><ellipse cx="337.748" cy="123.964" fill="#fd8087" rx="9.378" ry="9.407"/><ellipse cx="305.863" cy="123.964" fill="#fd8087" rx="9.378" ry="9.407"/><ellipse cx="367.758" cy="123.964" fill="#0ed2b3" rx="9.378" ry="9.407"/><ellipse cx="398.219" cy="123.964" fill="#fd8087" rx="9.378" ry="9.407"/><path d="m491.695 485h-471.39c-11.214 0-20.305-9.091-20.305-20.305v-151.596c0-11.214 9.091-20.305 20.305-20.305h471.389c11.214 0 20.305 9.091 20.305 20.305v151.595c.001 11.215-9.09 20.306-20.304 20.306z" fill="#9facba"/><path d="m491.685 292.794h-36.345v115.304c0 11.209-9.096 20.296-20.315 20.296h-435.025v36.311c0 11.208 9.095 20.295 20.315 20.295h471.37c11.219 0 20.315-9.087 20.315-20.296v-151.614c0-11.21-9.096-20.296-20.315-20.296z" fill="#8d9ca8"/><path d="m32.984 447.451v-116.01c0-2.843 2.305-5.148 5.148-5.148h435.734c2.843 0 5.148 2.305 5.148 5.148v116.01c0 2.843-2.305 5.148-5.148 5.148h-435.733c-2.844.001-5.149-2.305-5.149-5.148z" fill="#d9e7ec"/><path d="m473.865 326.293h-18.525c0 56.389-45.755 102.101-102.197 102.101h-320.159v19.06c0 2.842 2.306 5.146 5.151 5.146h435.729c2.845 0 5.151-2.304 5.151-5.146v-116.015c.001-2.842-2.306-5.146-5.15-5.146z" fill="#c5d3dd"/><ellipse cx="103.589" cy="389.582" fill="#fe7d43" rx="23.31" ry="23.201"/><ellipse cx="188.248" cy="389.582" fill="#fe7d43" rx="23.31" ry="23.201"/><ellipse cx="337.748" cy="389.758" fill="#0ed2b3" rx="9.378" ry="9.407"/><ellipse cx="305.863" cy="389.758" fill="#fd8087" rx="9.378" ry="9.407"/><ellipse cx="367.758" cy="389.758" fill="#fd8087" rx="9.378" ry="9.407"/><ellipse cx="428.229" cy="123.964" fill="#0ed2b3" rx="9.378" ry="9.407"/><ellipse cx="398.219" cy="389.758" fill="#0ed2b3" rx="9.378" ry="9.407"/><ellipse cx="428.229" cy="389.758" fill="#0ed2b3" rx="9.378" ry="9.407"/></g></svg>