<svg id="Capa_1" enable-background="new 0 0 512 512" height="512" viewBox="0 0 512 512" width="512" xmlns="http://www.w3.org/2000/svg"><g><circle cx="256" cy="256" fill="#8ac9fe" r="256"/><path d="m367.677 25.588c27.699 40.903 43.88 90.242 43.88 143.362 0 141.385-114.615 256-256 256-40.039 0-77.927-9.199-111.677-25.588 46.025 67.966 123.855 112.638 212.12 112.638 141.385 0 256-114.615 256-256 0-101.346-58.895-188.93-144.323-230.412z" fill="#60b7ff"/><circle cx="256" cy="256" fill="#eaf6ff" r="222.915"/><path d="m396.826 83.208c9.528 26.808 14.731 55.665 14.731 85.742 0 141.385-114.615 256-256 256-17.318 0-34.23-1.73-50.583-5.008 39.716 36.605 92.755 58.973 151.026 58.973 123.113 0 222.915-99.803 222.915-222.915 0-69.698-31.994-131.916-82.089-172.792z" fill="#d8ecfe"/><g><g><path d="m255.222 342.78h-66.209c-9.004 0-16.304-7.262-16.304-16.22s7.299-16.22 16.304-16.22h66.209c28.599 0 54.087-17.011 64.935-43.337 6.121-14.857 4.476-31.025-4.515-44.36-8.991-13.334-23.404-20.982-39.543-20.982h-65.941c-9.004 0-16.304-7.262-16.304-16.22s7.299-16.22 16.304-16.22h65.941c26.791 0 51.697 13.215 66.622 35.35s17.769 50.074 7.607 74.736c-15.888 38.558-53.219 63.473-95.106 63.473z" fill="#60b7ff"/></g><g><path d="m227.397 271.95h-55.432c-9.004 0-16.304-7.262-16.304-16.22s7.299-16.22 16.304-16.22h55.432c9.004 0 16.304 7.262 16.304 16.22s-7.3 16.22-16.304 16.22z" fill="#60b7ff"/></g></g></g></svg>