<svg id="Capa_1" enable-background="new 0 0 512 512" height="512" viewBox="0 0 512 512" width="512" xmlns="http://www.w3.org/2000/svg"><g><circle cx="256" cy="256" fill="#5de1c4" r="256"/><path d="m368.516 26.004c29.699 41.805 47.162 92.911 47.162 148.096 0 141.385-114.615 256-256 256-40.372 0-78.555-9.359-112.516-26.004 46.391 65.3 122.638 107.904 208.838 107.904 141.385 0 256-114.615 256-256 0-101.012-58.512-188.347-143.484-229.996z" fill="#0ed2b3"/><circle cx="256" cy="256" fill="#d8f6ef" r="222.915"/><path d="m400.085 85.924c10.086 27.49 15.593 57.19 15.593 88.176 0 141.385-114.615 256-256 256-16.563 0-32.752-1.592-48.44-4.597 38.95 33.297 89.504 53.412 144.762 53.412 123.113 0 222.915-99.803 222.915-222.915 0-68.173-30.613-129.186-78.83-170.076z" fill="#c6f2e7"/><g><g><path d="m368.213 349.86c-7.803-.37-13.804-7.093-13.802-14.905l.032-119.905c0-1.757-2.101-2.66-3.376-1.452l-49.167 46.615c-.398.378-.624.902-.624 1.451l-.02 73.276c-.002 7.812-6.007 14.532-13.81 14.897-8.331.39-15.207-6.25-15.205-14.495l.022-80.78c.001-3.981 1.638-7.786 4.526-10.524l82.191-77.925c4.868-4.614 12.374-5.363 18.146-1.469 4.06 2.739 6.345 7.449 6.343 12.347l-.042 158.382c-.003 8.245-6.883 14.882-15.214 14.487z" fill="#5de1c4"/></g><g><path d="m224.508 349.849c-7.803-.368-13.806-7.089-13.806-14.901v-73.276c0-.549-.225-1.073-.624-1.451l-49.155-46.629c-1.274-1.209-3.376-.305-3.376 1.451v119.905c0 7.812-6.003 14.533-13.806 14.901-8.331.392-15.209-6.246-15.209-14.491v-158.382c0-4.897 2.285-9.605 6.344-12.344 5.772-3.893 13.281-3.145 18.148 1.473l82.17 77.947c2.888 2.739 4.523 6.544 4.523 10.525v80.78c0 8.246-6.878 14.885-15.209 14.492z" fill="#5de1c4"/></g></g></g></svg>