<svg id="Capa_1" enable-background="new 0 0 512 512" height="512" viewBox="0 0 512 512" width="512" xmlns="http://www.w3.org/2000/svg"><g><circle cx="256" cy="256" fill="#b6c4cf" r="256"/><path d="m366.133 24.846c28.009 41.049 44.395 90.661 44.395 144.104 0 141.385-114.615 256-256 256-39.43 0-76.772-8.923-110.133-24.846 46.088 67.546 123.664 111.896 211.605 111.896 141.385 0 256-114.615 256-256 0-101.955-59.606-189.982-145.867-231.154z" fill="#8d9ca8"/><circle cx="256" cy="256" fill="#f5f8f9" r="222.915"/><path d="m395.388 82.049c9.791 27.134 15.139 56.391 15.139 86.9 0 141.385-114.615 256-256 256-16.861 0-33.335-1.648-49.286-4.759 39.686 36.459 92.62 58.725 150.759 58.725 123.113 0 222.915-99.803 222.915-222.915 0-70.361-32.609-133.097-83.527-173.951z" fill="#e8edf2"/><g><g><path d="m256 239.759c-30.171 0-58.205-27.005-104.216-76.029-6.019-6.414-5.608-16.409.918-22.324 6.527-5.916 16.697-5.512 22.716.902 37.218 39.656 64.496 65.855 80.582 65.855s43.363-26.199 80.582-65.855c6.019-6.413 16.189-6.818 22.716-.902 6.526 5.916 6.937 15.91.918 22.324-46.011 49.024-74.045 76.029-104.216 76.029z" fill="#b6c4cf"/></g><g><path d="m345.713 374.779c-4.333.001-5.963-1.71-9.132-5.087-37.218-39.656-64.496-65.855-80.582-65.855s-43.363 26.198-80.582 65.855c-6.019 6.413-16.189 6.818-22.716.902-6.526-5.916-6.937-15.91-.918-22.324 46.011-49.024 74.045-76.029 104.216-76.029s58.205 27.005 104.216 76.029c10.666 11.584.045 27.685-14.502 26.509z" fill="#b6c4cf"/></g></g></g></svg>