<?xml version="1.0"?>
<svg xmlns="http://www.w3.org/2000/svg" xmlns:xlink="http://www.w3.org/1999/xlink" xmlns:svgjs="http://svgjs.com/svgjs" version="1.1" width="512" height="512" x="0" y="0" viewBox="0 0 478.856 478.856" style="enable-background:new 0 0 512 512" xml:space="preserve" class=""><g>
<path xmlns="http://www.w3.org/2000/svg" style="" d="M406.856,358.873h-400v-192h400V358.873z" fill="#8cc153" data-original="#8cc153" class=""/>
<path xmlns="http://www.w3.org/2000/svg" style="" d="M15.744,166.873l23.112-104l357.536,80.448l-4.224,23.552" fill="#87b748" data-original="#87b748" class=""/>
<path xmlns="http://www.w3.org/2000/svg" style="" d="M262.856,326.873h60.264l35.736-34.856v-0.696v-56.896l-32.504-35.552h-63.496h-128H74.592  l-35.736,34.856v0.696v56.896l32.504,35.552h63.496H262.856z" fill="#a0d468" data-original="#a0d468" class=""/>
<path xmlns="http://www.w3.org/2000/svg" style="" d="M96.384,75.817l26.256-62.696l260.216,108.416l-5.728,17.448" fill="#7caa33" data-original="#7caa33" class=""/>
<path xmlns="http://www.w3.org/2000/svg" style="" d="M310.856,406.873v32c0,13.256,35.816,24,80,24s80-10.744,80-24v-32" fill="#f8cf26" data-original="#f8cf26" class=""/>
<circle xmlns="http://www.w3.org/2000/svg" style="" cx="198.856" cy="262.873" r="64" fill="#8cc153" data-original="#8cc153" class=""/>
<path xmlns="http://www.w3.org/2000/svg" style="" d="M310.856,374.873v32c0,13.256,35.816,24,80,24s80-10.744,80-24v-32" fill="#cda349" data-original="#cda349"/>
<path xmlns="http://www.w3.org/2000/svg" style="" d="M310.856,342.873v32c0,13.256,35.816,24,80,24s80-10.744,80-24v-32" fill="#f8cf26" data-original="#f8cf26" class=""/>
<path xmlns="http://www.w3.org/2000/svg" style="" d="M310.856,310.873v32c0,13.256,35.816,24,80,24s80-10.744,80-24v-32" fill="#cda349" data-original="#cda349"/>
<path xmlns="http://www.w3.org/2000/svg" style="" d="M310.856,278.873v32c0,13.256,35.816,24,80,24s80-10.744,80-24v-32" fill="#f8cf26" data-original="#f8cf26" class=""/>
<path xmlns="http://www.w3.org/2000/svg" style="" d="M310.856,246.873v32c0,13.256,35.816,24,80,24s80-10.744,80-24v-32" fill="#cda349" data-original="#cda349"/>
<ellipse xmlns="http://www.w3.org/2000/svg" style="" cx="390.856" cy="246.873" rx="80" ry="24" fill="#f8cf26" data-original="#f8cf26" class=""/>
<path xmlns="http://www.w3.org/2000/svg" d="M406.856,197.729c3.782,0.004,6.852-3.058,6.856-6.84c0-0.005,0-0.011,0-0.016v-24c0.004-3.782-3.058-6.852-6.84-6.856  c-0.005,0-0.011,0-0.016,0h-400c-3.782-0.004-6.852,3.058-6.856,6.84c0,0.005,0,0.011,0,0.016v192  c-0.004,3.782,3.058,6.852,6.84,6.856c0.005,0,0.011,0,0.016,0h272c3.786,0,6.856-3.07,6.856-6.856c0-3.786-3.07-6.856-6.856-6.856  H13.712V173.729H400v17.144c-0.004,3.782,3.058,6.852,6.84,6.856C406.845,197.729,406.851,197.729,406.856,197.729L406.856,197.729z  " fill="#000000" data-original="#000000" style=""/>
<path xmlns="http://www.w3.org/2000/svg" d="M35.184,57.081c-1.537,0.979-2.624,2.526-3.024,4.304l-16,72c-0.822,3.698,1.51,7.362,5.208,8.184  c3.698,0.822,7.362-1.51,8.184-5.208l0,0l14.504-65.288l313.296,70.488c0.496,0.115,1.003,0.171,1.512,0.168  c3.786-0.007,6.85-3.082,6.844-6.868c-0.006-3.201-2.225-5.971-5.348-6.676l-320-72C38.584,55.789,36.723,56.111,35.184,57.081  L35.184,57.081z" fill="#000000" data-original="#000000" style=""/>
<path xmlns="http://www.w3.org/2000/svg" d="M117.008,49.945l13.128-26.272l186.072,77.528c3.504,1.462,7.53-0.192,8.992-3.696c1.462-3.504-0.192-7.53-3.696-8.992  l-192-80c-3.337-1.391-7.182,0.038-8.8,3.272l-16,32c-1.807,3.342-0.563,7.517,2.78,9.324s7.517,0.563,9.324-2.78  c0.071-0.131,0.138-0.265,0.2-0.401L117.008,49.945z" fill="#000000" data-original="#000000" style=""/>
<path xmlns="http://www.w3.org/2000/svg" d="M333.208,198.873c0-3.786-3.07-6.856-6.856-6.856h-63.496c-3.786,0-6.856,3.07-6.856,6.856s3.07,6.856,6.856,6.856l0,0  h63.496C330.138,205.729,333.208,202.66,333.208,198.873z" fill="#000000" data-original="#000000" style=""/>
<path xmlns="http://www.w3.org/2000/svg" d="M198.856,333.273c38.881,0,70.4-31.519,70.4-70.4c0-38.881-31.519-70.4-70.4-70.4s-70.4,31.519-70.4,70.4l0,0  C128.496,301.738,159.992,333.234,198.856,333.273z M198.856,205.273c31.812,0,57.6,25.788,57.6,57.6s-25.788,57.6-57.6,57.6  s-57.6-25.788-57.6-57.6C141.291,231.076,167.059,205.309,198.856,205.273z" fill="#000000" data-original="#000000" style=""/>
<path xmlns="http://www.w3.org/2000/svg" d="M390.856,214.873c-42.4,0-88,10.016-88,32v192c0,21.984,45.6,32,88,32s88-10.016,88-32v-192  C478.856,224.889,433.256,214.873,390.856,214.873z M462.856,406.753c-1.208,4.44-25.2,16.12-72,16.12s-70.792-11.68-72-16v-12.576  c17.024,8.576,45.144,12.576,72,12.576s54.984-4.04,72-12.584V406.753z M462.856,374.753c-1.208,4.44-25.2,16.12-72,16.12  s-70.792-11.68-72-16v-12.576c17.024,8.576,45.144,12.576,72,12.576s54.984-4.04,72-12.584V374.753z M462.856,342.753  c-1.208,4.44-25.2,16.12-72,16.12s-70.792-11.68-72-16v-12.576c17.024,8.576,45.144,12.576,72,12.576s54.984-4.04,72-12.584V342.753  z M462.856,310.753c-1.208,4.44-25.2,16.12-72,16.12s-70.792-11.68-72-16v-12.576c17.024,8.536,45.144,12.576,72,12.576  s54.984-4.04,72-12.584V310.753z M462.856,278.753c-1.208,4.44-25.2,16.12-72,16.12s-70.792-11.68-72-16v-12.576  c17.024,8.536,45.144,12.576,72,12.576s54.984-4.04,72-12.584V278.753z M390.856,230.873c46.4,0,70.4,11.472,72,16  c-1.6,4.528-25.6,16-72,16c-46.728,0-70.712-11.648-72-15.856v-0.048C320.144,242.513,344.128,230.873,390.856,230.873z   M390.856,454.873c-46.8,0-70.792-11.68-72-16v-12.576c17.024,8.576,45.144,12.576,72,12.576s54.984-4.04,72-12.584v12.464  C461.648,443.193,437.656,454.873,390.856,454.873z" fill="#000000" data-original="#000000" style=""/>
<path xmlns="http://www.w3.org/2000/svg" d="M77.376,205.729h57.48c3.786,0,6.856-3.07,6.856-6.856s-3.07-6.856-6.856-6.856H74.592c-1.792-0.004-3.515,0.694-4.8,1.944  l-35.736,34.856c-1.335,1.56-2.067,3.547-2.064,5.6v56.896c0,1.711,0.639,3.36,1.792,4.624l32.504,35.552  c1.299,1.422,3.137,2.233,5.064,2.232h63.504c3.786,0,6.856-3.07,6.856-6.856c0-3.786-3.07-6.856-6.856-6.856H74.384l-28.672-31.36  v-52L77.376,205.729z" fill="#000000" data-original="#000000" style=""/>
<path xmlns="http://www.w3.org/2000/svg" d="M202.856,274.873h-20c-4.418,0-8,3.582-8,8s3.582,8,8,8h8c0,4.418,3.582,8,8,8s8-3.582,8-8v-0.36  c8.873-1.253,15.595-8.648,16-17.6c-0.573-10.489-9.507-18.548-20-18.04h-8c-2.488,0-4-1.392-4-2s1.512-2,4-2h20  c4.418,0,8-3.582,8-8s-3.582-8-8-8h-8c0-4.418-3.582-8-8-8s-8,3.582-8,8v0.36c-8.873,1.253-15.595,8.648-16,17.6  c0.573,10.489,9.507,18.548,20,18.04h8c2.488,0,4,1.392,4,2S205.344,274.873,202.856,274.873z" fill="#000000" data-original="#000000" style=""/>
<g xmlns="http://www.w3.org/2000/svg">
</g>
<g xmlns="http://www.w3.org/2000/svg">
</g>
<g xmlns="http://www.w3.org/2000/svg">
</g>
<g xmlns="http://www.w3.org/2000/svg">
</g>
<g xmlns="http://www.w3.org/2000/svg">
</g>
<g xmlns="http://www.w3.org/2000/svg">
</g>
<g xmlns="http://www.w3.org/2000/svg">
</g>
<g xmlns="http://www.w3.org/2000/svg">
</g>
<g xmlns="http://www.w3.org/2000/svg">
</g>
<g xmlns="http://www.w3.org/2000/svg">
</g>
<g xmlns="http://www.w3.org/2000/svg">
</g>
<g xmlns="http://www.w3.org/2000/svg">
</g>
<g xmlns="http://www.w3.org/2000/svg">
</g>
<g xmlns="http://www.w3.org/2000/svg">
</g>
<g xmlns="http://www.w3.org/2000/svg">
</g>
</g></svg>
