<svg id="Capa_1" enable-background="new 0 0 512 512" height="512" viewBox="0 0 512 512" width="512" xmlns="http://www.w3.org/2000/svg"><g><circle cx="256" cy="256" fill="#5de1c4" r="256"/><path d="m377.001 30.357c28.289 41.179 44.859 91.038 44.859 144.773 0 141.385-114.615 256-256 256-43.77 0-84.968-10.994-121.001-30.357 46.143 67.169 123.492 111.227 211.141 111.227 141.385 0 256-114.615 256-256 0-97.615-54.641-182.46-134.999-225.643z" fill="#0ed2b3"/><circle cx="256" cy="256" fill="#d8f6ef" r="222.915"/><path d="m338.72 223.954c4.639-11.105 5.75-23.884 2.294-36.548-8.136-29.807-38.463-47.827-67.603-40.169l-5.596 1.471-4.823-17.671c-2.185-8.006-10.22-12.851-17.946-10.82-7.726 2.03-12.218 10.167-10.033 18.173l4.823 17.671-30.861 8.11-4.823-17.671c-2.185-8.006-10.22-12.851-17.946-10.82-7.726 2.03-12.218 10.167-10.033 18.173l4.823 17.671-39.707 10.435c-7.726 2.03-12.218 10.167-10.033 18.173s10.22 12.851 17.946 10.82l22.75-5.979 37.242 136.446-22.75 5.979c-7.726 2.03-12.218 10.167-10.033 18.173s10.22 12.85 17.946 10.82l39.707-10.435 4.097 15.009c2.185 8.006 10.22 12.85 17.946 10.82s12.218-10.167 10.033-18.173l-4.097-15.009 30.861-8.11 4.097 15.009c2.185 8.006 10.22 12.85 17.946 10.82s12.218-10.167 10.033-18.173l-4.097-15.009 17.607-4.627c31.089-8.17 49.322-40.68 40.645-72.471-5.674-20.787-21.47-36.193-40.415-42.088zm-57.397-47.724c13.713-3.604 27.939 4.708 31.711 18.529s-4.316 27.997-18.029 31.601l-48.75 12.811-32.642 8.578-13.682-50.13zm49.253 133.289-93.403 24.546-15.646-57.323 32.642-8.578 48.75-12.811 12.011-3.156c15.661-4.116 31.912 5.394 36.225 21.197 4.314 15.804-4.918 32.009-20.579 36.125z" fill="#5de1c4"/><path d="m408.558 93.484c8.623 25.643 13.302 53.098 13.302 81.647 0 141.385-114.615 256-256 256-18.88 0-37.276-2.063-54.992-5.941 38.999 33.485 89.7 53.725 145.133 53.725 123.113 0 222.915-99.803 222.915-222.915-.001-64.09-27.057-121.852-70.358-162.516z" fill="#c6f2e7"/></g></svg>