<svg id="Capa_1" enable-background="new 0 0 512 512" height="512" viewBox="0 0 512 512" width="512" xmlns="http://www.w3.org/2000/svg"><g><circle cx="256" cy="256" fill="#8ac9fe" r="256"/><path d="m383.021 33.691c26.498 40.318 41.929 88.558 41.929 140.41 0 141.385-114.615 256-256 256-46.226 0-89.588-12.257-127.021-33.691 45.755 69.617 124.538 115.59 214.071 115.59 141.385 0 256-114.615 256-256 0-95.159-51.923-178.186-128.979-222.309z" fill="#60b7ff"/><circle cx="256" cy="256" fill="#eaf6ff" r="222.915"/><g><path d="m256 380.746c-2.733 0-5.466-.688-7.931-2.064l-97.157-54.237c-5.149-2.874-8.34-8.31-8.34-14.207v-108.475c0-5.897 3.191-11.333 8.34-14.207l97.157-54.237c4.93-2.752 10.932-2.752 15.862 0l97.157 54.237c5.149 2.874 8.34 8.31 8.34 14.207v108.475c0 5.897-3.191 11.333-8.34 14.207l-97.157 54.237c-2.465 1.376-5.198 2.064-7.931 2.064zm-76.598-77.667 72.521 40.484c2.534 1.415 5.62 1.415 8.154 0l72.521-40.484c2.647-1.478 4.287-4.272 4.287-7.303v-79.552c0-3.031-1.64-5.826-4.287-7.303l-72.521-40.484c-2.534-1.415-5.62-1.415-8.154 0l-72.521 40.484c-2.647 1.478-4.287 4.272-4.287 7.303v79.552c-.001 3.031 1.64 5.826 4.287 7.303z" fill="#60b7ff"/></g><path d="m413.533 98.286c7.418 23.958 11.417 49.419 11.417 75.815 0 141.385-114.615 256-256 256-20.948 0-41.302-2.535-60.789-7.281 39.346 34.895 91.113 56.096 147.84 56.096 123.113 0 222.915-99.803 222.915-222.915-.001-61.603-24.99-117.369-65.383-157.715z" fill="#d8ecfe"/></g></svg>