<svg id="Capa_1" enable-background="new 0 0 512 512" height="512" viewBox="0 0 512 512" width="512" xmlns="http://www.w3.org/2000/svg"><g><circle cx="256" cy="256" fill="#b6c4cf" r="256"/><path d="m369.731 26.608c27.703 40.905 43.887 90.248 43.887 143.372 0 141.385-114.615 256-256 256-40.855 0-79.466-9.587-113.731-26.608 46.026 67.96 123.852 112.628 212.113 112.628 141.385 0 256-114.615 256-256 0-100.53-57.956-187.509-142.269-229.392z" fill="#8d9ca8"/><circle cx="256" cy="256" fill="#f5f8f9" r="222.915"/><path d="m399.224 85.196c9.312 26.537 14.393 55.065 14.393 84.784 0 141.385-114.615 256-256 256-17.743 0-35.064-1.807-51.791-5.244 39.62 36.139 92.322 58.18 150.174 58.18 123.113 0 222.915-99.803 222.915-222.915 0-68.579-30.977-129.913-79.691-170.805z" fill="#e8edf2"/><path d="m337.192 150.528c.045-8.202-6.467-14.888-14.547-14.934-8.126-.059-14.666 6.566-14.712 14.767l-.216 56.39-102.889-.466.212-55.757c.045-8.202-6.589-14.346-14.669-14.392-8.071-.059-14.544 6.023-14.59 14.225l-.975 211.112c-.045 8.202 6.467 14.887 14.547 14.934h.084c8.041 0 14.582-6.594 14.627-14.768l.221-57.34 102.889.466-.217 56.708c-.045 8.202 6.467 14.887 14.547 14.934h.084c8.041 0 14.582-6.594 14.627-14.768zm-132.74 124.07.214-38.611 102.889.466-.214 38.611z" fill="#b6c4cf"/></g></svg>