<svg id="Capa_1" enable-background="new 0 0 512 512" height="512" viewBox="0 0 512 512" width="512" xmlns="http://www.w3.org/2000/svg"><g><circle cx="256" cy="256" fill="#8ac9fe" r="256"/><path d="m375.875 29.763c28.975 41.489 45.984 91.953 45.984 146.398 0 141.385-114.615 256-256 256-43.316 0-84.11-10.773-119.875-29.763 46.271 66.252 123.075 109.602 210.016 109.602 141.385 0 256-114.615 256-256 0-98.069-55.153-183.243-136.125-226.237z" fill="#60b7ff"/><circle cx="256" cy="256" fill="#eaf6ff" r="222.915"/><g><path d="m255.932 386.031c-7.941-.004-15.406-3.102-21.017-8.72l-100.257-100.362c-11.585-11.597-11.575-30.456.022-42.041l100.363-100.258c11.597-11.585 30.456-11.575 42.041.022l100.258 100.363c11.585 11.597 11.575 30.456-.022 42.041l-100.363 100.258c-5.616 5.612-13.084 8.701-21.025 8.697zm-86.713-126.283 82.934 83.022c2.098 2.1 5.502 2.102 7.602.004l83.021-82.935c2.1-2.098 2.102-5.502.004-7.602l-82.934-83.021c-2.098-2.1-5.502-2.102-7.602-.004l-83.021 82.934c-2.1 2.098-2.102 5.502-.004 7.602z" fill="#60b7ff"/></g><path d="m408.037 92.999c8.952 26.076 13.822 54.049 13.822 83.162 0 141.385-114.615 256-256 256-18.297 0-36.141-1.935-53.351-5.584 38.776 32.653 88.832 52.338 143.492 52.338 123.113 0 222.915-99.803 222.915-222.915 0-64.346-27.274-122.312-70.878-163.001z" fill="#d8ecfe"/></g></svg>