<svg id="Capa_1" enable-background="new 0 0 512 512" height="512" viewBox="0 0 512 512" width="512" xmlns="http://www.w3.org/2000/svg"><g><circle cx="256" cy="256" fill="#5de1c4" r="256"/><path d="m377.519 30.631c25.459 39.782 40.22 87.068 40.22 137.804 0 141.385-114.615 256-256 256-43.979 0-85.364-11.095-121.519-30.631 45.487 71.079 125.13 118.196 215.78 118.196 141.385 0 256-114.615 256-256 0-97.406-54.404-182.101-134.481-225.369z" fill="#0ed2b3"/><circle cx="256" cy="255.485" fill="#d8f6ef" r="222.915"/><path d="m405.938 90.243c7.911 24.666 12.189 50.958 12.189 78.252 0 141.385-114.615 256-256 256-20.18 0-39.812-2.342-58.645-6.758 39.914 37.643 93.712 60.724 152.906 60.724 123.113 0 222.915-99.803 222.915-222.915.001-65.565-28.308-124.515-73.365-165.303z" fill="#c6f2e7"/><path d="m324.178 366.671h25.361c10.064 0 18.222-8.116 18.222-18.128v-27.555c-12.6 16.964-27.25 32.312-43.583 45.683z" fill="#0ab69f"/><g><path d="m367.761 348.543c0 10.012-8.158 18.128-18.222 18.128l-99.903-.201c-28.172-1.576-54.411-13.536-74.079-33.813-20.196-20.823-31.318-48.229-31.318-77.172 0-61.308 50.136-111.186 111.761-111.186 29.093 0 56.642 11.065 77.571 31.157 20.383 19.567 32.404 45.671 33.988 73.698zm-33.895-96.091c-1.611-41.784-35.814-74.514-77.866-74.514-42.981 0-77.948 34.787-77.948 77.547 0 41.836 32.9 75.863 74.899 77.465l78.517.082c1.369 0 2.48-1.11 2.48-2.48z" fill="#5de1c4"/></g></g></svg>