<svg id="Capa_1" enable-background="new 0 0 512 512" height="512" viewBox="0 0 512 512" width="512" xmlns="http://www.w3.org/2000/svg"><g><circle cx="256" cy="256" fill="#fd9468" r="256"/><path d="m372.267 27.868c28.037 41.062 44.442 90.699 44.442 144.172 0 141.385-114.615 256-256 256-41.863 0-81.378-10.052-116.267-27.868 46.094 67.508 123.646 111.828 211.558 111.828 141.385 0 256-114.615 256-256 0-99.522-56.792-185.776-139.733-228.132z" fill="#fe7d43"/><circle cx="256" cy="256" fill="#ffdcce" r="222.915"/><path d="m402.607 88.087c9.127 26.301 14.101 54.545 14.101 83.953 0 141.385-114.615 256-256 256-18.112 0-35.78-1.893-52.828-5.47 39.38 35.043 91.259 56.345 148.12 56.345 123.113 0 222.915-99.803 222.915-222.915 0-66.978-29.546-127.05-76.308-167.913z" fill="#ffd1be"/><path d="m308.716 307.253c-.004 0-.011 0-.015 0l-52.519.049c-.029 0-.057-.004-.085-.004-.03 0-.059.004-.089.004l-14.129.013c-1.667.002-2.604-1.917-1.578-3.231l80.162-102.678c3.953-5.063 4.666-11.927 1.837-17.689-2.828-5.762-8.704-9.415-15.143-9.415h-32.203c-1.105 0-2-.895-2-2v-21.542c0-9.275-7.547-16.794-16.857-16.794s-16.857 7.519-16.857 16.794v21.543c0 1.105-.895 2-2 2h-33.956c-9.31 0-16.857 7.519-16.857 16.794s7.547 16.794 16.857 16.794h52.791c.007 0 .014.001.022.001.007 0 .014-.001.022-.001h12.473c1.666 0 2.602 1.918 1.576 3.231l-80.19 102.713c-3.955 5.065-4.666 11.932-1.834 17.696 2.83 5.758 8.704 9.408 15.139 9.408h.015l33.939-.031c1.105-.001 2.002.895 2.002 2v18.333c0 9.275 7.547 16.794 16.857 16.794s16.857-7.519 16.857-16.794v-18.368c0-1.104.894-1.999 1.998-2l33.78-.031c9.31-.009 16.85-7.534 16.842-16.809-.008-9.271-7.553-16.78-16.857-16.78z" fill="#fd9468"/></g></svg>