<svg id="Capa_1" enable-background="new 0 0 512 512" height="512" viewBox="0 0 512 512" width="512" xmlns="http://www.w3.org/2000/svg"><g><circle cx="256" cy="256" fill="#8ac9fe" r="256"/><path d="m370.57 27.025c29.703 41.807 47.169 92.916 47.169 148.106 0 141.385-114.615 256-256 256-41.189 0-80.097-9.742-114.57-27.025 46.391 65.294 122.636 107.894 208.831 107.894 141.385 0 256-114.615 256-256 0-100.196-57.571-186.933-141.43-228.975z" fill="#60b7ff"/><circle cx="256" cy="256" fill="#eaf6ff" r="222.915"/><path d="m334.712 306.871-46.262 46.262-92.508-92.507c-.847-.847-.847-2.221 0-3.069l92.508-92.507 46.69 46.69c6.033 6.034 15.818 6.035 21.853 0 6.035-6.034 6.035-15.818 0-21.853l-57.617-57.617c-2.897-2.898-6.828-4.526-10.927-4.526s-8.029 1.628-10.927 4.526l-85.812 85.812c-1.367 1.367-3.704.399-3.704-1.534v-47.184c0-8.321-6.394-15.48-14.706-15.872-8.874-.418-16.2 6.653-16.2 15.435v181.953c0 8.321 6.394 15.48 14.706 15.872 8.874.418 16.2-6.653 16.2-15.435v-49.681c0-1.933 2.337-2.901 3.704-1.534l85.812 85.812c2.897 2.898 6.828 4.526 10.927 4.526s8.029-1.628 10.927-4.526l57.188-57.189c6.035-6.035 6.035-15.819 0-21.853-6.033-6.036-15.818-6.036-21.852-.001z" fill="#60b7ff"/><ellipse cx="287.294" cy="258.703" fill="#60b7ff" rx="21.841" ry="21.762"/><path d="m402.522 88.012c9.842 27.195 15.216 56.528 15.216 87.119 0 141.385-114.615 256-256 256-16.947 0-33.502-1.663-49.528-4.805 38.817 32.803 88.989 52.59 143.79 52.59 123.113 0 222.915-99.803 222.915-222.915 0-67.02-29.581-127.125-76.393-167.989z" fill="#d8ecfe"/></g></svg>