<svg id="Capa_1" enable-background="new 0 0 512 512" height="512" viewBox="0 0 512 512" width="512" xmlns="http://www.w3.org/2000/svg"><g><path d="m353.245 471.046h-194.49l38.664-113.986h117.162z" fill="#c5d3dd"/><path d="m307.552 471.046h45.693l-38.664-113.986h-117.162l-20.968 61.818h58.325c32.928 0 62.198 20.981 72.776 52.168z" fill="#b6c4cf"/><path d="m492.603 398.189h-473.206c-10.713 0-19.397-8.684-19.397-19.397v-358.395c0-10.713 8.684-19.397 19.397-19.397h473.206c10.713 0 19.397 8.684 19.397 19.397v358.395c0 10.713-8.684 19.397-19.397 19.397z" fill="#9facba"/><path d="m492.604 1h-35.204c0 199.445-161.663 361.128-361.085 361.128h-96.315v16.663c0 10.713 8.684 19.398 19.396 19.398h473.209c10.712 0 19.396-8.685 19.396-19.398v-358.393c-.001-10.713-8.685-19.398-19.397-19.398z" fill="#8d9ca8"/><path d="m35.149 321.234v-277.357c0-4.21 3.413-7.623 7.623-7.623h426.456c4.21 0 7.623 3.413 7.623 7.623v277.357c0 4.21-3.413 7.623-7.623 7.623h-426.456c-4.21 0-7.623-3.413-7.623-7.623z" fill="#eaf6ff"/><path d="m469.228 36.253h-13.533c-12.604 130.1-94.227 239.994-207.799 292.604h221.332c4.21 0 7.623-3.413 7.623-7.624v-277.356c0-4.21-3.413-7.624-7.623-7.624z" fill="#d8ecfe"/><path d="m471.346 511h-430.692c-2.376 0-3.809-2.63-2.521-4.626l16.701-25.887c3.797-5.885 10.321-9.44 17.325-9.44h367.692c6.997 0 13.517 3.552 17.31 9.432l16.706 25.895c1.288 1.996-.146 4.626-2.521 4.626z" fill="#9facba"/><ellipse cx="256" cy="361.76" fill="#fff" rx="8.787" ry="8.813"/><g><path d="m379.107 175.731h-45.162l-14.971-23.995 21.935-31.548h38.199c4.267 0 7.726-3.46 7.726-7.727s-3.459-7.727-7.726-7.727h-39.545c-4.214 0-8.166 2.066-10.572 5.526l-18.918 27.209-16.627-26.649c-2.338-3.746-6.516-6.061-10.928-6.061-.038 0-.076 0-.113.001l-54.288.488c-4.267.038-7.695 3.529-7.656 7.796.038 4.244 3.489 7.658 7.724 7.658.024 0 .048 0 .071-.001l52.844-.475 19.373 31.05-19.131 27.516-53.105-.342c-4.234-.049-7.748 3.409-7.776 7.677-.027 4.268 3.409 7.749 7.677 7.777l54.461.351h.084c4.216 0 8.164-2.062 10.572-5.526l16.12-23.186 11.14 17.854-39.396 61.311-53.002.477c-4.267.038-7.695 3.529-7.656 7.796.038 4.244 3.489 7.658 7.724 7.658h.071l54.392-.49c4.355-.039 8.362-2.25 10.718-5.915l40.512-63.049h45.23c4.267 0 7.726-3.46 7.726-7.727-.001-4.267-3.46-7.727-7.727-7.727z" fill="#c4e2ff"/><g fill="#60b7ff"><path d="m226.125 132.011h-131.863c-1.138 0-2.06-.923-2.06-2.06v-33.951c0-1.138.923-2.06 2.06-2.06h131.863c1.138 0 2.06.923 2.06 2.06v33.95c0 1.138-.922 2.061-2.06 2.061z"/><path d="m415.163 132.011h-33.996c-1.138 0-2.06-.923-2.06-2.06v-33.951c0-1.138.923-2.06 2.06-2.06h33.996c1.138 0 2.06.923 2.06 2.06v33.95c0 1.138-.922 2.061-2.06 2.061z"/><path d="m415.163 201.98h-33.996c-1.138 0-2.06-.923-2.06-2.06v-33.95c0-1.138.923-2.06 2.06-2.06h33.996c1.138 0 2.06.923 2.06 2.06v33.95c0 1.137-.922 2.06-2.06 2.06z"/><path d="m226.125 203.009h-131.863c-1.138 0-2.06-.923-2.06-2.06v-33.95c0-1.138.923-2.06 2.06-2.06h131.863c1.138 0 2.06.923 2.06 2.06v33.95c0 1.137-.922 2.06-2.06 2.06z"/><path d="m226.125 271.949h-131.863c-1.138 0-2.06-.923-2.06-2.06v-33.95c0-1.138.923-2.06 2.06-2.06h131.863c1.138 0 2.06.923 2.06 2.06v33.95c0 1.137-.922 2.06-2.06 2.06z"/></g></g></g></svg>