<svg id="Capa_1" enable-background="new 0 0 512 512" height="512" viewBox="0 0 512 512" width="512" xmlns="http://www.w3.org/2000/svg"><g><path d="m339.589 107.304v-.144-.103c0-24.537-18.883-44.486-42.083-44.486h-80.004c-23.21 0-42.083 19.949-42.083 44.486v.103.144zm-204.532 36.153v-36.153-.144-2.726c0-44.425 36.056-80.434 80.54-80.434h83.816c44.473 0 80.54 36.009 80.54 80.434v2.726.144 36.153l-101.689 33.601h-13.846-13.588-13.846z" fill="#8d9ca8"/><path d="m492.967 488h-473.934c-10.512 0-19.033-8.521-19.033-19.033v-342.775c0-10.512 8.521-19.033 19.033-19.033h473.934c10.512 0 19.033 8.521 19.033 19.033v342.775c0 10.512-8.521 19.033-19.033 19.033z" fill="#8ac9fe"/><path d="m492.954 107.158h-105.606c0 141.58-114.925 256.353-256.691 256.353h-130.657v105.467c0 10.506 8.527 19.022 19.046 19.022h473.908c10.519 0 19.046-8.516 19.046-19.021v-342.8c0-10.505-8.527-19.021-19.046-19.021z" fill="#60b7ff"/><path d="m164.206 434.354h-41.5c-1.137 0-2.059-.922-2.059-2.059v-148.56h45.618v148.56c0 1.137-.922 2.059-2.059 2.059z" fill="#fee45a"/><path d="m392.295 434.354h-41.5c-1.137 0-2.059-.922-2.059-2.059v-148.56h45.618v148.56c0 1.137-.922 2.059-2.059 2.059z" fill="#fee45a"/><path d="m446.897 326.945-168.708 68.179c-10.74 4.34-24.045 4.393-34.856.137l-173.684-68.361c-10.787-4.246-17.44-12.129-17.44-20.666v-198.932h411.783v199.115c.001 8.438-6.503 16.247-17.095 20.528z" fill="#b3dafe"/><path d="m158.765 361.976 84.567 33.285c10.812 4.255 24.117 4.203 34.857-.137l168.708-68.179c10.593-4.281 17.096-12.09 17.096-20.528v-199.115h-76.646c-.073 132.027-100.088 240.695-228.582 254.674z" fill="#8ac9fe"/><path d="m260.589 362.261c-1.523 0-3.059-.247-4.109-.66l-166.356-65.477c-1.147-.452-1.901-1.559-1.901-2.792v-146.875c0-1.657 1.343-3 3-3h333.756c1.657 0 3 1.343 3 3v147.134c0 1.223-.742 2.323-1.876 2.781l-161.362 65.211c-.392.16-1.854.678-4.152.678z" fill="#c4e2ff"/><path d="m220.369 347.388 36.11 14.213c1.051.413 2.586.66 4.109.66 2.299 0 3.761-.518 4.152-.677l161.362-65.211c1.134-.458 1.876-1.559 1.876-2.781v-147.135c0-1.657-1.343-3-3-3h-40.19c-13.349 94.054-77.817 171.665-164.419 203.931z" fill="#b3dafe"/><path d="m295.862 241.371c4.769-5.64 7.651-12.92 7.651-20.862v-.13c0-15.108-10.413-27.83-24.447-31.391v-8.518c0-4.261-3.459-7.716-7.726-7.716-4.268 0-7.726 3.455-7.726 7.716v7.523h-11.98v-7.523c0-4.261-3.459-7.716-7.726-7.716s-7.726 3.455-7.726 7.716v7.523h-4.599-1.2-14.511c-4.268 0-7.726 3.455-7.726 7.716s3.459 7.716 7.726 7.716h6.785v41.753 41.753h-6.785c-4.268 0-7.726 3.454-7.726 7.716s3.459 7.716 7.726 7.716h14.511 1.2 4.599v7.522c0 4.262 3.459 7.716 7.726 7.716s7.726-3.454 7.726-7.716v-7.522h11.98v7.522c0 4.262 3.459 7.716 7.726 7.716 4.268 0 7.726-3.454 7.726-7.716v-7.522h1.363c17.881 0 32.429-14.529 32.429-32.387v-.13c0-12.28-6.882-22.987-16.996-28.475zm-7.802-20.992v.13c0 9.348-7.616 16.954-16.976 16.954h-32.976v-34.037h32.976c9.361-.001 16.976 7.605 16.976 16.953zm9.345 49.599c0 9.349-7.616 16.955-16.976 16.955h-42.321v-34.037h32.976 9.345c9.36 0 16.976 7.605 16.976 16.953z" fill="#fe7d43"/></g></svg>