<svg id="Capa_1" enable-background="new 0 0 512 512" height="512" viewBox="0 0 512 512" width="512" xmlns="http://www.w3.org/2000/svg"><g><g><path d="m355.598 136.465c-4.275 0-7.741-3.459-7.741-7.726v-82.578c0-4.268 3.466-7.726 7.741-7.726s7.741 3.459 7.741 7.726v82.577c-.001 4.268-3.466 7.727-7.741 7.727z" fill="#d9e7ec"/></g><g><path d="m402.068 149.631c-4.275 0-7.741-3.459-7.741-7.726v-59.961c0-10.286 8.382-18.653 18.686-18.653h37.211c4.275 0 7.741 3.459 7.741 7.726 0 4.268-3.466 7.726-7.741 7.726h-37.211c-1.766 0-3.204 1.436-3.204 3.2v59.961c0 4.268-3.466 7.727-7.741 7.727z" fill="#d9e7ec"/></g><g><path d="m400.974 479.589h-37.211c-10.303 0-18.686-8.367-18.686-18.652v-56.286c0-4.268 3.466-7.726 7.741-7.726s7.741 3.459 7.741 7.726v56.286c0 1.764 1.437 3.199 3.204 3.199h37.211c4.275 0 7.741 3.459 7.741 7.726s-3.466 7.727-7.741 7.727z" fill="#d9e7ec"/></g><g><path d="m141.304 479.589h-37.211c-4.275 0-7.741-3.459-7.741-7.726s3.466-7.726 7.741-7.726h37.211c1.766 0 3.204-1.436 3.204-3.199v-60.304c0-4.268 3.466-7.726 7.741-7.726s7.741 3.459 7.741 7.726v60.304c0 10.283-8.383 18.651-18.686 18.651z" fill="#d9e7ec"/></g><g><path d="m156.407 133.417c-4.275 0-7.741-3.459-7.741-7.726v-79.53c0-4.268 3.466-7.726 7.741-7.726s7.741 3.459 7.741 7.726v79.529c0 4.268-3.465 7.727-7.741 7.727z" fill="#d9e7ec"/></g><g><path d="m109.937 147.609c-4.275 0-7.741-3.459-7.741-7.726v-57.939c0-1.765-1.437-3.2-3.204-3.2h-37.211c-4.275 0-7.741-3.459-7.741-7.726 0-4.268 3.466-7.726 7.741-7.726h37.212c10.303 0 18.686 8.367 18.686 18.653v57.939c-.001 4.266-3.466 7.725-7.742 7.725z" fill="#d9e7ec"/></g><path d="m241.736 508.789c-107.898-77.549-179.471-202.341-184.303-344.01-.291-8.537 5.85-15.948 14.306-17.254 62.12-9.596 119.988-32.066 170.759-64.603 5.618-3.6 12.79-3.6 18.409 0 50.77 32.537 108.627 55.006 170.745 64.603 8.456 1.306 14.598 8.718 14.306 17.256-4.843 141.669-76.415 266.46-184.314 344.01-5.956 4.279-13.952 4.279-19.908-.002z" fill="#c5d3dd"/><path d="m431.652 147.524c-21.065-3.254-41.638-7.993-61.613-14.099-8.271 135.746-77.863 254.979-181.47 330.441 16.502 16.312 34.276 31.344 53.168 44.923 5.956 4.281 13.952 4.281 19.908 0 107.898-77.549 179.471-202.34 184.314-344.01.29-8.537-5.851-15.949-14.307-17.255z" fill="#b6c4cf"/><path d="m251.69 470.449c-44.371-34.359-81.711-78.072-108.505-127.162-27.633-50.626-43.784-105.25-48.108-162.603 55.558-10.697 108.122-30.926 156.625-60.283 48.503 29.357 101.057 49.583 156.611 60.282-4.329 57.357-20.482 111.976-48.116 162.604-26.796 49.092-64.137 92.803-108.507 127.162z" fill="#e8edf2"/><path d="m360.197 343.287c27.634-50.628 43.787-105.247 48.116-162.604-14.242-2.743-28.284-6.122-42.115-10.11-15.706 107.465-70.112 202.403-148.638 270.265 10.827 10.491 22.222 20.391 34.129 29.612 44.371-34.36 81.712-78.071 108.508-127.163z" fill="#d9e7ec"/><path d="m296.549 267.526c7.092-7.222 11.477-17.114 11.477-28.032 0-19.353-13.859-35.532-32.19-39.181v-12.929c0-4.268-3.466-7.726-7.741-7.726s-7.741 3.459-7.741 7.726v12.154h-20.64v-12.154c0-4.268-3.466-7.726-7.741-7.726s-7.741 3.459-7.741 7.726v12.154h-8.488-1.581-19.106c-4.275 0-7.741 3.459-7.741 7.726s3.466 7.726 7.741 7.726h11.365v56.808 56.808h-11.365c-4.275 0-7.741 3.459-7.741 7.726s3.466 7.726 7.741 7.726h19.106 1.581 8.488v12.154c0 4.268 3.466 7.726 7.741 7.726s7.741-3.459 7.741-7.726v-12.154h20.64v12.154c0 4.268 3.466 7.726 7.741 7.726s7.741-3.459 7.741-7.726v-12.154h4.464c22.074 0 40.031-17.925 40.031-40.031.001-16.257-9.785-30.269-23.782-36.501zm-4.005-27.957c0 13.511-11.013 24.503-24.55 24.503h-46.09v-49.081h46.09c13.537 0 24.55 10.992 24.55 24.578zm-12.244 89.038h-58.395v-49.081h46.09 12.305c13.536 0 24.55 10.992 24.55 24.578 0 13.511-11.013 24.503-24.55 24.503z" fill="#fd9468"/><g fill="#0ed2b3"><ellipse cx="355.595" cy="23.08" rx="23.204" ry="23.08"/><ellipse cx="473.796" cy="71.153" rx="23.204" ry="23.08"/><ellipse cx="424.546" cy="471.727" rx="23.204" ry="23.08"/><ellipse cx="80.52" cy="471.727" rx="23.204" ry="23.08"/><ellipse cx="156.405" cy="23.08" rx="23.204" ry="23.08"/><ellipse cx="38.204" cy="71.153" rx="23.204" ry="23.08"/></g></g></svg>