<svg id="Capa_1" enable-background="new 0 0 512 512" height="512" viewBox="0 0 512 512" width="512" xmlns="http://www.w3.org/2000/svg"><g><g><path d="m492.573 308.021h-229.842v-39.394c0-6.242 5.06-11.302 11.302-11.302h207.239c6.242 0 11.302 5.06 11.302 11.302v39.394z" fill="#fac600"/><path d="m262.731 308.021h229.843v50.696h-229.843z" fill="#fee45a"/><path d="m262.731 358.717h229.843v50.696h-229.843z" fill="#fac600"/><path d="m262.731 409.413h229.843v50.696h-229.843z" fill="#fee45a"/><path d="m481.271 510.806h-207.238c-6.242 0-11.302-5.06-11.302-11.302v-39.394h229.843v39.394c-.001 6.242-5.061 11.302-11.303 11.302z" fill="#fac600"/><g><ellipse cx="377.652" cy="133.478" fill="#fd9468" rx="123.34" ry="122.191"/><path d="m409.579 15.43c16.251 20.697 25.934 46.705 25.934 74.957 0 67.484-55.221 122.191-123.34 122.191-11.042 0-21.743-1.446-31.927-4.142 22.567 28.74 57.805 47.233 97.406 47.233 68.119 0 123.34-54.707 123.34-122.191 0-56.544-38.772-104.11-91.413-118.048z" fill="#fe7d43"/><ellipse cx="377.652" cy="133.478" fill="#fee45a" rx="91.841" ry="90.974"/><path d="m431.652 59.94c2.52 9.734 3.861 19.935 3.861 30.447 0 61.448-45.787 112.296-105.405 120.901 13.877 8.351 30.154 13.164 47.544 13.164 50.641 0 91.841-40.811 91.841-90.974 0-30.186-14.923-56.98-37.841-73.538z" fill="#fed230"/><path d="m410.918 129.131c4.002-5.074 6.4-11.466 6.4-18.412 0-13.769-9.397-25.382-22.122-28.793v-6.9c0-4.268-3.463-7.726-7.737-7.726-4.273 0-7.737 3.459-7.737 7.726v5.88h-9.349v-5.88c0-4.268-3.463-7.726-7.737-7.726-4.273 0-7.737 3.459-7.737 7.726v5.88h-3.416-1.086-13.13c-4.273 0-7.737 3.459-7.737 7.726s3.463 7.726 7.737 7.726h5.394v36.447 36.446h-5.394c-4.273 0-7.737 3.459-7.737 7.726 0 4.268 3.463 7.726 7.737 7.726h13.13 1.086 3.416v5.88c0 4.268 3.463 7.726 7.737 7.726 4.273 0 7.737-3.459 7.737-7.726v-5.88h9.349v5.88c0 4.268 3.463 7.726 7.737 7.726 4.273 0 7.737-3.459 7.737-7.726v-5.88h.724c16.461 0 29.853-13.374 29.853-29.813.001-10.98-5.98-20.586-14.855-25.759zm-9.074-18.412c0 7.919-6.45 14.36-14.38 14.36h-29.329v-28.72h29.329c7.929 0 14.38 6.442 14.38 14.36zm-5.924 58.533h-37.786v-28.719h29.329 8.456c7.929 0 14.38 6.442 14.38 14.359.001 7.918-6.45 14.36-14.379 14.36z" fill="#fd9468"/></g><path d="m183.594 479.242h-157.087v-19.27c0-43.101 78.543-88.64 78.543-88.64s78.543 45.539 78.543 88.64v19.27z" fill="#eaf6ff"/><path d="m198.006 479.242c1.158 0 2.078.982 2.004 2.137-1.101 17.096-15.316 30.621-32.69 30.621h-123.569c-17.374 0-31.589-13.525-32.69-30.621-.074-1.155.846-2.137 2.004-2.137z" fill="#8ac9fe"/><path d="m183.594 263.421h-157.087v19.27c0 43.101 78.543 88.64 78.543 88.64s78.543-45.539 78.543-88.64v-19.27z" fill="#eaf6ff"/><path d="m198.006 263.421c1.158 0 2.078-.982 2.004-2.137-1.101-17.096-15.316-30.621-32.69-30.621h-123.569c-17.374 0-31.589 13.525-32.69 30.621-.074 1.155.846 2.137 2.004 2.137z" fill="#8ac9fe"/><path d="m33.47 137.041 53.719 47.526c6.04 5.347 15.546 5.347 21.585 0l53.719-47.526c6.695-5.922 7.289-16.116 1.328-22.767-5.96-6.653-16.22-7.243-22.914-1.32l-26.696 23.618v-120.446c.001-8.906-7.266-16.126-16.229-16.126s-16.23 7.22-16.23 16.126v120.446l-26.696-23.618c-3.093-2.737-6.947-4.083-10.787-4.083-4.47 0-8.921 1.824-12.126 5.402-5.962 6.652-5.368 16.846 1.327 22.768z" fill="#fd8087"/><path d="m105.05 371.331s-8.192 4.752-19.279 12.63c17.822 11.274 73.064 49.132 73.064 85.282v9.998h24.758v-19.27c.001-43.101-78.543-88.64-78.543-88.64z" fill="#d8ecfe"/><path d="m11.061 481.369c.16 2.466.597 4.856 1.272 7.144h148.791c12.047 0 18.289 14.603 9.777 23.127-.06.06-.12.119-.18.179 15.8-1.647 28.264-14.493 29.289-30.449.074-1.152-.849-2.128-2.003-2.128h-184.943c-1.154-.001-2.078.975-2.003 2.127z" fill="#60b7ff"/><path d="m155.741 263.421h-129.234v14.213h103.592c14.135 0 22.345 15.82 14.344 27.457-16.139 23.474-45.387 44.065-59.375 53.11 11.444 8.179 19.982 13.131 19.982 13.131s78.543-45.539 78.543-88.64v-5.057-14.213h-27.852z" fill="#d8ecfe"/></g><path d="m11.012 261.294c.16-2.466.597-4.856 1.272-7.144h148.791c12.047 0 18.289-14.603 9.777-23.127-.06-.06-.12-.119-.18-.179 15.8 1.647 28.264 14.493 29.289 30.449.074 1.152-.849 2.128-2.003 2.128h-184.943c-1.154 0-2.078-.976-2.003-2.127z" fill="#60b7ff"/></g></svg>