<svg id="Capa_1" enable-background="new 0 0 512 512" height="512" viewBox="0 0 512 512" width="512" xmlns="http://www.w3.org/2000/svg"><g><path d="m331.017 171.025v-32.269-27.386c0-43.617-31.273-74.799-75.017-74.799s-75.017 31.183-75.017 74.799v27.386 32.269h-36.678v-32.269-27.386c0-61.504 50.012-111.37 111.695-111.37 30.842 0 58.771 12.467 78.976 32.624 20.216 20.147 32.719 47.995 32.719 78.747v27.386 32.269h-36.678z" fill="#8d9ca8"/><path d="m465.785 512h-419.57c-8.955 0-16.215-7.26-16.215-16.215v-340.814c0-8.955 7.26-16.215 16.215-16.215h419.57c8.955 0 16.215 7.26 16.215 16.215v340.814c0 8.955-7.26 16.215-16.215 16.215z" fill="#60b7ff"/><path d="m465.79 138.756h-51.744v300.364c0 8.958-7.258 16.219-16.21 16.219h-367.836v40.441c0 8.958 7.258 16.22 16.21 16.22h419.58c8.953 0 16.21-7.262 16.21-16.219v-340.805c0-8.958-7.258-16.22-16.21-16.22z" fill="#26a6fe"/><path d="m62.363 468.791v-286.826c0-6.042 4.898-10.94 10.94-10.94h365.395c6.042 0 10.94 4.898 10.94 10.94v286.826c0 6.042-4.898 10.94-10.94 10.94h-365.395c-6.042 0-10.94-4.898-10.94-10.94z" fill="#c4e2ff"/><path d="m438.7 171.025h-24.655c0 157.023-127.222 284.315-284.158 284.315h-67.524v13.448c0 6.044 4.897 10.943 10.937 10.943h365.4c6.04 0 10.937-4.899 10.937-10.943v-286.82c0-6.044-4.896-10.943-10.937-10.943z" fill="#b3dafe"/><g><ellipse cx="256" cy="323.49" fill="#fd9468" rx="117.35" ry="116.664"/><path d="m304.264 217.119c11.791 18.192 18.635 39.853 18.635 63.104 0 64.432-52.539 116.664-117.35 116.664-17.204 0-33.543-3.681-48.264-10.293 20.884 32.222 57.292 53.561 98.715 53.561 64.811 0 117.35-52.232 117.35-116.664 0-47.329-28.348-88.075-69.086-106.372z" fill="#fe7d43"/><ellipse cx="256" cy="323.49" fill="#fee45a" rx="87.381" ry="86.859"/><path d="m322.122 266.803c.507 4.404.777 8.88.777 13.42 0 63.197-50.546 114.651-113.638 116.601 13.528 8.55 29.556 13.526 46.739 13.526 48.182 0 87.38-38.965 87.38-86.86 0-21.651-8.028-41.46-21.258-56.687z" fill="#fed230"/><path d="m288.172 319.243c3.714-4.852 5.928-10.912 5.928-17.483 0-13.201-8.922-24.349-21.047-27.745v-6.333c0-4.268-3.457-7.726-7.722-7.726s-7.722 3.459-7.722 7.726v5.265h-8.174v-5.265c0-4.268-3.457-7.726-7.722-7.726s-7.722 3.459-7.722 7.726v5.265h-2.889-1.034-12.492c-4.265 0-7.722 3.459-7.722 7.726s3.457 7.726 7.722 7.726h4.77v34.449 34.448h-4.77c-4.265 0-7.722 3.459-7.722 7.726s3.457 7.726 7.722 7.726h12.492 1.034 2.889v5.266c0 4.268 3.457 7.726 7.722 7.726s7.722-3.459 7.722-7.726v-5.266h8.174v5.266c0 4.268 3.457 7.726 7.722 7.726s7.722-3.459 7.722-7.726v-5.266h.295c15.88 0 28.798-12.926 28.798-28.813 0-10.466-5.608-19.645-13.974-24.692zm-9.516-17.482c0 7.367-5.99 13.361-13.353 13.361h-27.512v-26.722h27.512c7.363-.001 13.353 5.993 13.353 13.361zm-5.308 55.535h-35.557v-26.721h27.512 8.045c7.363 0 13.354 5.994 13.354 13.361-.001 7.367-5.991 13.36-13.354 13.36z" fill="#fd9468"/></g></g></svg>