<svg id="Capa_1" enable-background="new 0 0 512 512" height="512" viewBox="0 0 512 512" width="512" xmlns="http://www.w3.org/2000/svg"><g><g><path d="m473.721 249.715h-74.969c-4.27 0-7.731-3.459-7.731-7.726s3.461-7.726 7.731-7.726h74.969c4.27 0 7.731 3.459 7.731 7.726s-3.46 7.726-7.731 7.726z" fill="#d9e7ec"/></g><g><path d="m398.753 201.981c-4.266 0-7.727-3.454-7.731-7.718-.004-4.268 3.454-7.73 7.723-7.734l52.012-.052c1.548 0 2.801-1.26 2.801-2.809v-20.501c0-4.268 3.461-7.726 7.731-7.726s7.731 3.459 7.731 7.726v20.501c0 10.069-8.189 18.262-18.255 18.262l-52.004.052c-.003-.001-.006-.001-.008-.001z" fill="#d9e7ec"/></g><g><path d="m461.289 328.205c-4.27 0-7.731-3.453-7.731-7.72v-20.501c0-1.546-1.259-2.806-2.807-2.809l-52.008-.063c-4.27-.005-7.727-3.469-7.722-7.735.005-4.265 3.466-7.717 7.731-7.717h.009l52.012.063c10.063.017 18.246 8.209 18.246 18.262v20.49c.001 4.266-3.459 7.73-7.73 7.73z" fill="#d9e7ec"/></g><g><path d="m114.301 249.715h-76.022c-4.27 0-7.731-3.459-7.731-7.726s3.461-7.726 7.731-7.726h76.023c4.27 0 7.731 3.459 7.731 7.726s-3.462 7.726-7.732 7.726z" fill="#d9e7ec"/></g><g><path d="m114.301 201.981c-.002 0-.005 0-.008 0l-53.066-.052c-10.058 0-18.247-8.192-18.247-18.262v-20.501c0-4.268 3.461-7.726 7.731-7.726s7.731 3.459 7.731 7.726v20.501c0 1.549 1.253 2.809 2.793 2.809l53.074.052c4.269.004 7.727 3.467 7.723 7.734-.004 4.265-3.465 7.719-7.731 7.719z" fill="#d9e7ec"/></g><g><path d="m50.711 328.205c-4.27 0-7.731-3.453-7.731-7.72v-20.501c0-10.052 8.183-18.244 18.242-18.262l53.07-.063h.009c4.266 0 7.726 3.453 7.731 7.717.005 4.267-3.452 7.73-7.722 7.735l-53.066.063c-1.543.003-2.802 1.263-2.802 2.809v20.49c0 4.268-3.461 7.732-7.731 7.732z" fill="#d9e7ec"/></g><path d="m371.952 512h-230.85c-14.802 0-26.801-11.999-26.801-26.801v-458.398c0-14.802 11.999-26.801 26.801-26.801h230.85c14.802 0 26.801 11.999 26.801 26.801v458.398c-.001 14.802-12 26.801-26.801 26.801z" fill="#9facba"/><path d="m371.943 0h-31.947v428.547c0 14.797-12.003 26.793-26.809 26.793h-198.886v29.867c0 14.797 12.003 26.793 26.809 26.793h230.833c14.806 0 26.809-11.995 26.809-26.793v-458.414c0-14.798-12.002-26.793-26.809-26.793z" fill="#8d9ca8"/><ellipse cx="490.362" cy="241.943" fill="#0ed2b3" rx="16.638" ry="16.676"/><ellipse cx="460.888" cy="146.498" fill="#0ed2b3" rx="16.638" ry="16.676"/><path d="m314.471 34.452c0 9.482-7.692 17.169-17.18 17.169h-82.582c-9.488 0-17.18-7.687-17.18-17.169 0-1.572-1.275-2.847-2.849-2.847h-45.925c-1.573 0-2.849 1.275-2.849 2.847v443.096c0 1.572 1.276 2.847 2.849 2.847h215.542c1.573 0 2.849-1.275 2.849-2.847v-443.096c0-1.572-1.276-2.847-2.849-2.847h-46.978c-1.573 0-2.848 1.275-2.848 2.847z" fill="#d9e7ec"/><path d="m364.298 31.605h-24.301v229.762c0 107.128-86.897 193.973-194.09 193.973v22.208c0 1.573 1.276 2.847 2.849 2.847h215.542c1.574 0 2.849-1.275 2.849-2.848v-443.095c0-1.572-1.276-2.847-2.849-2.847z" fill="#c5d3dd"/><path d="m294.083 242.271c5.477-6.146 8.814-14.237 8.814-23.095v-.158c0-13.804-8.092-25.753-19.784-31.363v-12.388c0-4.268-3.461-7.726-7.731-7.726s-7.731 3.459-7.731 7.726v8.983h-21.566v-8.983c0-4.268-3.461-7.726-7.731-7.726s-7.731 3.459-7.731 7.726v8.983h-5.765-1.315-15.89c-4.27 0-7.731 3.459-7.731 7.726 0 4.268 3.461 7.726 7.731 7.726h8.159v46.516 46.515h-8.159c-4.27 0-7.731 3.459-7.731 7.726s3.461 7.726 7.731 7.726h15.89 1.315 5.765v8.983c0 4.268 3.461 7.726 7.731 7.726s7.731-3.459 7.731-7.726v-8.983h21.566v8.983c0 4.268 3.461 7.726 7.731 7.726s7.731-3.459 7.731-7.726v-9.318c16.932-2.333 30.017-16.88 30.017-34.432v-.158c.001-13.51-7.755-25.237-19.047-30.989zm-6.648-23.095c0 10.651-8.67 19.316-19.328 19.316h-36.833v-38.79h36.833c10.657 0 19.328 8.665 19.328 19.316zm10.234 54.243c0 10.65-8.67 19.315-19.328 19.315h-47.067v-38.789h36.833 10.234c10.657 0 19.328 8.665 19.328 19.316z" fill="#fe7d43"/><g fill="#0ed2b3"><ellipse cx="460.888" cy="337.146" rx="16.638" ry="16.676"/><ellipse cx="21.638" cy="241.943" rx="16.638" ry="16.676"/><ellipse cx="51.112" cy="146.498" rx="16.638" ry="16.676"/><ellipse cx="51.112" cy="337.146" rx="16.638" ry="16.676"/></g></g></svg>