<svg id="Capa_1" enable-background="new 0 0 512 512" height="512" viewBox="0 0 512 512" width="512" xmlns="http://www.w3.org/2000/svg"><g><path d="m256 155.15c-55.87 0-101.161 45.291-101.161 101.161s45.291 101.162 101.161 101.162 101.161-45.292 101.161-101.161-45.291-101.162-101.161-101.162zm0 171.355c-38.705 0-70.194-31.489-70.194-70.194s31.489-70.194 70.194-70.194 70.194 31.489 70.194 70.194-31.489 70.194-70.194 70.194z" fill="#fd8087"/><g fill="#d9e7ec"><path d="m227.925 104.079 22.595 18.216c2.761 2.394 7.206 2.385 9.957-.027l21.669-18.301c3.26-2.753 3.671-7.628.918-10.887-2.754-3.262-7.627-3.671-10.888-.918l-8.966 7.572v-54.924c0-4.268-3.459-7.726-7.726-7.726s-7.726 3.459-7.726 7.726v55.409l-10.134-8.17c-3.321-2.679-8.186-2.157-10.864 1.166-2.679 3.322-2.157 8.186 1.165 10.864z"/><path d="m347.389 160.214c1.137 2.457 3.637 4.175 6.329 4.388l28.274 2.382c.221.018.44.027.657.027 3.973 0 7.351-3.046 7.691-7.077.358-4.253-2.798-7.99-7.05-8.348l-11.693-.985 38.836-38.836c3.018-3.018 3.018-7.909 0-10.928-3.017-3.016-7.909-3.016-10.927 0l-39.18 39.18-1.389-12.943c-.455-4.242-4.262-7.311-8.507-6.857-4.243.455-7.313 4.264-6.858 8.506l3.098 28.868c.08.902.323 1.789.719 2.623z"/><path d="m467.19 247.758h-55.409l8.17-10.134c2.678-3.322 2.156-8.186-1.166-10.864s-8.186-2.155-10.864 1.166l-18.22 22.6c-2.388 2.759-2.379 7.193.024 9.943l18.308 21.677c1.529 1.81 3.71 2.741 5.907 2.741 1.761 0 3.531-.599 4.981-1.824 3.26-2.753 3.671-7.628.918-10.887l-7.572-8.966h54.923c4.267 0 7.726-3.459 7.726-7.726 0-4.268-3.459-7.726-7.726-7.726z"/><path d="m371.982 360.325 12.942-1.389c4.243-.455 7.313-4.264 6.858-8.506-.455-4.243-4.273-7.319-8.506-6.858l-28.876 3.098c-3.644.273-6.751 3.403-7.004 7.047l-2.383 28.275c-.358 4.253 2.798 7.99 7.05 8.348.221.018.44.027.657.027 3.973 0 7.351-3.046 7.691-7.077l.985-11.695 38.837 38.838c1.509 1.508 3.486 2.263 5.463 2.263s3.955-.755 5.463-2.263c3.018-3.018 3.018-7.909 0-10.928z"/><path d="m284.075 407.921-22.595-18.216c-2.761-2.395-7.206-2.385-9.957.027l-21.669 18.301c-3.26 2.753-3.671 7.628-.918 10.887 2.754 3.261 7.628 3.672 10.888.918l8.966-7.572v54.924c0 4.268 3.459 7.726 7.726 7.726s7.726-3.459 7.726-7.726v-55.409l10.134 8.17c1.429 1.152 3.142 1.711 4.845 1.711 2.256 0 4.493-.984 6.02-2.877 2.678-3.322 2.156-8.186-1.166-10.864z"/><path d="m165.33 354.409c-.268-3.643-3.402-6.759-7.048-7.012l-28.274-2.382c-4.259-.342-7.989 2.799-8.348 7.05-.358 4.253 2.798 7.99 7.05 8.348l11.693.985-38.836 38.836c-3.018 3.018-3.018 7.909 0 10.928 1.509 1.508 3.486 2.263 5.463 2.263s3.955-.755 5.463-2.263l39.18-39.18 1.389 12.943c.425 3.963 3.775 6.902 7.673 6.902.275 0 .554-.015.834-.045 4.243-.455 7.313-4.264 6.858-8.506z"/><path d="m104.079 284.074 18.22-22.6c2.388-2.759 2.379-7.193-.024-9.943l-18.308-21.677c-2.754-3.261-7.628-3.671-10.888-.918s-3.671 7.628-.918 10.887l7.572 8.966h-54.923c-4.267 0-7.726 3.459-7.726 7.726 0 4.268 3.459 7.726 7.726 7.726h55.409l-8.17 10.134c-2.678 3.322-2.156 8.186 1.166 10.864 1.429 1.152 3.142 1.711 4.844 1.711 2.257.002 4.494-.982 6.02-2.876z"/><path d="m140.018 151.675-12.942 1.389c-4.243.455-7.313 4.264-6.858 8.506.425 3.963 3.775 6.903 7.673 6.903.276 0 .554-.015.834-.045l28.868-3.097c3.646-.267 6.758-3.403 7.011-7.048l2.383-28.275c.358-4.253-2.798-7.99-7.05-8.348-4.26-.352-7.989 2.799-8.348 7.05l-.985 11.695-38.837-38.838c-3.017-3.016-7.909-3.016-10.927 0-3.018 3.018-3.018 7.909 0 10.928z"/></g><g fill="#0ed2b3"><circle cx="256" cy="22.408" r="22.408"/><circle cx="421.174" cy="90.826" r="22.408"/><circle cx="489.592" cy="256" r="22.408"/><circle cx="421.174" cy="421.174" r="22.408"/><circle cx="256" cy="489.592" r="22.408"/><circle cx="90.826" cy="421.174" r="22.408"/><circle cx="22.408" cy="256" r="22.408"/><circle cx="90.826" cy="90.826" r="22.408"/></g><g><path d="m324.273 181.959c9.105 15.165 14.345 32.916 14.345 51.892 0 55.758-45.2 100.958-100.958 100.958-26.228 0-50.119-10.004-68.069-26.401 17.649 29.394 49.831 49.065 86.613 49.065 55.757 0 100.958-45.2 100.958-100.958-.001-29.529-12.68-56.095-32.889-74.556z" fill="#fe646f"/></g></g></svg>