<svg id="Capa_1" enable-background="new 0 0 512 512" height="512" viewBox="0 0 512 512" width="512" xmlns="http://www.w3.org/2000/svg"><g><path d="m203.671 212.771h-194.091c-5.026 0-9.101-4.075-9.101-9.101v-194.09c0-5.026 4.075-9.101 9.101-9.101h194.091c5.026 0 9.101 4.075 9.101 9.101v194.091c-.001 5.026-4.075 9.1-9.101 9.1z" fill="#9facba"/><path d="m203.671.479h-47.559v146.531c0 5.026-4.074 9.101-9.101 9.101h-146.532v47.559c0 5.026 4.074 9.101 9.101 9.101h194.091c5.026 0 9.101-4.075 9.101-9.101v-194.09c-.001-5.026-4.075-9.101-9.101-9.101z" fill="#8d9ca8"/><path d="m31.385 176.715v-140.18c0-2.845 2.306-5.151 5.151-5.151h140.18c2.845 0 5.151 2.306 5.151 5.151v140.18c0 2.845-2.306 5.151-5.151 5.151h-140.18c-2.845 0-5.151-2.306-5.151-5.151z" fill="#d9e7ec"/><path d="m176.715 31.384h-20.604v.001c0 68.885-55.842 124.726-124.726 124.726v20.604c0 2.845 2.306 5.151 5.151 5.151h140.18c2.845 0 5.151-2.306 5.151-5.151v-140.18c-.001-2.845-2.307-5.151-5.152-5.151z" fill="#c5d3dd"/><path d="m502.899 212.292h-194.09c-5.026 0-9.101-4.075-9.101-9.101v-194.09c0-5.026 4.075-9.101 9.101-9.101h194.091c5.025 0 9.1 4.075 9.1 9.101v194.091c0 5.026-4.075 9.1-9.101 9.1z" fill="#9facba"/><path d="m502.899 0h-45.499v146.531c0 5.026-4.074 9.101-9.101 9.101h-148.591v47.559c0 5.026 4.075 9.101 9.101 9.101h194.091c5.026 0 9.101-4.075 9.101-9.101v-194.09c-.001-5.027-4.075-9.101-9.102-9.101z" fill="#8d9ca8"/><path d="m330.613 176.236v-140.18c0-2.845 2.306-5.151 5.151-5.151h140.18c2.845 0 5.151 2.306 5.151 5.151v140.18c0 2.845-2.306 5.151-5.151 5.151h-140.18c-2.844 0-5.151-2.306-5.151-5.151z" fill="#d9e7ec"/><path d="m475.944 30.905h-18.544c0 68.885-55.842 124.727-124.727 124.727h-2.06v20.604c0 2.845 2.306 5.151 5.151 5.151h140.18c2.845 0 5.151-2.306 5.151-5.151v-140.18c0-2.845-2.306-5.151-5.151-5.151z" fill="#c5d3dd"/><path d="m502.899 512h-194.09c-5.026 0-9.101-4.075-9.101-9.101v-194.09c0-5.026 4.075-9.101 9.101-9.101h194.091c5.026 0 9.101 4.075 9.101 9.101v194.091c-.001 5.025-4.076 9.1-9.102 9.1z" fill="#9facba"/><path d="m502.899 299.708h-47.559v146.531c0 5.026-4.074 9.101-9.101 9.101h-146.531v47.559c0 5.026 4.075 9.101 9.101 9.101h194.091c5.026 0 9.101-4.074 9.101-9.101v-194.09c-.001-5.027-4.075-9.101-9.102-9.101z" fill="#8d9ca8"/><path d="m330.613 475.944v-140.18c0-2.845 2.306-5.151 5.151-5.151h140.18c2.845 0 5.151 2.306 5.151 5.151v140.18c0 2.845-2.306 5.151-5.151 5.151h-140.18c-2.844 0-5.151-2.306-5.151-5.151z" fill="#d9e7ec"/><path d="m475.944 330.613h-20.604v.001c0 68.885-55.842 124.726-124.726 124.726v20.604c0 2.845 2.306 5.151 5.151 5.151h140.18c2.845 0 5.151-2.306 5.151-5.151v-140.18c-.001-2.845-2.307-5.151-5.152-5.151z" fill="#c5d3dd"/><path d="m203.191 512h-194.09c-5.026 0-9.101-4.075-9.101-9.101v-194.09c0-5.026 4.075-9.101 9.101-9.101h194.091c5.026 0 9.101 4.075 9.101 9.101v194.091c-.001 5.025-4.075 9.1-9.102 9.1z" fill="#9facba"/><path d="m203.191 299.708h-49.619v146.531c0 5.026-4.075 9.101-9.101 9.101h-144.471v47.559c0 5.027 4.074 9.101 9.101 9.101h194.091c5.026 0 9.101-4.074 9.101-9.101v-194.09c-.001-5.027-4.075-9.101-9.102-9.101z" fill="#8d9ca8"/><path d="m30.906 475.944v-140.18c0-2.845 2.306-5.151 5.151-5.151h140.18c2.845 0 5.151 2.306 5.151 5.151v140.18c0 2.845-2.306 5.151-5.151 5.151h-140.181c-2.844 0-5.15-2.306-5.15-5.151z" fill="#d9e7ec"/><path d="m176.236 330.613h-22.664v2.061c0 67.747-54.92 122.666-122.666 122.666v20.604c0 2.845 2.306 5.151 5.151 5.151h140.18c2.845 0 5.151-2.306 5.151-5.151v-140.18c-.001-2.845-2.307-5.151-5.152-5.151z" fill="#c5d3dd"/><g><ellipse cx="261.151" cy="255.556" fill="#fd9468" rx="112.066" ry="111.735"/><path d="m308.529 154.278c10.323 16.91 16.269 36.768 16.269 58.011 0 61.71-50.174 111.735-112.066 111.735-16.934 0-32.986-3.752-47.378-10.456 19.664 32.212 55.21 53.724 95.797 53.724 61.892 0 112.066-50.025 112.066-111.735 0-44.827-26.479-83.48-64.688-101.279z" fill="#fe7d43"/><ellipse cx="261.151" cy="255.556" fill="#fee45a" rx="83.446" ry="83.189"/><path d="m324.251 201.213c.36 3.644.548 7.338.548 11.076 0 61.35-49.593 111.143-110.987 111.721 13.461 9.281 29.77 14.735 47.34 14.735 46.012 0 83.445-37.318 83.445-83.189 0-20.76-7.686-39.753-20.346-54.343z" fill="#fed230"/><path d="m305.57 275.135c0-10.003-5.291-18.79-13.218-23.721 3.475-4.656 5.535-10.427 5.535-16.671 0-12.68-8.5-23.406-20.1-26.798v-5.839c0-4.268-3.459-7.726-7.726-7.726s-7.726 3.459-7.726 7.726v4.716h-7.101v-4.716c0-4.268-3.459-7.726-7.726-7.726s-7.726 3.459-7.726 7.726v4.716h-2.406-.987-11.93c-4.267 0-7.726 3.459-7.726 7.726s3.459 7.726 7.726 7.726h4.203v32.666 32.666h-4.203c-4.267 0-7.726 3.459-7.726 7.726s3.459 7.726 7.726 7.726h11.93.987 2.406v4.717c0 4.268 3.459 7.726 7.726 7.726s7.726-3.459 7.726-7.726v-4.717h7.101v4.717c0 4.268 3.459 7.726 7.726 7.726s7.726-3.459 7.726-7.726v-4.721c15.333-.073 27.783-12.566 27.783-27.919zm-23.135-40.389c0 6.875-5.593 12.468-12.468 12.468h-25.853v-24.94h25.853c6.875.001 12.468 5.593 12.468 12.472zm-4.785 52.861h-33.536v-24.94h25.853 7.684c6.875 0 12.468 5.593 12.468 12.472-.001 6.875-5.594 12.468-12.469 12.468z" fill="#fd9468"/></g><g fill="#9facba"><g><path d="m111.26 67.477h-41.208c-4.267 0-7.726 3.459-7.726 7.726 0 4.268 3.459 7.726 7.726 7.726h41.207c4.267 0 7.726-3.459 7.726-7.726.001-4.267-3.458-7.726-7.725-7.726z"/><path d="m111.26 98.382h-41.208c-4.267 0-7.726 3.459-7.726 7.726 0 4.268 3.459 7.726 7.726 7.726h41.207c4.267 0 7.726-3.459 7.726-7.726.001-4.267-3.458-7.726-7.725-7.726z"/><path d="m141.65 97.867c-4.267 0-7.726 3.459-7.726 7.726v34.511c0 4.268 3.459 7.726 7.726 7.726s7.726-3.459 7.726-7.726v-34.511c0-4.267-3.459-7.726-7.726-7.726z"/><path d="m71.718 129.139c-5.026 0-9.101 4.059-9.101 9.067s4.074 9.067 9.101 9.067c5.026 0 9.101-4.06 9.101-9.067-.001-5.008-4.075-9.067-9.101-9.067z"/><path d="m102.623 129.139c-5.026 0-9.101 4.059-9.101 9.067s4.074 9.067 9.101 9.067c5.026 0 9.101-4.06 9.101-9.067 0-5.008-4.075-9.067-9.101-9.067z"/><path d="m141.77 85.463c5.026 0 9.101-4.06 9.101-9.067s-4.074-9.067-9.101-9.067c-5.026 0-9.101 4.059-9.101 9.067s4.075 9.067 9.101 9.067z"/></g><g><path d="m403.041 81.899h41.207c4.267 0 7.726-3.459 7.726-7.726 0-4.268-3.459-7.726-7.726-7.726h-41.207c-4.267 0-7.726 3.459-7.726 7.726 0 4.268 3.459 7.726 7.726 7.726z"/><path d="m444.249 97.352h-41.207c-4.267 0-7.726 3.459-7.726 7.726 0 4.268 3.459 7.726 7.726 7.726h41.207c4.267 0 7.726-3.459 7.726-7.726s-3.459-7.726-7.726-7.726z"/><path d="m372.651 96.837c-4.267 0-7.726 3.459-7.726 7.726v34.511c0 4.268 3.459 7.726 7.726 7.726s7.726-3.459 7.726-7.726v-34.511c0-4.267-3.459-7.726-7.726-7.726z"/><path d="m442.583 128.109c-5.026 0-9.101 4.059-9.101 9.067s4.074 9.067 9.101 9.067 9.101-4.06 9.101-9.067-4.075-9.067-9.101-9.067z"/><path d="m411.678 128.109c-5.026 0-9.101 4.059-9.101 9.067s4.074 9.067 9.101 9.067c5.026 0 9.101-4.06 9.101-9.067s-4.075-9.067-9.101-9.067z"/><path d="m372.531 66.298c-5.026 0-9.101 4.059-9.101 9.067s4.074 9.067 9.101 9.067c5.026 0 9.101-4.06 9.101-9.067s-4.075-9.067-9.101-9.067z"/></g><g><path d="m107.139 430.425h-41.207c-4.267 0-7.726 3.459-7.726 7.726s3.459 7.726 7.726 7.726h41.207c4.267 0 7.726-3.459 7.726-7.726s-3.459-7.726-7.726-7.726z"/><path d="m107.139 399.519h-41.207c-4.267 0-7.726 3.459-7.726 7.726s3.459 7.726 7.726 7.726h41.207c4.267 0 7.726-3.459 7.726-7.726s-3.459-7.726-7.726-7.726z"/><path d="m137.529 415.487c4.267 0 7.726-3.459 7.726-7.726v-34.511c0-4.268-3.459-7.726-7.726-7.726s-7.726 3.459-7.726 7.726v34.511c0 4.267 3.459 7.726 7.726 7.726z"/><path d="m67.597 384.215c5.026 0 9.101-4.06 9.101-9.067 0-5.008-4.074-9.067-9.101-9.067s-9.101 4.059-9.101 9.067c0 5.007 4.075 9.067 9.101 9.067z"/><path d="m98.503 384.215c5.026 0 9.101-4.06 9.101-9.067 0-5.008-4.074-9.067-9.101-9.067-5.026 0-9.101 4.059-9.101 9.067 0 5.007 4.074 9.067 9.101 9.067z"/><path d="m137.649 427.891c-5.026 0-9.101 4.059-9.101 9.067s4.074 9.067 9.101 9.067 9.101-4.06 9.101-9.067-4.074-9.067-9.101-9.067z"/></g><g><path d="m440.128 430.425h-41.207c-4.267 0-7.726 3.459-7.726 7.726s3.459 7.726 7.726 7.726h41.207c4.267 0 7.726-3.459 7.726-7.726s-3.459-7.726-7.726-7.726z"/><path d="m398.921 414.972h41.207c4.267 0 7.726-3.459 7.726-7.726s-3.459-7.726-7.726-7.726h-41.207c-4.267 0-7.726 3.459-7.726 7.726s3.458 7.726 7.726 7.726z"/><path d="m368.53 415.487c4.267 0 7.726-3.459 7.726-7.726v-34.511c0-4.268-3.459-7.726-7.726-7.726s-7.726 3.459-7.726 7.726v34.511c0 4.267 3.459 7.726 7.726 7.726z"/><path d="m438.462 384.215c5.026 0 9.101-4.06 9.101-9.067 0-5.008-4.074-9.067-9.101-9.067s-9.101 4.059-9.101 9.067c.001 5.007 4.075 9.067 9.101 9.067z"/><path d="m407.557 384.215c5.026 0 9.101-4.06 9.101-9.067 0-5.008-4.074-9.067-9.101-9.067-5.026 0-9.101 4.059-9.101 9.067 0 5.007 4.075 9.067 9.101 9.067z"/><path d="m368.41 427.891c-5.026 0-9.101 4.059-9.101 9.067s4.074 9.067 9.101 9.067c5.026 0 9.101-4.06 9.101-9.067s-4.075-9.067-9.101-9.067z"/></g></g></g></svg>