<svg id="Capa_1" enable-background="new 0 0 512 512" height="512" viewBox="0 0 512 512" width="512" xmlns="http://www.w3.org/2000/svg"><g><g><path d="m427.348 265.594c-4.273 0-7.736-3.459-7.736-7.726v-65.862c0-10.636 8.666-19.289 19.317-19.289h27.861c1.592 0 2.889-1.293 2.889-2.881v-58.787c0-4.268 3.463-7.726 7.736-7.726s7.736 3.459 7.736 7.726v58.787c0 10.11-8.236 18.334-18.361 18.334h-27.86c-2.12 0-3.846 1.721-3.846 3.836v65.862c0 4.267-3.463 7.726-7.736 7.726z" fill="#d9e7ec"/></g><g><path d="m86.607 265.594c-4.273 0-7.736-3.459-7.736-7.726v-65.862c0-2.115-1.725-3.836-3.846-3.836h-27.861c-10.124 0-18.361-8.224-18.361-18.334v-58.787c0-4.268 3.463-7.726 7.736-7.726s7.736 3.459 7.736 7.726v58.787c0 1.589 1.296 2.881 2.889 2.881h27.861c10.652 0 19.317 8.653 19.317 19.289v65.862c.001 4.267-3.462 7.726-7.735 7.726z" fill="#d9e7ec"/></g><g><ellipse cx="256" cy="128.881" fill="#fd9468" rx="129.487" ry="128.881"/><path d="m296.44 6.42c16.393 21.591 26.12 48.476 26.12 77.624 0 71.179-57.974 128.881-129.487 128.881-14.124 0-27.716-2.259-40.44-6.42 23.637 31.134 61.139 51.257 103.368 51.257 71.514 0 129.487-57.702 129.487-128.881-.001-57.121-37.34-105.556-89.048-122.461z" fill="#fe7d43"/><ellipse cx="256" cy="128.881" fill="#fee45a" rx="96.418" ry="95.955"/><path d="m319.671 56.89c1.887 8.755 2.889 17.837 2.889 27.154 0 66.158-50.086 120.664-114.575 128.025 14.147 8.118 30.546 12.767 48.015 12.767 53.165 0 96.418-43.045 96.418-95.955 0-28.645-12.682-54.394-32.747-71.991z" fill="#fed230"/><path d="m290.285 124.433c4.354-5.341 6.971-12.151 6.971-19.563 0-14.401-9.879-26.539-23.224-30.015v-7.626c0-4.268-3.463-7.726-7.736-7.726s-7.736 3.459-7.736 7.726v6.626h-12.651v-6.626c0-4.268-3.463-7.726-7.736-7.726s-7.736 3.459-7.736 7.726v6.626h-1.91-1.14-13.785c-4.273 0-7.736 3.459-7.736 7.726s3.463 7.726 7.736 7.726h6.049v38.864 38.865h-6.049c-4.273 0-7.736 3.459-7.736 7.726s3.463 7.726 7.736 7.726h13.785 1.14 1.91v6.626c0 4.268 3.463 7.726 7.736 7.726s7.736-3.459 7.736-7.726v-6.626h12.651v6.626c0 4.268 3.463 7.726 7.736 7.726s7.736-3.459 7.736-7.726v-6.626h1.048c17.123 0 31.053-13.913 31.053-31.028 0-11.586-6.399-21.703-15.848-27.027zm-8.501-19.551c0 8.581-6.99 15.562-15.582 15.562h-31.078v-31.137h31.078c8.592 0 15.582 6.981 15.582 15.575zm-6.704 62.154h-39.956v-31.139h31.078 8.878c8.592 0 15.581 6.982 15.581 15.576 0 8.582-6.989 15.563-15.581 15.563z" fill="#fd9468"/></g><path d="m486.213 512h-460.426c-8.719 0-15.787-7.068-15.787-15.787v-222.56c0-8.719 7.068-15.787 15.787-15.787h460.426c8.719 0 15.787 7.068 15.787 15.787v222.56c0 8.719-7.068 15.787-15.787 15.787z" fill="#8ac9fe"/><path d="m486.203 257.866h-40.933v181.697c0 8.713-7.073 15.777-15.797 15.777h-419.473v40.883c0 8.713 7.073 15.777 15.797 15.777h460.407c8.724 0 15.797-7.064 15.797-15.777v-222.58c-.001-8.713-7.074-15.777-15.798-15.777z" fill="#60b7ff"/><path d="m41.877 477.178v-184.49c0-1.657 1.343-3 3-3h422.246c1.657 0 3 1.343 3 3v184.49c0 1.657-1.343 3-3 3h-422.246c-1.657 0-3-1.343-3-3z" fill="#eaf6ff"/><path d="m445.27 289.689c0 91.487-74.256 165.651-165.855 165.651h-237.538v21.838c0 1.657 1.343 3 3 3h422.246c1.657 0 3-1.343 3-3v-184.49c0-1.657-1.343-3-3-3z" fill="#d8ecfe"/><g fill="#fd8087"><ellipse cx="477.413" cy="88.639" rx="22.528" ry="22.407"/><ellipse cx="36.544" cy="88.639" rx="22.528" ry="22.407"/><g><path d="m167.982 379.063c-11.578-4.391-22.315-9.188-24.986-10.396-3.057-2.289-4.523-5.99-3.934-10.012.714-4.872 4.311-8.764 9.622-10.409 14.432-4.469 27.485 6.295 27.756 6.522 3.229 2.767 8.096 2.411 10.887-.808 2.796-3.226 2.444-8.106-.787-10.898-.789-.682-19.608-16.647-42.44-9.574-10.977 3.401-18.774 12.188-20.347 22.931-1.479 10.097 2.762 19.828 11.068 25.397.343.23.706.434 1.083.607.515.236 12.773 5.848 26.585 11.088 10.189 3.866 15.301 10.057 14.027 16.988-1.201 6.534-8.293 13.479-19.072 13.479-9.841 0-19.359-4.134-25.458-11.057-2.822-3.205-7.712-3.517-10.918-.697-3.208 2.819-3.52 7.701-.698 10.904 8.993 10.208 22.852 16.303 37.074 16.303 17.085 0 31.505-10.994 34.29-26.142 2.092-11.397-3.047-26.369-23.752-34.226z"/><path d="m252.671 347.222c4.273 0 7.736-3.459 7.736-7.726s-3.463-7.726-7.736-7.726h-35.045c-4.273 0-7.736 3.459-7.736 7.726v92.128c0 4.268 3.463 7.726 7.736 7.726h35.045c4.273 0 7.736-3.459 7.736-7.726s-3.463-7.726-7.736-7.726h-27.309v-30.612h24.725c4.273 0 7.736-3.459 7.736-7.726s-3.463-7.726-7.736-7.726h-24.725v-30.611h27.309z"/><path d="m323.133 423.819c-.014 0-.029 0-.043 0-7.416.041-18.005.106-24.979.077v-84.4c0-4.268-3.463-7.726-7.736-7.726s-7.736 3.459-7.736 7.726v92.049c0 3.769 2.723 6.988 6.444 7.618.537.091 1.12.19 11.379.19 4.954 0 12.165-.023 22.713-.081 4.273-.024 7.717-3.502 7.694-7.769-.025-4.253-3.484-7.684-7.736-7.684z"/><path d="m385.823 423.819c-.014 0-.029 0-.043 0-7.417.04-17.999.093-24.978.077v-84.4c0-4.268-3.463-7.726-7.736-7.726s-7.736 3.459-7.736 7.726v92.049c0 3.769 2.723 6.988 6.443 7.618.536.091 1.12.19 11.385.19 4.953 0 12.163-.023 22.707-.081 4.273-.024 7.717-3.502 7.694-7.769-.024-4.253-3.483-7.684-7.736-7.684z"/></g></g></g></svg>